<svg width="217" height="60" viewBox="0 0 217 60" fill="none" xmlns="http://www.w3.org/2000/svg">
<g clip-path="url(#clip0_157_2)">
<path d="M67 27.9074C67 16.9182 73.4201 10 82.7737 10C90.5078 10 95.6659 13.9172 96.9309 21.7025L91.5712 21.7548C90.6606 16.7675 87.5773 14.6829 82.7218 14.6829C76.4514 14.6829 72.207 19.5164 72.207 27.6553V28.1134C72.207 35.7942 76.2528 40.4248 82.7218 40.4248C87.6751 40.4248 91.4673 37.2209 91.7209 32.4365H83.4276V28.0119H96.9768V44.3943H92.4757V39.2563C90.5536 42.9184 86.9662 45.0031 82.2634 45.0031C73.0167 45 67 38.3893 67 27.9074Z" fill="#0D403B"/>
<path d="M117.148 34.7242V31.7724C115.681 32.7901 113.154 33.196 110.828 33.7556C108.097 34.4689 105.875 35.333 105.875 37.8758C105.875 39.859 107.342 41.1811 109.97 41.1811C113.459 41.1811 116.744 39.4009 117.148 34.7211M100.818 38.0818C100.818 32.6887 104.812 31.468 110.123 30.2965C114.168 29.4325 116.643 29.1773 117.151 27.8551V27.4985C117.151 25.5152 115.684 23.9871 112.045 23.9871C108.405 23.9871 106.584 25.6136 106.382 28.3102V28.6146H101.377C101.53 23.2215 105.774 19.9653 112.097 19.9653C118.419 19.9653 121.854 22.7111 121.854 28.8175V40.6707L121.905 44.385H117.102V40.7722C115.485 43.6194 112.503 44.9938 109.062 44.9938C103.956 44.9938 100.821 42.1958 100.821 38.0756" fill="#0D403B"/>
<path d="M125.737 20.3773H130.694V24.8019C131.403 22.0039 133.273 20.1713 137.621 20.1713H138.379V25.054H136.102C131.855 25.054 130.694 27.191 130.694 32.0737V44.385H125.737V20.3773Z" fill="#0D403B"/>
<path d="M140.967 38.3893V15.6975L145.771 12.6966V20.3773H150.926V24.6512H145.771V37.7774C145.771 39.3025 146.376 40.0158 147.895 40.0158H150.724V44.3912H146.477C142.128 44.1883 141.016 42.202 140.967 38.3893Z" fill="#0D403B"/>
<path d="M169.633 34.7242V31.7724C168.166 32.7901 165.639 33.196 163.314 33.7556C160.582 34.4689 158.36 35.333 158.36 37.8758C158.36 39.859 159.827 41.1811 162.455 41.1811C165.945 41.1811 169.23 39.4009 169.633 34.7211M153.303 38.0818C153.303 32.6887 157.297 31.468 162.608 30.2965C166.654 29.4325 169.129 29.1773 169.636 27.8551V27.4985C169.636 25.5152 168.169 23.9871 164.53 23.9871C160.891 23.9871 159.069 25.6136 158.868 28.3102V28.6146H153.862C154.015 23.2215 158.26 19.9653 164.582 19.9653C170.904 19.9653 174.339 22.7111 174.339 28.8175V40.6707L174.391 44.385H169.587V40.7722C167.971 43.6194 164.985 44.9938 161.548 44.9938C156.441 44.9938 153.306 42.1958 153.306 38.0756" fill="#0D403B"/>
<path d="M183.228 10.1015H178.223V44.3912H183.228V10.1015Z" fill="#0D403B"/>
<path d="M187.066 23.5074L192.071 20.3773V44.3912H187.066V23.5074Z" fill="#0D403B"/>
<path d="M212.245 34.7242V31.7724C210.779 32.7901 208.251 33.196 205.926 33.7556C203.194 34.4689 200.973 35.333 200.973 37.8758C200.973 39.859 202.439 41.1811 205.067 41.1811C208.557 41.1811 211.842 39.4009 212.245 34.7211M195.915 38.0818C195.915 32.6887 199.909 31.468 205.22 30.2965C209.266 29.4325 211.741 29.1773 212.248 27.8551V27.4985C212.248 25.5152 210.782 23.9871 207.142 23.9871C203.503 23.9871 201.682 25.6136 201.48 28.3102V28.6146H196.475C196.627 23.2215 200.872 19.9653 207.194 19.9653C213.516 19.9653 216.951 22.7111 216.951 28.8175V40.6707L217.003 44.385H212.199V40.7722C210.583 43.6194 207.601 44.9938 204.16 44.9938C199.054 44.9938 195.918 42.1958 195.918 38.0756" fill="#0D403B"/>
<path d="M192.273 16.1126L186.913 19.4334V14.1448H192.273V16.1126Z" fill="#0D403B"/>
<g clip-path="url(#clip1_157_2)">
<path d="M67 27.9074C67 16.9182 73.4201 10 82.7737 10C90.5078 10 95.6659 13.9172 96.9309 21.7025L91.5712 21.7548C90.6606 16.7675 87.5773 14.6829 82.7218 14.6829C76.4514 14.6829 72.207 19.5164 72.207 27.6553V28.1134C72.207 35.7942 76.2528 40.4248 82.7218 40.4248C87.6751 40.4248 91.4673 37.2209 91.7209 32.4365H83.4276V28.0119H96.9768V44.3943H92.4757V39.2563C90.5536 42.9184 86.9662 45.0031 82.2634 45.0031C73.0167 45 67 38.3893 67 27.9074Z" fill="#0D403B"/>
<path d="M117.148 34.7242V31.7724C115.681 32.7901 113.154 33.196 110.828 33.7556C108.097 34.4689 105.875 35.333 105.875 37.8758C105.875 39.859 107.342 41.1811 109.97 41.1811C113.459 41.1811 116.744 39.4009 117.148 34.7211M100.818 38.0818C100.818 32.6887 104.812 31.468 110.123 30.2965C114.168 29.4325 116.643 29.1773 117.151 27.8551V27.4985C117.151 25.5152 115.684 23.9871 112.045 23.9871C108.405 23.9871 106.584 25.6136 106.382 28.3102V28.6146H101.377C101.53 23.2215 105.774 19.9653 112.097 19.9653C118.419 19.9653 121.854 22.7111 121.854 28.8175V40.6707L121.905 44.385H117.102V40.7722C115.485 43.6194 112.503 44.9938 109.062 44.9938C103.956 44.9938 100.821 42.1958 100.821 38.0756" fill="#0D403B"/>
<path d="M125.737 20.3773H130.694V24.8019C131.403 22.0039 133.273 20.1713 137.621 20.1713H138.379V25.054H136.102C131.855 25.054 130.694 27.191 130.694 32.0737V44.385H125.737V20.3773Z" fill="#0D403B"/>
<path d="M140.967 38.3893V15.6975L145.771 12.6966V20.3773H150.926V24.6512H145.771V37.7774C145.771 39.3025 146.376 40.0158 147.895 40.0158H150.724V44.3912H146.477C142.128 44.1883 141.016 42.202 140.967 38.3893Z" fill="#0D403B"/>
<path d="M169.633 34.7242V31.7724C168.166 32.7901 165.639 33.196 163.314 33.7556C160.582 34.4689 158.36 35.333 158.36 37.8758C158.36 39.859 159.827 41.1811 162.455 41.1811C165.945 41.1811 169.23 39.4009 169.633 34.7211M153.303 38.0818C153.303 32.6887 157.297 31.468 162.608 30.2965C166.654 29.4325 169.129 29.1773 169.636 27.8551V27.4985C169.636 25.5152 168.169 23.9871 164.53 23.9871C160.891 23.9871 159.069 25.6136 158.868 28.3102V28.6146H153.862C154.015 23.2215 158.26 19.9653 164.582 19.9653C170.904 19.9653 174.339 22.7111 174.339 28.8175V40.6707L174.391 44.385H169.587V40.7722C167.971 43.6194 164.985 44.9938 161.548 44.9938C156.441 44.9938 153.306 42.1958 153.306 38.0756" fill="#0D403B"/>
<path d="M183.228 10.1015H178.223V44.3912H183.228V10.1015Z" fill="#0D403B"/>
<path d="M187.066 23.5074L192.071 20.3773V44.3912H187.066V23.5074Z" fill="#0D403B"/>
<path d="M212.245 34.7242V31.7724C210.779 32.7901 208.251 33.196 205.926 33.7556C203.194 34.4689 200.973 35.333 200.973 37.8758C200.973 39.859 202.439 41.1811 205.067 41.1811C208.557 41.1811 211.842 39.4009 212.245 34.7211M195.915 38.0818C195.915 32.6887 199.909 31.468 205.22 30.2965C209.266 29.4325 211.741 29.1773 212.248 27.8551V27.4985C212.248 25.5152 210.782 23.9871 207.142 23.9871C203.503 23.9871 201.682 25.6136 201.48 28.3102V28.6146H196.475C196.627 23.2215 200.872 19.9653 207.194 19.9653C213.516 19.9653 216.951 22.7111 216.951 28.8175V40.6707L217.003 44.385H212.199V40.7722C210.583 43.6194 207.601 44.9938 204.16 44.9938C199.054 44.9938 195.918 42.1958 195.918 38.0756" fill="#0D403B"/>
<path d="M192.273 16.1126L186.913 19.4334V14.1448H192.273V16.1126Z" fill="#0D403B"/>
</g>
</g>
<g clip-path="url(#clip2_157_2)">
<path d="M26.5016 0C11.3674 0 0 11.3192 0 27.0954C0 33.2513 1.5623 38.3383 3.90735 42.7222H22.1661V60H30.8339V20.7296L22.1661 26.0901V35.5133H9.52077C8.73802 33.5313 8.09904 30.1368 8.09904 27.0954C8.09904 16.2725 16.0543 8.9141 26.4984 8.9141C36.9425 8.9141 44.7572 16.1294 44.7572 27.4486C44.7572 34.1707 42.6965 39.4072 41.0639 42.7285H49.4473C50.5847 40.3934 53 34.807 53 27.1654C53 11.4592 41.5623 0 26.5016 0Z" fill="#6BDB8A"/>
</g>
<defs>
<clipPath id="clip0_157_2">
<rect width="150" height="35" fill="white" transform="translate(67 10)"/>
</clipPath>
<clipPath id="clip1_157_2">
<rect width="150" height="35" fill="white" transform="translate(67 10)"/>
</clipPath>
<clipPath id="clip2_157_2">
<rect width="53" height="60" fill="white"/>
</clipPath>
</defs>
</svg>
