<svg width="53" height="60" viewBox="0 0 53 60" fill="none" xmlns="http://www.w3.org/2000/svg">
<g clip-path="url(#clip0_227_23)">
<path d="M26.5016 0C11.3674 0 0 11.3192 0 27.0954C0 33.2513 1.5623 38.3383 3.90735 42.7222H22.1661V60H30.8339V20.7296L22.1661 26.0901V35.5133H9.52077C8.73802 33.5313 8.09904 30.1368 8.09904 27.0954C8.09904 16.2725 16.0543 8.9141 26.4984 8.9141C36.9425 8.9141 44.7572 16.1294 44.7572 27.4486C44.7572 34.1707 42.6965 39.4072 41.0639 42.7285H49.4473C50.5847 40.3934 53 34.807 53 27.1654C53 11.4592 41.5623 0 26.5016 0Z" fill="#6BDB8A"/>
</g>
<defs>
<clipPath id="clip0_227_23">
<rect width="53" height="60" fill="white"/>
</clipPath>
</defs>
</svg>
