<?xml version="1.0" encoding="utf-8"?>
<!-- Generator: Adobe Illustrator 28.2.0, SVG Export Plug-In . SVG Version: 6.00 Build 0)  -->
<svg version="1.1" id="Capa_1" xmlns="http://www.w3.org/2000/svg" xmlns:xlink="http://www.w3.org/1999/xlink" x="0px" y="0px"
	 viewBox="0 0 217 60" style="enable-background:new 0 0 217 60;" xml:space="preserve">
<style type="text/css">
	.st0{fill:#FBFFFC;}
	.st1{clip-path:url(#SVGID_00000029010021552880346190000007018341489685709195_);}
	.st2{fill:#0D403B;}
</style>
<g>
	<g>
		<path class="st0" d="M67,27.9c0-11,6.4-17.9,15.8-17.9c7.7,0,12.9,3.9,14.2,11.7l-5.4,0.1c-0.9-5-4-7.1-8.8-7.1
			c-6.3,0-10.5,4.8-10.5,13v0.5c0,7.7,4,12.3,10.5,12.3c5,0,8.7-3.2,9-8h-8.3V28H97v16.4h-4.5v-5.1C90.6,42.9,87,45,82.3,45
			C73,45,67,38.4,67,27.9z"/>
		<path class="st0" d="M117.1,34.7v-3c-1.5,1-4,1.4-6.3,2c-2.7,0.7-5,1.6-5,4.1c0,2,1.5,3.3,4.1,3.3
			C113.5,41.2,116.7,39.4,117.1,34.7 M100.8,38.1c0-5.4,4-6.6,9.3-7.8c4-0.9,6.5-1.1,7-2.4v-0.4c0-2-1.5-3.5-5.1-3.5
			s-5.5,1.6-5.7,4.3v0.3h-5c0.2-5.4,4.4-8.6,10.7-8.6c6.3,0,9.8,2.7,9.8,8.9v11.9l0.1,3.7h-4.8v-3.6c-1.6,2.8-4.6,4.2-8,4.2
			C104,45,100.8,42.2,100.8,38.1"/>
		<path class="st0" d="M125.7,20.4h5v4.4c0.7-2.8,2.6-4.6,6.9-4.6h0.8v4.9h-2.3c-4.2,0-5.4,2.1-5.4,7v12.3h-5V20.4z"/>
		<path class="st0" d="M141,38.4V15.7l4.8-3v7.7h5.2v4.3h-5.2v13.1c0,1.5,0.6,2.2,2.1,2.2h2.8v4.4h-4.2
			C142.1,44.2,141,42.2,141,38.4z"/>
		<path class="st0" d="M169.6,34.7v-3c-1.5,1-4,1.4-6.3,2c-2.7,0.7-5,1.6-5,4.1c0,2,1.5,3.3,4.1,3.3
			C165.9,41.2,169.2,39.4,169.6,34.7 M153.3,38.1c0-5.4,4-6.6,9.3-7.8c4-0.9,6.5-1.1,7-2.4v-0.4c0-2-1.5-3.5-5.1-3.5
			s-5.5,1.6-5.7,4.3v0.3h-5c0.2-5.4,4.4-8.6,10.7-8.6s9.8,2.7,9.8,8.9v11.9l0.1,3.7h-4.8v-3.6c-1.6,2.8-4.6,4.2-8,4.2
			C156.4,45,153.3,42.2,153.3,38.1"/>
		<path class="st0" d="M183.2,10.1h-5v34.3h5V10.1z"/>
		<path class="st0" d="M187.1,23.5l5-3.1v24h-5V23.5z"/>
		<path class="st0" d="M212.2,34.7v-3c-1.5,1-4,1.4-6.3,2c-2.7,0.7-5,1.6-5,4.1c0,2,1.5,3.3,4.1,3.3
			C208.6,41.2,211.8,39.4,212.2,34.7 M195.9,38.1c0-5.4,4-6.6,9.3-7.8c4-0.9,6.5-1.1,7-2.4v-0.4c0-2-1.5-3.5-5.1-3.5
			s-5.5,1.6-5.7,4.3v0.3h-5c0.2-5.4,4.4-8.6,10.7-8.6s9.8,2.7,9.8,8.9v11.9l0.1,3.7h-4.8v-3.6c-1.6,2.8-4.6,4.2-8,4.2
			C199.1,45,195.9,42.2,195.9,38.1"/>
		<path class="st0" d="M192.3,16.1l-5.4,3.3v-5.3h5.4V16.1z"/>
		<g>
			<g>
				<path class="st0" d="M67,27.9c0-11,6.4-17.9,15.8-17.9c7.7,0,12.9,3.9,14.2,11.7l-5.4,0.1c-0.9-5-4-7.1-8.8-7.1
					c-6.3,0-10.5,4.8-10.5,13v0.5c0,7.7,4,12.3,10.5,12.3c5,0,8.7-3.2,9-8h-8.3V28H97v16.4h-4.5v-5.1C90.6,42.9,87,45,82.3,45
					C73,45,67,38.4,67,27.9z"/>
				<path class="st0" d="M117.1,34.7v-3c-1.5,1-4,1.4-6.3,2c-2.7,0.7-5,1.6-5,4.1c0,2,1.5,3.3,4.1,3.3
					C113.5,41.2,116.7,39.4,117.1,34.7 M100.8,38.1c0-5.4,4-6.6,9.3-7.8c4-0.9,6.5-1.1,7-2.4v-0.4c0-2-1.5-3.5-5.1-3.5
					s-5.5,1.6-5.7,4.3v0.3h-5c0.2-5.4,4.4-8.6,10.7-8.6c6.3,0,9.8,2.7,9.8,8.9v11.9l0.1,3.7h-4.8v-3.6c-1.6,2.8-4.6,4.2-8,4.2
					C104,45,100.8,42.2,100.8,38.1"/>
				<path class="st0" d="M125.7,20.4h5v4.4c0.7-2.8,2.6-4.6,6.9-4.6h0.8v4.9h-2.3c-4.2,0-5.4,2.1-5.4,7v12.3h-5V20.4z"/>
				<path class="st0" d="M141,38.4V15.7l4.8-3v7.7h5.2v4.3h-5.2v13.1c0,1.5,0.6,2.2,2.1,2.2h2.8v4.4h-4.2
					C142.1,44.2,141,42.2,141,38.4z"/>
				<path class="st0" d="M169.6,34.7v-3c-1.5,1-4,1.4-6.3,2c-2.7,0.7-5,1.6-5,4.1c0,2,1.5,3.3,4.1,3.3
					C165.9,41.2,169.2,39.4,169.6,34.7 M153.3,38.1c0-5.4,4-6.6,9.3-7.8c4-0.9,6.5-1.1,7-2.4v-0.4c0-2-1.5-3.5-5.1-3.5
					s-5.5,1.6-5.7,4.3v0.3h-5c0.2-5.4,4.4-8.6,10.7-8.6s9.8,2.7,9.8,8.9v11.9l0.1,3.7h-4.8v-3.6c-1.6,2.8-4.6,4.2-8,4.2
					C156.4,45,153.3,42.2,153.3,38.1"/>
				<path class="st0" d="M183.2,10.1h-5v34.3h5V10.1z"/>
				<path class="st0" d="M187.1,23.5l5-3.1v24h-5V23.5z"/>
				<path class="st0" d="M212.2,34.7v-3c-1.5,1-4,1.4-6.3,2c-2.7,0.7-5,1.6-5,4.1c0,2,1.5,3.3,4.1,3.3
					C208.6,41.2,211.8,39.4,212.2,34.7 M195.9,38.1c0-5.4,4-6.6,9.3-7.8c4-0.9,6.5-1.1,7-2.4v-0.4c0-2-1.5-3.5-5.1-3.5
					s-5.5,1.6-5.7,4.3v0.3h-5c0.2-5.4,4.4-8.6,10.7-8.6s9.8,2.7,9.8,8.9v11.9l0.1,3.7h-4.8v-3.6c-1.6,2.8-4.6,4.2-8,4.2
					C199.1,45,195.9,42.2,195.9,38.1"/>
				<path class="st0" d="M192.3,16.1l-5.4,3.3v-5.3h5.4V16.1z"/>
			</g>
		</g>
	</g>
</g>
<g>
	<g>
		<defs>
			<rect id="SVGID_1_" width="53" height="60"/>
		</defs>
		<clipPath id="SVGID_00000036962760374042209080000009900923698163798963_">
			<use xlink:href="#SVGID_1_"  style="overflow:visible;"/>
		</clipPath>
		<g style="clip-path:url(#SVGID_00000036962760374042209080000009900923698163798963_);">
			<path class="st2" d="M26.5,0C11.4,0,0,11.3,0,27.1c0,6.2,1.6,11.2,3.9,15.6h18.3V60h8.7V20.7l-8.7,5.4v9.4H9.5
				c-0.8-2-1.4-5.4-1.4-8.4c0-10.8,8-18.2,18.4-18.2s18.3,7.2,18.3,18.5c0,6.7-2.1,12-3.7,15.3h8.4c1.1-2.3,3.6-7.9,3.6-15.6
				C53,11.5,41.6,0,26.5,0z"/>
		</g>
	</g>
</g>
</svg>
