<svg width="150" height="35" viewBox="0 0 150 35" fill="none" xmlns="http://www.w3.org/2000/svg">
<g clip-path="url(#clip0_227_3)">
<path d="M0 17.9074C0 6.91821 6.4201 0 15.7737 0C23.5078 0 28.6659 3.91725 29.9309 11.7025L24.5712 11.7548C23.6606 6.76755 20.5773 4.68286 15.7218 4.68286C9.45139 4.68286 5.20698 9.51638 5.20698 17.6553V18.1134C5.20698 25.7942 9.25277 30.4248 15.7218 30.4248C20.6751 30.4248 24.4673 27.2209 24.7209 22.4365H16.4276V18.0119H29.9768V34.3943H25.4757V29.2563C23.5536 32.9184 19.9662 35.0031 15.2634 35.0031C6.01675 35 0 28.3893 0 17.9074Z" fill="#0D403B"/>
<path d="M50.1477 24.7242V21.7724C48.6809 22.7901 46.1538 23.196 43.8284 23.7556C41.0966 24.4689 38.8751 25.333 38.8751 27.8758C38.8751 29.859 40.3418 31.1811 42.9697 31.1811C46.4594 31.1811 49.7443 29.4009 50.1477 24.7211M33.8178 28.0818C33.8178 22.6887 37.8117 21.468 43.1225 20.2965C47.1683 19.4325 49.6435 19.1773 50.1507 17.8551V17.4985C50.1507 15.5152 48.684 13.9871 45.0446 13.9871C41.4052 13.9871 39.584 15.6136 39.3823 18.3102V18.6146H34.377C34.5298 13.2215 38.7742 9.9653 45.0965 9.9653C51.4189 9.9653 54.8535 12.7111 54.8535 18.8175V30.6707L54.9054 34.385H50.1018V30.7722C48.4853 33.6194 45.5029 34.9938 42.0622 34.9938C36.9561 34.9938 33.8209 32.1958 33.8209 28.0756" fill="#0D403B"/>
<path d="M58.7374 10.3773H63.6938V14.8019C64.4027 12.0039 66.2728 10.1713 70.6211 10.1713H71.3789V15.054H69.1024C64.8549 15.054 63.6938 17.191 63.6938 22.0737V34.385H58.7374V10.3773Z" fill="#0D403B"/>
<path d="M73.9672 28.3893V5.69753L78.7708 2.69657V10.3773H83.9258V14.6512H78.7708V27.7774C78.7708 29.3025 79.3758 30.0158 80.8945 30.0158H83.7241V34.3912H79.4767C75.1283 34.1883 74.0161 32.202 73.9672 28.3893Z" fill="#0D403B"/>
<path d="M102.633 24.7242V21.7724C101.166 22.7901 98.6392 23.196 96.3138 23.7556C93.5819 24.4689 91.3604 25.333 91.3604 27.8758C91.3604 29.859 92.8272 31.1811 95.4551 31.1811C98.9447 31.1811 102.23 29.4009 102.633 24.7211M86.3032 28.0818C86.3032 22.6887 90.297 21.468 95.6079 20.2965C99.6537 19.4325 102.129 19.1773 102.636 17.8551V17.4985C102.636 15.5152 101.169 13.9871 97.5299 13.9871C93.8906 13.9871 92.0693 15.6136 91.8677 18.3102V18.6146H86.8624C87.0152 13.2215 91.2596 9.9653 97.5819 9.9653C103.904 9.9653 107.339 12.7111 107.339 18.8175V30.6707L107.391 34.385H102.587V30.7722C100.971 33.6194 97.9852 34.9938 94.5475 34.9938C89.4414 34.9938 86.3062 32.1958 86.3062 28.0756" fill="#0D403B"/>
<path d="M116.228 0.101467H111.223V34.3912H116.228V0.101467Z" fill="#0D403B"/>
<path d="M120.066 13.5074L125.071 10.3773V34.3912H120.066V13.5074Z" fill="#0D403B"/>
<path d="M145.245 24.7242V21.7724C143.779 22.7901 141.251 23.196 138.926 23.7556C136.194 24.4689 133.973 25.333 133.973 27.8758C133.973 29.859 135.439 31.1811 138.067 31.1811C141.557 31.1811 144.842 29.4009 145.245 24.7211M128.915 28.0818C128.915 22.6887 132.909 21.468 138.22 20.2965C142.266 19.4325 144.741 19.1773 145.248 17.8551V17.4985C145.248 15.5152 143.782 13.9871 140.142 13.9871C136.503 13.9871 134.682 15.6136 134.48 18.3102V18.6146H129.475C129.627 13.2215 133.872 9.9653 140.194 9.9653C146.516 9.9653 149.951 12.7111 149.951 18.8175V30.6707L150.003 34.385H145.199V30.7722C143.583 33.6194 140.601 34.9938 137.16 34.9938C132.054 34.9938 128.918 32.1958 128.918 28.0756" fill="#0D403B"/>
<path d="M125.273 6.11262L119.913 9.43337V4.14478H125.273V6.11262Z" fill="#0D403B"/>
<g clip-path="url(#clip1_227_3)">
<path d="M0 17.9074C0 6.91821 6.4201 0 15.7737 0C23.5078 0 28.6659 3.91725 29.9309 11.7025L24.5712 11.7548C23.6606 6.76755 20.5773 4.68286 15.7218 4.68286C9.45139 4.68286 5.20698 9.51638 5.20698 17.6553V18.1134C5.20698 25.7942 9.25277 30.4248 15.7218 30.4248C20.6751 30.4248 24.4673 27.2209 24.7209 22.4365H16.4276V18.0119H29.9768V34.3943H25.4757V29.2563C23.5536 32.9184 19.9662 35.0031 15.2634 35.0031C6.01675 35 0 28.3893 0 17.9074Z" fill="#0D403B"/>
<path d="M50.1477 24.7242V21.7724C48.6809 22.7901 46.1538 23.196 43.8284 23.7556C41.0966 24.4689 38.8751 25.333 38.8751 27.8758C38.8751 29.859 40.3418 31.1811 42.9697 31.1811C46.4594 31.1811 49.7443 29.4009 50.1477 24.7211M33.8178 28.0818C33.8178 22.6887 37.8117 21.468 43.1225 20.2965C47.1683 19.4325 49.6435 19.1773 50.1507 17.8551V17.4985C50.1507 15.5152 48.684 13.9871 45.0446 13.9871C41.4052 13.9871 39.584 15.6136 39.3823 18.3102V18.6146H34.377C34.5298 13.2215 38.7742 9.9653 45.0965 9.9653C51.4189 9.9653 54.8535 12.7111 54.8535 18.8175V30.6707L54.9054 34.385H50.1018V30.7722C48.4853 33.6194 45.5029 34.9938 42.0622 34.9938C36.9561 34.9938 33.8209 32.1958 33.8209 28.0756" fill="#0D403B"/>
<path d="M58.7374 10.3773H63.6938V14.8019C64.4027 12.0039 66.2728 10.1713 70.6211 10.1713H71.3789V15.054H69.1024C64.8549 15.054 63.6938 17.191 63.6938 22.0737V34.385H58.7374V10.3773Z" fill="#0D403B"/>
<path d="M73.9672 28.3893V5.69753L78.7708 2.69657V10.3773H83.9258V14.6512H78.7708V27.7774C78.7708 29.3025 79.3758 30.0158 80.8945 30.0158H83.7241V34.3912H79.4767C75.1283 34.1883 74.0161 32.202 73.9672 28.3893Z" fill="#0D403B"/>
<path d="M102.633 24.7242V21.7724C101.166 22.7901 98.6392 23.196 96.3138 23.7556C93.5819 24.4689 91.3604 25.333 91.3604 27.8758C91.3604 29.859 92.8272 31.1811 95.4551 31.1811C98.9447 31.1811 102.23 29.4009 102.633 24.7211M86.3032 28.0818C86.3032 22.6887 90.297 21.468 95.6079 20.2965C99.6537 19.4325 102.129 19.1773 102.636 17.8551V17.4985C102.636 15.5152 101.169 13.9871 97.5299 13.9871C93.8906 13.9871 92.0693 15.6136 91.8677 18.3102V18.6146H86.8624C87.0152 13.2215 91.2596 9.9653 97.5819 9.9653C103.904 9.9653 107.339 12.7111 107.339 18.8175V30.6707L107.391 34.385H102.587V30.7722C100.971 33.6194 97.9852 34.9938 94.5475 34.9938C89.4414 34.9938 86.3062 32.1958 86.3062 28.0756" fill="#0D403B"/>
<path d="M116.228 0.101467H111.223V34.3912H116.228V0.101467Z" fill="#0D403B"/>
<path d="M120.066 13.5074L125.071 10.3773V34.3912H120.066V13.5074Z" fill="#0D403B"/>
<path d="M145.245 24.7242V21.7724C143.779 22.7901 141.251 23.196 138.926 23.7556C136.194 24.4689 133.973 25.333 133.973 27.8758C133.973 29.859 135.439 31.1811 138.067 31.1811C141.557 31.1811 144.842 29.4009 145.245 24.7211M128.915 28.0818C128.915 22.6887 132.909 21.468 138.22 20.2965C142.266 19.4325 144.741 19.1773 145.248 17.8551V17.4985C145.248 15.5152 143.782 13.9871 140.142 13.9871C136.503 13.9871 134.682 15.6136 134.48 18.3102V18.6146H129.475C129.627 13.2215 133.872 9.9653 140.194 9.9653C146.516 9.9653 149.951 12.7111 149.951 18.8175V30.6707L150.003 34.385H145.199V30.7722C143.583 33.6194 140.601 34.9938 137.16 34.9938C132.054 34.9938 128.918 32.1958 128.918 28.0756" fill="#0D403B"/>
<path d="M125.273 6.11262L119.913 9.43337V4.14478H125.273V6.11262Z" fill="#0D403B"/>
</g>
</g>
<defs>
<clipPath id="clip0_227_3">
<rect width="150" height="35" fill="white"/>
</clipPath>
<clipPath id="clip1_227_3">
<rect width="150" height="35" fill="white"/>
</clipPath>
</defs>
</svg>
