<?xml version="1.0" encoding="UTF-8"?>
<svg id="Capa_1" xmlns="http://www.w3.org/2000/svg" viewBox="0 0 217 60">
  <defs>
    <style>
      .cls-1 {
        fill: #fff;
      }

      .cls-2 {
        fill: #08452d;
      }
    </style>
  </defs>
  <path class="cls-2" d="M37.45,59.44c-5.83,0-11.74-1.81-17.18-5.34-7.29-4.72-13.18-12.03-16.59-20.57l-.42-1.06,1.13-.16c9.26-1.29,18.5.39,26.01,4.73,7.87,4.55,13.23,11.77,15.11,20.32l.18.83-.82.23c-2.43.68-4.92,1.01-7.43,1.01ZM5.8,33.95c6.23,14.45,21.22,27.02,37.76,22.97-3.84-15.29-19.79-24.98-37.76-22.97Z"/>
  <path class="cls-2" d="M45.22,58.68l-.82-.23c-8.51-2.39-15.54-8.55-19.79-17.35-3.99-8.25-5.3-18.05-3.69-27.6l.19-1.13,1.05.45c9.05,3.9,16.45,10.47,20.84,18.49,4.6,8.4,5.48,17.83,2.49,26.56l-.28.8ZM22.51,14.96c-2.33,16.5,4.33,36.14,21.55,41.52,4.96-15.94-4.16-33.49-21.55-41.52Z"/>
  <path class="cls-2" d="M44.59,58.84l-.61-.6c-7.08-6.96-10.66-16.82-10.09-27.77.54-10.28,4.55-20.64,11.31-29.18l.71-.9.7.9c6.8,8.74,10.53,19.21,10.52,29.49-.02,10.75-4.25,20.51-11.91,27.49l-.63.57ZM45.9,3.32c-11.37,15.08-15.51,38.29-1.26,53.03,13.7-13.11,14.22-35.56,1.26-53.03Z"/>
  <path class="cls-2" d="M44.02,58.69l-.24-.81c-2.6-8.66-1.13-18.11,4.13-26.6,4.94-7.96,12.68-14.47,21.82-18.32l1.06-.45.18,1.13c1.59,9.96-.02,19.95-4.54,28.14-4.73,8.58-12.39,14.51-21.57,16.72l-.83.2ZM69.35,15.07c-15.56,7.04-28.91,23.59-24.09,41.46,16.53-4.46,26.71-21.99,24.09-41.46Z"/>
  <path class="cls-2" d="M52.6,59.61c-2.74,0-5.5-.37-8.2-1.11l-.82-.22.18-.83c1.79-8.36,7.31-15.52,15.54-20.16,7.71-4.35,17.09-6.21,26.41-5.24l1.14.12-.39,1.08c-3.22,8.97-9.1,16.51-16.57,21.24-5.36,3.39-11.31,5.13-17.28,5.13ZM45.71,56.98c15.64,3.78,31.96-6.05,38.65-23.26-16.02-1.22-34.5,6.38-38.65,23.26Z"/>
  <g>
    <path class="cls-1" d="M117.16,34.75v3.9h-14.95v-22.04h4.55v18.14h10.4Z"/>
    <path class="cls-1" d="M131.55,28.66v5.69c0,1.98.15,3.25.43,4.3h-3.9c-.15-.65-.22-1.33-.22-2.1h-.06c-1.18,1.67-2.94,2.48-5.11,2.48-3.34,0-5.35-2.04-5.35-4.77,0-2.57,1.55-4.3,6.1-5.01,1.18-.19,2.94-.37,3.93-.43v-.56c0-1.98-1.05-2.79-2.57-2.79-1.61,0-2.54.9-2.6,2.38h-4.21c.15-3,2.32-5.42,6.81-5.42s6.75,2.1,6.75,6.22ZM127.37,31.44c-.93.06-2.23.19-3.16.34-1.8.31-2.54.9-2.54,2.17,0,1.18.8,1.98,2.32,1.98.9,0,1.86-.28,2.48-.9.74-.74.9-1.58.9-3v-.59Z"/>
    <path class="cls-1" d="M155.78,23.36h-4.61c0-2.29-1.33-3.62-3.84-3.62-2.01,0-3.37.99-3.37,2.41,0,1.7,1.33,2.26,4.8,3.13,4.15,1.02,7.74,2.1,7.74,6.9,0,4.18-3.47,6.96-8.6,6.96-5.48,0-8.91-2.72-8.91-7.74h4.7c0,2.66,1.45,4.05,4.27,4.05,2.32,0,3.81-1.08,3.81-2.82,0-1.95-1.42-2.32-4.55-3.13-4.15-1.05-7.92-2.04-7.92-6.87,0-3.87,3.31-6.53,8.14-6.53,5.51,0,8.36,2.51,8.36,7.24Z"/>
    <path class="cls-1" d="M171.38,28.66v5.69c0,1.98.15,3.25.43,4.3h-3.9c-.15-.65-.22-1.33-.22-2.1h-.06c-1.18,1.67-2.94,2.48-5.11,2.48-3.34,0-5.35-2.04-5.35-4.77,0-2.57,1.55-4.3,6.1-5.01,1.18-.19,2.94-.37,3.93-.43v-.56c0-1.98-1.05-2.79-2.57-2.79-1.61,0-2.54.9-2.6,2.38h-4.21c.15-3,2.32-5.42,6.81-5.42s6.75,2.1,6.75,6.22ZM167.2,31.44c-.93.06-2.23.19-3.16.34-1.8.31-2.54.9-2.54,2.17,0,1.18.8,1.98,2.32,1.98.9,0,1.86-.28,2.48-.9.74-.74.9-1.58.9-3v-.59Z"/>
    <path class="cls-1" d="M178.94,22.03v.9h2.97v3.22h-2.97v12.5h-4.27v-12.5h-2.6v-3.22h2.6v-1.42c0-3.44,1.83-5.14,5.2-5.14.74,0,1.61.12,2.14.25v3.06c-.19-.06-.5-.09-.77-.09-1.52,0-2.29.65-2.29,2.45Z"/>
    <path class="cls-1" d="M197.78,30.79c0,5.11-3.13,8.36-8.05,8.36s-8.05-3.25-8.05-8.36,3.13-8.36,8.05-8.36,8.05,3.25,8.05,8.36ZM186.24,30.79c0,3.06,1.36,5.01,3.5,5.01s3.5-1.95,3.5-5.01-1.36-5.01-3.5-5.01-3.5,1.95-3.5,5.01Z"/>
    <path class="cls-1" d="M209.52,22.87v3.75c-.5-.09-.93-.15-1.36-.15-2.66,0-4.09,1.67-4.09,4.77v7.43h-4.33v-15.72h3.99v2.23h.06c1.05-1.7,2.45-2.48,4.3-2.48.43,0,.99.06,1.42.19Z"/>
  </g>
  <g>
    <path class="cls-1" d="M104.39,54.04c0,2.15-1.22,3.2-3.31,3.2-.27,0-.56-.03-.75-.08v-.98c.29.05.5.07.73.07,1.4,0,2.15-.67,2.15-2.24v-8.41h1.18v8.44Z"/>
    <path class="cls-1" d="M110.16,53.44l-1.59,3.74h-1.25l5.05-11.58h1.59l5.03,11.58h-1.25l-1.59-3.74h-5.98ZM115.21,51.26c-.7-1.64-1.34-3.14-2.04-4.8h-.04c-.7,1.66-1.33,3.15-2.04,4.8l-.52,1.2h5.14l-.5-1.2Z"/>
    <path class="cls-1" d="M126.08,45.61c3.01,0,4.37,1.15,4.37,3.09,0,1.5-.98,2.63-2.47,2.91v.03c.95.26,1.34.75,1.9,2.16l1.34,3.38h-1.27l-1.22-3.22c-.56-1.45-1.18-1.89-2.6-1.89h-2.63v5.11h-1.16v-11.58h3.74ZM123.5,51.12h2.65c2.17,0,3.12-1.04,3.1-2.41,0-1.46-1.15-2.15-3.19-2.15h-2.56v4.55Z"/>
    <path class="cls-1" d="M139.08,45.61c4.15,0,6.52,2.08,6.52,5.79s-2.36,5.79-6.52,5.79h-3.73v-11.58h3.73ZM136.52,56.22h2.56c3.4,0,5.28-1.72,5.28-4.83s-1.88-4.83-5.28-4.83h-2.56v9.66Z"/>
    <path class="cls-1" d="M150.01,57.18v-11.58h1.16v11.58h-1.16Z"/>
    <path class="cls-1" d="M164.53,57.18l-3.31-5.14c-1.18-1.82-2.31-3.61-3.46-5.38h-.04c0,1.93.02,3.85.02,5.79v4.73h-1.16v-11.58h1.77l3.31,5.14c1.18,1.82,2.31,3.61,3.46,5.38h.04c-.02-1.93-.02-3.85-.02-5.79v-4.73h1.16v11.58h-1.77Z"/>
    <path class="cls-1" d="M172.88,46.57v4.19h6.43v.96h-6.43v4.5h6.98v.96h-8.15v-11.58h7.93v.96h-6.77Z"/>
    <path class="cls-1" d="M188.17,45.61c3.01,0,4.37,1.15,4.37,3.09,0,1.5-.98,2.63-2.47,2.91v.03c.95.26,1.34.75,1.9,2.16l1.34,3.38h-1.27l-1.22-3.22c-.56-1.45-1.18-1.89-2.6-1.89h-2.63v5.11h-1.16v-11.58h3.74ZM185.59,51.12h2.65c2.17,0,3.12-1.04,3.1-2.41,0-1.46-1.15-2.15-3.19-2.15h-2.56v4.55Z"/>
    <path class="cls-1" d="M207.69,51.39c0,3.66-2.2,6-5.66,6s-5.68-2.34-5.68-6,2.22-6,5.68-6,5.66,2.34,5.66,6ZM197.59,51.39c0,3.06,1.72,5.01,4.44,5.01s4.44-1.95,4.44-5.01-1.74-5.01-4.44-5.01-4.44,1.95-4.44,5.01Z"/>
  </g>
</svg>