<?xml version="1.0" encoding="UTF-8"?>
<svg id="Capa_1" xmlns="http://www.w3.org/2000/svg" viewBox="0 0 150 35">
  <defs>
    <style>
      .cls-1 {
        fill: #08452d;
      }
    </style>
  </defs>
  <path class="cls-1" d="M30.93,26.29v4.44H13.91V5.64h5.18v20.65h11.84Z"/>
  <path class="cls-1" d="M47.32,19.35v6.48c0,2.26.18,3.7.49,4.9h-4.44c-.18-.74-.25-1.52-.25-2.4h-.07c-1.34,1.9-3.35,2.82-5.81,2.82-3.81,0-6.1-2.33-6.1-5.43,0-2.93,1.76-4.9,6.94-5.71,1.34-.21,3.35-.42,4.48-.49v-.63c0-2.26-1.2-3.17-2.92-3.17-1.83,0-2.89,1.02-2.96,2.71h-4.79c.18-3.42,2.64-6.17,7.75-6.17s7.68,2.4,7.68,7.08ZM42.56,22.52c-1.06.07-2.54.21-3.59.39-2.04.35-2.89,1.02-2.89,2.47,0,1.34.92,2.26,2.64,2.26,1.02,0,2.11-.32,2.82-1.02.85-.85,1.02-1.8,1.02-3.42v-.67Z"/>
  <path class="cls-1" d="M74.91,13.33h-5.25c0-2.61-1.52-4.12-4.37-4.12-2.29,0-3.84,1.13-3.84,2.75,0,1.94,1.52,2.57,5.46,3.56,4.72,1.16,8.81,2.4,8.81,7.86,0,4.76-3.95,7.93-9.8,7.93-6.24,0-10.15-3.1-10.15-8.81h5.36c0,3.03,1.66,4.62,4.86,4.62,2.64,0,4.33-1.23,4.33-3.21,0-2.22-1.62-2.64-5.18-3.56-4.72-1.2-9.02-2.33-9.02-7.82,0-4.41,3.77-7.44,9.27-7.44,6.27,0,9.52,2.85,9.52,8.25Z"/>
  <path class="cls-1" d="M92.67,19.35v6.48c0,2.26.18,3.7.49,4.9h-4.44c-.18-.74-.25-1.52-.25-2.4h-.07c-1.34,1.9-3.35,2.82-5.81,2.82-3.81,0-6.1-2.33-6.1-5.43,0-2.93,1.76-4.9,6.94-5.71,1.34-.21,3.35-.42,4.48-.49v-.63c0-2.26-1.2-3.17-2.92-3.17-1.83,0-2.89,1.02-2.96,2.71h-4.79c.18-3.42,2.64-6.17,7.75-6.17s7.68,2.4,7.68,7.08ZM87.92,22.52c-1.06.07-2.54.21-3.59.39-2.04.35-2.89,1.02-2.89,2.47,0,1.34.92,2.26,2.64,2.26,1.02,0,2.11-.32,2.82-1.02.85-.85,1.02-1.8,1.02-3.42v-.67Z"/>
  <path class="cls-1" d="M101.27,11.81v1.02h3.38v3.67h-3.38v14.24h-4.86v-14.24h-2.96v-3.67h2.96v-1.62c0-3.91,2.08-5.85,5.92-5.85.85,0,1.83.14,2.43.28v3.49c-.21-.07-.56-.11-.88-.11-1.73,0-2.61.74-2.61,2.78Z"/>
  <path class="cls-1" d="M122.73,21.78c0,5.81-3.56,9.51-9.16,9.51s-9.16-3.7-9.16-9.51,3.56-9.52,9.16-9.52,9.16,3.7,9.16,9.52ZM109.59,21.78c0,3.49,1.55,5.71,3.98,5.71s3.98-2.22,3.98-5.71-1.55-5.71-3.98-5.71-3.98,2.22-3.98,5.71Z"/>
  <path class="cls-1" d="M136.09,12.76v4.26c-.56-.11-1.06-.18-1.55-.18-3.03,0-4.65,1.9-4.65,5.43v8.46h-4.93V12.83h4.55v2.54h.07c1.2-1.94,2.78-2.82,4.9-2.82.49,0,1.13.07,1.62.21Z"/>
</svg>