<?xml version="1.0" encoding="UTF-8"?>
<svg id="Capa_1" xmlns="http://www.w3.org/2000/svg" viewBox="0 0 53 60">
  <defs>
    <style>
      .cls-1 {
        fill: #7fe46b;
      }
    </style>
  </defs>
  <path class="cls-1" d="M21.83,48.08c-3.58,0-7.21-1.11-10.55-3.28-4.48-2.9-8.09-7.38-10.18-12.63l-.26-.65.7-.1c5.69-.79,11.36.24,15.97,2.91,4.83,2.79,8.13,7.22,9.28,12.48l.11.51-.5.14c-1.49.42-3.02.62-4.56.62ZM2.4,32.43c3.83,8.87,13.03,16.59,23.18,14.1-2.36-9.39-12.15-15.34-23.18-14.1Z"/>
  <path class="cls-1" d="M26.6,47.61l-.5-.14c-5.23-1.47-9.54-5.25-12.15-10.65-2.45-5.06-3.25-11.08-2.27-16.95l.12-.69.65.28c5.56,2.4,10.1,6.43,12.8,11.35,2.82,5.16,3.37,10.95,1.53,16.31l-.17.49ZM12.66,20.76c-1.43,10.13,2.66,22.19,13.23,25.49,3.04-9.79-2.55-20.56-13.23-25.49Z"/>
  <path class="cls-1" d="M26.22,47.71l-.37-.37c-4.35-4.27-6.55-10.33-6.19-17.05.33-6.31,2.8-12.67,6.94-17.92l.44-.55.43.56c4.17,5.37,6.47,11.8,6.46,18.1-.01,6.6-2.61,12.59-7.31,16.88l-.39.35ZM27.02,13.62c-6.98,9.26-9.52,23.51-.77,32.56,8.41-8.05,8.73-21.83.77-32.56Z"/>
  <path class="cls-1" d="M25.87,47.61l-.15-.5c-1.6-5.32-.7-11.12,2.54-16.33,3.03-4.89,7.79-8.88,13.39-11.25l.65-.27.11.69c.98,6.11-.01,12.25-2.79,17.28-2.91,5.27-7.61,8.91-13.24,10.26l-.51.12ZM41.42,20.83c-9.55,4.32-17.75,14.49-14.79,25.45,10.15-2.74,16.4-13.5,14.79-25.45Z"/>
  <path class="cls-1" d="M31.13,48.18c-1.69,0-3.37-.22-5.04-.68l-.5-.14.11-.51c1.1-5.13,4.49-9.53,9.54-12.38,4.74-2.67,10.5-3.81,16.22-3.22l.7.07-.24.66c-1.97,5.51-5.59,10.14-10.18,13.04-3.29,2.08-6.94,3.15-10.61,3.15ZM26.9,46.57c9.6,2.32,19.62-3.71,23.73-14.28-9.83-.75-21.18,3.92-23.73,14.28Z"/>
</svg>