<?xml version="1.0" encoding="utf-8"?>
<!-- Generator: Adobe Illustrator 28.2.0, SVG Export Plug-In . SVG Version: 6.00 Build 0)  -->
<svg version="1.1" id="Capa_1" xmlns="http://www.w3.org/2000/svg" xmlns:xlink="http://www.w3.org/1999/xlink" x="0px" y="0px"
	 viewBox="0 0 200 200" style="enable-background:new 0 0 200 200;" xml:space="preserve">
<style type="text/css">
	.st0{clip-path:url(#SVGID_00000023283485495740997960000014608297949778553008_);}
	.st1{fill:#FFFFFF;}
</style>
<g>
	<defs>
		<rect id="SVGID_1_" x="1" y="3" width="197.3" height="194.1"/>
	</defs>
	<clipPath id="SVGID_00000037685892289149191090000007865322984687360923_">
		<use xlink:href="#SVGID_1_"  style="overflow:visible;"/>
	</clipPath>
	
		<g id="Capa_1_00000037687805180927122850000011439493393074112428_" style="clip-path:url(#SVGID_00000037685892289149191090000007865322984687360923_);">
		<path id="Vector" class="st1" d="M107.3,125.7c10.3-0.1,24.1-5.6,35.7-16.5c5.2-4.9,4.9-12.5-0.7-17c-5.7-4.6-13.7-4.5-19.9,0.2
			c-7.5,5.7-16.1,7.9-25.4,6.5c-19.4-2.8-32.1-19.6-29.5-39.3c1.7-13,9-22.5,21.3-27.5c12.1-4.9,23.6-3.1,34.1,4.8
			c5.3,4,11.1,4.6,17.1,1.8c6.9-3.3,9.1-11.1,4.9-16.8c-1.1-1.5-2.4-2.8-3.8-3.9C121.9,1.5,94.7-2.2,72.3,10.9
			C48.9,24.6,38.9,45.7,41.6,72.4C44.8,102.6,71.1,125.7,107.3,125.7L107.3,125.7z"/>
		<path id="Vector_2" class="st1" d="M119.8,41.9c-4.2-3-8.6-5.8-13.8-6.4c-10.8-1.1-19.7,2.8-26.5,11.2c-9.3,11.4-8,28.1,2.5,38.3
			c6.3,6.1,13.7,9.2,22.6,8.3c5.7-0.6,10.7-3.1,15.3-6.4c2.3-1.6,4.7-3,7.5-3.4c10-1.6,18.1,1.7,24.4,9.8c0.7-0.4,0.9-1.2,1.2-1.8
			c5.1-10.5,6.7-21.6,6.1-33.1c-0.4-7.1-1.8-14-5.2-20.4c-1.1-2.1-2.4-2.2-3.9-0.4C142.6,47,129.5,48.8,119.8,41.9z"/>
		<path id="Vector_3" class="st1" d="M17.1,165.8c1.4-0.4,2.3-1.4,2.3-2.9c0-1.6-0.9-2.6-2.3-3c-0.8-0.3-1.7-0.3-2.5-0.3
			c-1.7,0-3.4-0.1-5.1,0c-1.7,0.1-1.7-0.9-1.7-2.1c0-1.2,0.3-1.8,1.7-1.7c2.1,0.1,4.2,0.1,6.3,0c2.4-0.1,3.8-1.2,3.8-2.9
			c0-1.7-1.4-2.8-3.8-2.9c-2.2,0-4.3,0-6.5,0c-2,0-1.3-1.5-1.4-2.6c-0.1-1-0.2-2.2,1.5-2.1c2.3,0.1,4.6,0.1,6.9,0
			c2.2,0,3.5-1.1,3.5-2.9c0-1.7-1.3-2.9-3.5-2.9c-3.8,0-7.5,0-11.3,0c-2.7,0-3.8,1.2-3.9,3.9c0,3.1,0,6.2,0,9.2c0,3.2,0,6.4,0,9.6
			c0,2.6,1.3,3.9,3.9,3.9c3.5,0,7,0,10.5,0C16,166.1,16.6,166,17.1,165.8L17.1,165.8z"/>
		<path id="Vector_4" class="st1" d="M69.8,147.5c2.2,1.4,4.4,1.2,5.6-0.5c1.2-1.7,0.6-3.4-1.7-5.1c-4.7-3.3-10.7-3.3-15.3,0
			c-4.7,3.4-6.6,9.5-4.7,15.1c1.8,5.3,6.8,9,12.9,9c2.8-0.1,5.8-1.2,8.3-3.5c0.9-0.9,1.4-1.9,1-3.2c-0.4-1.3-1.4-2-2.7-2.3
			c-1.3-0.2-2.3,0.2-3.3,0.9c-3.1,1.9-6.4,1.4-8.7-1.2c-2-2.4-1.9-5.9,0.2-8.3C63.5,146,66.7,145.6,69.8,147.5L69.8,147.5z"/>
		<path id="Vector_5" class="st1" d="M123.5,163.1c0-1.6-1.4-2.8-3.5-2.8c-1.8-0.1-3.6-0.1-5.3,0c-1.5,0.1-1.9-0.5-1.9-1.9
			c0.1-5.1,0-10.2,0-15.3c0-2.2-1.3-3.6-3.3-3.6c-2,0-3.3,1.3-3.3,3.6c0,3.2,0,6.4,0,9.6c0,3.2,0,6.4,0,9.6c0,2.5,1.1,3.7,3.5,3.8
			c3.4,0.1,6.9,0.1,10.3,0C122.1,166,123.6,164.7,123.5,163.1L123.5,163.1z"/>
		<path id="Vector_6" class="st1" d="M39.6,163.2c0-1.6-1.4-2.8-3.6-2.9c-1.8,0-3.6-0.1-5.3,0c-1.4,0.1-1.8-0.5-1.8-1.8
			c0.1-4.9,0-9.8,0-14.7c0-0.7,0.2-1.4-0.3-2.1c0-0.1,0-0.2-0.1-0.3c-0.8-1.7-2.2-2.2-3.9-1.7c-1.8,0.5-2.4,1.8-2.4,3.6
			c0,6.3,0,12.7,0,19c0,2.6,1.1,3.8,3.7,3.8c3.4,0.1,6.7,0.1,10.1,0C38.1,166,39.6,164.8,39.6,163.2L39.6,163.2z"/>
		<path id="Vector_7" class="st1" d="M126.7,162.3c0,2.5,1.1,3.7,3.5,3.7c3.4,0.1,6.9,0.1,10.3,0c2,0,3.4-1.2,3.4-2.8
			c0-1.7-1.3-2.9-3.5-3c-1.8,0-3.6-0.1-5.3,0c-1.5,0.1-1.9-0.5-1.9-1.9c0.1-5,0-10.1,0-15.1c0-2.5-1.2-3.7-3.3-3.7
			c-2.1,0-3.2,1.3-3.2,3.8c0,3.1,0,6.3,0,9.4C126.7,155.9,126.7,159.1,126.7,162.3L126.7,162.3z"/>
		<path id="Vector_8" class="st1" d="M30.6,193.2c-2.9,2.6-6.3,2.6-9.6,1.2c-3.1-1.4-3.6-4.3-3.6-7.5c-0.1-2.9,0.6-5.8,3.7-7.2
			c3.3-1.5,6.5-1.3,9.4,1.2c0.6,0.5,1.2,1.1,1.8,0.3c0.6-0.7-0.1-1.2-0.6-1.7c-0.4-0.4-0.8-0.7-1.3-0.9c-3.7-2-7.5-2-11.2,0
			c-3.4,1.8-4.1,5.1-4.2,8.6c0,0.9,0.1,1.8,0.3,2.7c0.5,3.3,2.3,5.7,5.6,6.7c3.9,1.1,7.6,0.9,10.8-1.8c0.5-0.4,1.1-1,0.4-1.7
			C31.6,192.3,31.1,192.7,30.6,193.2L30.6,193.2z"/>
		<path id="Vector_9" class="st1" d="M135.8,178.4c0.1-0.7-0.5-0.9-1-0.9c-4.4,0-8.8,0-13.2,0c-0.6,0-1.1,0.2-1.1,0.9
			c0.1,0.7,0.6,0.8,1.2,0.8c0.9,0,1.7,0,2.6,0c1.9,0,2.9,0.9,2.9,2.8c0,2,0,3.9,0,5.9h0c0,2.5,0,5,0,7.5c0,0.7,0.2,1.4,1.1,1.3
			c0.7,0,1-0.6,1-1.3c0-0.5,0-0.9,0-1.4c0-4.4,0-8.8,0-13.1c0-1.3,0.4-1.8,1.7-1.7c1.2,0.1,2.5,0,3.8,0
			C135.2,179.2,135.7,179,135.8,178.4L135.8,178.4z"/>
		<path id="Vector_10" class="st1" d="M181.1,190c-1.5-0.6-3-1-4.4-1.6c-0.8-0.3-1.3-0.9-1.2-1.8c0.1-0.9,0.9-1.3,1.7-1.4
			c1.5-0.2,2.9-0.1,4.2,0.8c0.5,0.4,1.2,0.9,1.7,0.2c0.6-0.9-0.3-1.3-0.9-1.7c-1.2-0.8-2.5-1.1-3.6-1c-3.1,0-4.8,1-5.1,2.9
			c-0.3,1.9,0.8,3.2,3.6,4.2c1.1,0.4,2.3,0.7,3.4,1.2c0.7,0.3,1.4,0.8,1.4,1.7c-0.1,1-0.8,1.5-1.7,1.7c-1.9,0.5-3.8,0.3-5.5-0.9
			c-0.6-0.4-1.2-0.9-1.7-0.1c-0.5,0.8,0.3,1.2,0.8,1.5c2.1,1.3,4.4,1.7,6.8,1.1c1.7-0.4,3.1-1.3,3.2-3.2
			C183.9,191.5,182.6,190.6,181.1,190L181.1,190z"/>
		<path id="Vector_11" class="st1" d="M53.9,183.6c-1,0-1,0.9-1,1.6c0,2.2,0,4.3,0,6.5c-0.1,2.6-1.3,3.6-4.1,3.6
			c-2.7,0-3.8-1.1-3.8-3.7c0-2.2,0-4.3,0-6.5c0-0.9,0-1.8-1.4-1.4c-0.4,0.3-0.6,0.7-0.6,1.2c0,2.6,0,5.3,0.1,7.9
			c0,0.9,0.3,1.8,1,2.5c1.8,1.9,4.1,1.9,6.4,1.6c3-0.4,4.3-1.8,4.4-4.8c0.1-2.3,0-4.6,0-6.9C54.9,184.4,54.9,183.5,53.9,183.6
			L53.9,183.6z"/>
		<path id="Vector_12" class="st1" d="M39.7,195.2c-1.5-0.3-1.5-1.4-1.5-2.6c0-2.3,0-4.7,0-7c0-2.5,0-5.1,0-7.6c0-0.7,0-1.5-0.9-1.5
			c-1,0-1.1,0.8-1.1,1.5c0,2.2,0,4.4,0,6.7c0,2.9-0.1,5.9,0,8.8c0.1,2.1,1.2,3.3,2.9,3.3c0.5,0,1-0.1,1.2-0.6
			C40.5,195.6,40.1,195.3,39.7,195.2L39.7,195.2z"/>
		<path id="Vector_13" class="st1" d="M168.4,183.6c-0.8,0-0.9,0.7-0.9,1.3c0,1.8,0,3.5,0,5.3c0,1.8,0,3.5,0,5.3
			c0,0.6,0.1,1.2,0.9,1.3c0.7,0,1-0.5,1-1.2c0-3.6,0-7.2,0-10.8C169.4,184.1,169.1,183.5,168.4,183.6z"/>
		<path id="Vector_14" class="st1" d="M163.2,186.6c-1-3-5.1-4.3-8.3-2.7c-0.7,0.4-1.2,1.1-2.1-0.1c-0.8-1-1.5,0-1.5,1
			c0,3.5,0,6.9,0,10.4c0,0.7,0.2,1.4,1,1.4c0.8,0,1-0.7,1-1.4c0-2.2,0-4.3,0-6.5c0.1-2.6,1.7-4,4.4-3.9c2.6,0,3.8,1.3,3.8,3.9
			c0,2,0,3.9,0,5.9c0,0.6-0.2,1.3,0.5,1.8c0.9,0.5,1.4,0,1.4-0.8C163.4,192.6,163.8,189.6,163.2,186.6L163.2,186.6z"/>
		<path id="Vector_15" class="st1" d="M168.4,178.6c-0.7,0-1.1,0.4-1.1,1.1c0,0.6,0.4,0.9,1,1c0.7,0,1.2-0.3,1.2-1
			C169.6,179,169.1,178.7,168.4,178.6z"/>
		<path id="Vector_16" class="st1" d="M185,139.4c-7.3,0-13.2,6-13.2,13.4c0,7.3,6,13.2,13.2,13.3c7.3,0,13.4-6.2,13.3-13.4
			C198.2,145.4,192.2,139.5,185,139.4z M184.9,159.2c-3.6-0.1-6.3-2.8-6.3-6.5c0-3.7,2.9-6.5,6.5-6.4c3.6,0.1,6.3,2.8,6.3,6.4
			C191.4,156.5,188.6,159.3,184.9,159.2L184.9,159.2z"/>
		<path id="Vector_17" class="st1" d="M103.1,152.8c0-7.3-5.8-13.3-13-13.4c-7.3-0.1-13.3,5.8-13.3,13.2c0,7.4,5.9,13.4,13.2,13.4
			C97.2,166.1,103.1,160.1,103.1,152.8L103.1,152.8z M83.5,152.6c0.1-3.6,2.9-6.3,6.5-6.3c3.7,0,6.4,2.9,6.3,6.6
			c-0.1,3.6-2.8,6.3-6.5,6.3C86.2,159.2,83.5,156.3,83.5,152.6L83.5,152.6z"/>
		<path id="Vector_18" class="st1" d="M162.1,142.2c-0.7-1.6-1.6-2.7-3.5-2.7c-1.9,0-2.9,1.1-3.7,2.7c-2.7,6.4-5.5,12.7-8.3,19.1
			c-0.8,2-0.4,3.5,1.3,4.3c1.8,0.9,4,0.3,4.9-1.6c0.5-0.9,0.8-1.9,1.3-2.9c0.2-0.5,0.4-1.1,1-1.1c2.3-0.1,4.7-0.3,6.9,0.1
			c1.4,0.2,1.4,2.2,2,3.4c0.3,0.6,0.6,1.2,1.1,1.6c1.2,1,2.5,1.2,3.9,0.5c1.2-0.5,1.9-1.4,2-2.9c-0.2-0.5-0.4-1.2-0.6-1.8
			C167.5,154.7,164.8,148.5,162.1,142.2L162.1,142.2z M160.4,155.3c-1.3,0.1-2.6,0.2-3.9-0.1c-0.4-0.1-0.4-0.5-0.2-0.8
			c0.7-1.5,1.3-3.1,2.2-5c0.9,2,1.6,3.5,2.2,5c0,0.1,0,0.1,0.1,0.2C160.9,155,160.8,155.3,160.4,155.3L160.4,155.3z"/>
		<path id="Vector_19" class="st1" d="M66.3,183.4c-1.9-0.2-3.6,0.3-5.5,1.5c0-2.6,0-4.8,0-7.1c0-0.6-0.1-1.3-0.8-1.3
			c-0.9-0.1-1.1,0.6-1.1,1.3c0,4.8,0,9.7,0.1,14.5c0,1.5,0.8,2.8,2.1,3.6c2.4,1.4,5,1.5,7.6,0.3c2.3-1.1,2.9-3.2,3-5.6
			c0.1-0.9,0-1.8-0.2-2.7C70.9,185.1,69.1,183.7,66.3,183.4L66.3,183.4z M64.5,195.3c-2.2-0.2-3.4-1.4-3.7-3.6
			c-0.1-0.5-0.1-1-0.1-1.6c0-3.5,1.4-5.2,4.3-5.2c3,0,4.6,1.8,4.6,5.3C69.7,193.8,67.9,195.6,64.5,195.3L64.5,195.3z"/>
		<path id="Vector_20" class="st1" d="M93.7,176.5c-1.2-0.1-1,0.9-1,1.7c0,2.1,0,4.3,0,6.8c-0.6-0.4-0.9-0.5-1.1-0.6
			c-4.7-2.7-9.4-0.2-9.8,5.1c-0.1,0.9,0,1.8,0.2,2.7c0.6,3.3,3.2,5.1,6.8,4.8c3.7-0.3,5.7-2.2,5.8-5.7c0.1-4.4,0-8.8,0-13.1
			C94.6,177.4,94.6,176.5,93.7,176.5L93.7,176.5z M88.3,195.3c-3,0-4.7-1.9-4.6-5.3c0-3.3,1.7-5.2,4.7-5.1c2.9,0,4.3,1.7,4.3,5
			C92.6,193.9,91.5,195.3,88.3,195.3L88.3,195.3z"/>
		<path id="Vector_21" class="st1" d="M108.3,184.3c-4.3-2.8-9.9-0.1-10.3,5c-0.6,6,4.4,9.4,10.2,7.1c0.8-0.3,2.2-0.6,1.8-1.7
			c-0.5-1.4-1.5-0.1-2.3,0.1c-0.4,0.1-0.7,0.3-1.1,0.4c-3,0.8-5.8-0.5-6.5-3c-0.3-1-0.1-1.5,1.1-1.5c1.3,0,2.6,0,4,0c0,0,0,0,0,0
			c1.3,0,2.6,0,4,0c0.9,0,1.5-0.4,1.5-1.4C110.7,187.1,110.1,185.4,108.3,184.3L108.3,184.3z M106.9,189c-0.9,0-1.8,0-2.8,0
			c-0.8,0-1.6,0-2.4,0c-2,0-2.2-0.5-1.2-2.2c1-1.6,2.5-2,4.2-2c1.5,0.1,2.7,0.5,3.4,1.9C109,188.4,108.6,189,106.9,189L106.9,189z"
			/>
		<path id="Vector_22" class="st1" d="M144.3,183.7c-5-1.6-9,1.2-9,6.4c0,5.5,4.3,8.3,9.8,6.4c0.9-0.3,2.5-0.7,2.1-1.9
			c-0.5-1.4-1.7,0-2.5,0.3c-3.1,1.2-6.3,0.1-7.2-2.4c-0.4-1.2-0.3-1.9,1.2-1.8c2.4,0.1,4.9,0,7.3,0c1.5,0,2-0.7,1.9-2.1
			C147.8,186.1,146.5,184.4,144.3,183.7L144.3,183.7z M144.4,189.1c-0.9-0.1-1.8,0-2.8,0c-0.9,0-1.7,0-2.6,0
			c-1.7-0.1-2.1-0.7-1.1-2.2c1-1.6,2.6-2.1,4.4-2c1.5,0.1,2.7,0.7,3.3,2.1C146.2,188.2,146.2,189.2,144.4,189.1L144.4,189.1z"/>
	</g>
</g>
</svg>
