<?xml version="1.0" encoding="utf-8"?>
<!-- Generator: Adobe Illustrator 28.2.0, SVG Export Plug-In . SVG Version: 6.00 Build 0)  -->
<svg version="1.1" id="Capa_1" xmlns="http://www.w3.org/2000/svg" xmlns:xlink="http://www.w3.org/1999/xlink" x="0px" y="0px"
	 viewBox="0 0 200 200" style="enable-background:new 0 0 200 200;" xml:space="preserve">
<style type="text/css">
	.st0{fill:#FBFFFC;}
</style>
<g>
	<g id="Capa_1_00000133531032991682965460000009649727275653591432_">
		<path id="Vector" class="st0" d="M151.1,92.9c-3.7,0.1-7.3,0.3-10.8,0.4c-1.4,0-2,0.4-2.3,1.8c-1.2,5.1,0.3,9.3,4.3,11.3
			c0.5,0.2,1.3,0.3,1.7,0c2.1-1.5,3.1-1.4,4.8,0.5c0.4,0.4,0.7,0.9,1.2,1.5c-1,0.4-1.8,0.8-2.6,1.2c-4.4,1.9-7.5,5-9.3,9.4
			c-0.9,2.2-1.9,2.8-4.3,1.9c-2.2-0.9-4.3-2.2-6.3-3.4c-2.1-1.3-2.1-1.4-3.8,0.3c-11.9,11.6-29,13-42.6,3.5
			c-1.5-1.1-3.2-2.1-4.6-3.2c-1.2-1-2.4-1-3.8-0.6c-2.9,0.9-5.9,1.7-9,2.6c-1.8-6.4-6.8-9-12.6-10.7c-1.4-0.4-1.8-1-1.5-2.4
			c0.3-1.2,0.6-2.4,1-3.5c0.5-1.3,1.4-1.3,2.4-0.4c0.5,0.4,1,0.9,1.2,1.5c0.8,1.7,1.8,1.5,3.1,0.7c4.4-2.6,6.1-6.5,6.1-11.3
			c0-1.1-0.6-1.1-1.4-1.1c-2.8,0.1-5.6,0.1-8.3,0.2c-0.9,0-1.9,0-3.2,0c4.6-7.8,3.2-15.4-0.1-23c0.2-0.1,0.4-0.2,0.6-0.4
			c1,0.4,2,0.6,3,1.1c1.2,0.5,2.3,1.2,3.5,1.7c2.1,1,3.4,0.3,3.8-2c0.4-2.3-0.3-4.3-1.5-6.2c-0.8-1.2-0.6-1.9,0.6-2.8
			c9.9-7.3,19.7-14.7,29.6-22.2c1.7-1.3,3.4-2.1,5.6-2c3.8,0.1,7.7-0.2,11.5-0.2c1,0,2.1,0.4,2.9,1c11,8.3,21.8,16.6,32.8,24.9
			c0.9,0.7,1,1.2,0.6,2.2c-0.7,1.6-1.3,3.2-1.8,4.8c-0.2,0.8-0.3,1.7-0.2,2.6c0.2,1.7,1.2,2.2,2.8,1.6c1.5-0.6,3-1.3,4.5-2
			c2.2-0.9,2.6-0.6,2.6,1.7c-0.1,4.6-0.3,9.2-0.4,13.9C150.7,89.4,151,91.1,151.1,92.9L151.1,92.9z M72.5,59.1
			c3.3,4.1,4.4,8.6,3.2,13.5c-0.7,2.8-1.8,5.5-2.8,8.1c-2.8,7.2-2.3,13.9,2.3,20.5c7.7,11.1,22.9,16.2,35.7,11.6
			c7.2-2.6,13.7-6.3,17.6-13.1c4.3-7.3,5-14.7,0.8-22.4c-1-1.8-1.5-4.2-1.3-6.2c0.4-3.5,1.3-7,2.3-10.4c0.4-1.5,0.6-2.6-0.7-3.8
			c-1-0.9-2-2-2.8-3.2c-1.7-2.4-3.5-3.4-6.9-2.8c-5.6,1.1-11.1-0.5-16.3-2.9c-0.8-0.3-2-0.5-2.6-0.2c-6,3.4-12.3,3.8-18.9,2.7
			c-0.6-0.1-1.5,0-1.9,0.4C77.6,53.7,75.1,56.4,72.5,59.1z"/>
		<path id="Vector_2" class="st0" d="M88.4,16.6c1.8,2.6,3.4,4.8,5,7.1c1,1.4,5.2,2.2,6.5,1.3c0.4-0.3,0.6-1,0.8-1.5
			c1.1-3.5,2.1-7.1,3.6-10.6c0.7,3,1.3,6,2,9c0.9,3.9,0.1,3.2,4.3,3.8c3,0.4,4.9-0.5,6.5-2.9c1.1-1.6,2.4-3,4-4.9v8.3
			c4.9,0.1,9.3-0.3,12.6-4.2c0.1,0.2,0.2,0.3,0.3,0.5c-1.4,1.9-2.7,3.7-4.1,5.6c-1.4,1.9-2.7,4-4.3,5.8c-0.7,0.7-2,1.2-3,1.2
			c-6.6,0.1-13.2,0-19.9-0.1c-5.8,0-11.7-0.1-17.6-0.1c-1.2,0-1.9-0.4-2.6-1.4c-2.2-3.6-4.4-7.1-6.6-10.6c-0.2-0.4-0.4-0.8-0.4-1.3
			c1,0.9,1.9,1.9,3,2.7c1,0.6,2.2,0.9,3.3,1.4c0.2,0.1,0.4,0,0.5,0c3.4,0,5.2-1.7,5.6-5C88.1,19.3,88.2,18.2,88.4,16.6L88.4,16.6z"
			/>
		<path id="Vector_3" class="st0" d="M55.7,43.3c7.1-2.5,14.1-5.1,21.8-4.6c1.7,0.1,3.4,0.6,4.3,2.7c-5,3-9.9,6-14.9,9
			c0,0.1,0.1,0.2,0.1,0.4c4.5-1.7,9-3.5,13.5-5.2c0.1,0.2,0.1,0.4,0.2,0.5c-1.9,0.8-3.8,1.5-5.6,2.4c-5.1,2.5-10.1,5.1-15.1,7.7
			c-1.6,0.8-3.3,1.4-4.8,0.2c-1.6-1.3-1.8-3.2-1.4-5.1c0.4-2.3,1.8-3.8,3.9-4.9c0.6-0.3,1-1,1.5-1.5c-0.6-0.3-1.2-0.7-1.8-0.9
			C56.9,43.6,56.3,43.5,55.7,43.3L55.7,43.3z"/>
		<path id="Vector_4" class="st0" d="M128.5,46.5c4.5,1.7,9,3.4,13.5,5.1c0.1-0.1,0.1-0.2,0.2-0.3c-2.2-1.3-4.3-2.6-6.5-3.9
			c-2.4-1.5-4.9-2.9-7.3-4.3c-1.4-0.8-1.4-1.7,0-2.4c1.1-0.5,2.3-0.8,3.5-1c4.9-0.6,9.5,1,14.1,2.1c2.4,0.6,4.7,1.3,7.1,2.3
			c-0.6,0.2-1.3,0.3-1.9,0.6c-0.5,0.3-1,0.7-1.5,1.1c0.5,0.4,0.9,1,1.5,1.3c2.7,1.3,4.2,3.5,4.1,6.6c-0.1,3.6-2.5,5.1-5.8,3.5
			c-5.2-2.5-10.4-5.1-15.6-7.6c-1.8-0.9-3.7-1.6-5.6-2.3C128.4,46.9,128.5,46.7,128.5,46.5L128.5,46.5z"/>
		<path id="Vector_5" class="st0" d="M31.9,136.9c3.9,8.5,7.6,16.7,11.4,25.1c-1.2,0-2.1,0-3.1,0c-0.3,0-0.7-0.3-0.9-0.6
			c-0.2-0.1-0.2-0.4-0.3-0.6c-0.8-4-3.3-4.8-7.2-4.8c-3.9,0-6.4,0.7-7.4,4.7c-0.4,1.6-0.7,1.5-4.2,1.2
			C24,153.7,27.8,145.5,31.9,136.9L31.9,136.9z M28,152.9h7.4c-1.2-2.8-2.3-5.3-3.6-8.3C30.5,147.6,29.3,150.2,28,152.9z"/>
		<path id="Vector_6" class="st0" d="M129,162h-3.4c0-2.4,0-4.7,0-7c0-1.1,0-2.3-0.4-3.3c-0.3-0.8-1.3-1.8-2-1.8
			c-0.9,0.1-2.1,0.8-2.5,1.6c-0.5,1-0.5,2.4-0.5,3.6c-0.1,2.2,0,4.4,0,6.8h-3.4c0-3.2,0-6.4,0-9.6c0-1.2-0.1-2.4,0-3.5
			c0.1-0.6,0.5-1.6,0.7-1.6c1-0.1,2.4-0.8,2.8,1c3.3-2.1,4.7-2,7.3,0.4c1.5-0.6,2.8-1.5,4.2-1.7c2.7-0.5,5,1,5.2,3.7
			c0.3,3.8,0.1,7.6,0.1,11.4h-3.1c0-2.9,0-5.7,0-8.5c0-2.6-0.7-3.7-2.3-3.7c-1.7-0.1-2.8,1.1-2.9,3.7C128.9,156.2,129,159,129,162
			L129,162z"/>
		<path id="Vector_7" class="st0" d="M37.4,170.2h3.3V196h-3.1c-0.1-0.4-0.2-0.8-0.3-1.2c-5.1,2.9-9.2,2.2-11.3-3.6
			c-1.2-3.3-0.5-6.6,2.3-9c2.9-2.4,6-2,9.1,0.5V170.2z M37.6,188.6c0-2.9-1.8-4.9-4.4-4.9c-2.5,0-4.3,2.1-4.3,4.9
			c0,2.8,1.8,4.8,4.3,4.9C35.8,193.5,37.6,191.5,37.6,188.6z"/>
		<path id="Vector_8" class="st0" d="M105.2,175.6c-2.9,0-5.5,0.1-8.1,0c-1.3,0-1.7,0.4-1.6,1.6c0.1,1.3,0,2.7,0,4.2h9.3v3.4
			c-2.4,0-4.8,0.1-7.2,0c-1.7-0.1-2.3,0.5-2.2,2.2c0.1,1.9,0,3.8,0,6c2.5,0,4.8,0,7.1,0c2.9,0,2.9,0.1,2.4,3.1H92.2v-23.7
			c4,0,8,0,12,0c0.3,0,0.8,0.7,0.9,1.1C105.3,174,105.2,174.7,105.2,175.6L105.2,175.6z"/>
		<path id="Vector_9" class="st0" d="M173.1,182.6c0.3-2.6,2.1-1.1,3.4-1.5v15c-1.2-0.4-2.9,1.1-3.4-1.4c-2,1.4-4.1,2.4-6.4,1.5
			c-1.4-0.6-2.8-1.5-3.8-2.7c-2.4-3-2-7.9,0.5-10.6C165.9,180.2,168.9,180.1,173.1,182.6L173.1,182.6z M173.4,188.5
			c0-2.9-1.8-4.9-4.5-4.8c-2.4,0.1-4.3,2.2-4.2,4.9c0.1,2.8,1.9,4.8,4.3,4.8C171.7,193.5,173.4,191.5,173.4,188.5z"/>
		<path id="Vector_10" class="st0" d="M136.6,182.6c0.1-0.5,0.2-1,0.3-1.4c2.1-0.2,3.2,0.7,3.2,2.7c0,4,0,7.9,0,12.1
			c-1.4-0.2-3.1,1-3.6-1.2c-4.4,2.4-7.6,2-9.9-1c-2.4-3.1-2.2-8.1,0.4-10.9C129.3,180.2,132.5,180.1,136.6,182.6L136.6,182.6z
			 M136.9,188.6c0-2.9-1.8-4.9-4.5-4.8c-2.4,0.1-4.3,2.2-4.2,4.9c0.1,2.8,1.9,4.8,4.3,4.8C135.1,193.5,136.9,191.5,136.9,188.6
			L136.9,188.6z"/>
		<path id="Vector_11" class="st0" d="M108.7,148.7c0.1-0.6,0.2-1,0.3-1.4c0.1,0,0.2-0.1,0.4-0.1c1.9-0.1,2.9,0.8,2.9,2.7
			c0,3.4,0,6.8,0,10.2c0,0.6,0,1.3,0,1.9h-3.2c-0.1-0.4-0.2-0.8-0.4-1.2c-5.2,3-9.3,2.1-11.3-3.7c-1.1-3.3-0.4-6.6,2.5-8.9
			C102.8,145.9,105.8,146.4,108.7,148.7L108.7,148.7z M109.1,154.7c0-2.9-1.7-4.9-4.3-4.9c-2.5,0-4.3,2.1-4.3,4.8
			c0,2.8,1.8,4.9,4.2,4.9C107.2,159.5,109,157.6,109.1,154.7L109.1,154.7z"/>
		<path id="Vector_12" class="st0" d="M155.6,155.4H145c-0.1,2,0.8,3.3,2.5,3.8c2.4,0.8,4.2-0.3,5.4-2.6c1,0.5,1.9,1,2.7,1.5
			c-1.6,3.5-5.1,5.1-8.9,4.1c-3.6-0.9-5.7-4.1-5.4-8c0.4-5.5,4.3-8.5,9.3-7.2C154.1,147.9,155.9,150.9,155.6,155.4L155.6,155.4z
			 M145.3,152.5h6.7c-0.6-2-1.6-2.8-3.4-2.8C146.9,149.8,145.8,150.6,145.3,152.5z"/>
		<path id="Vector_13" class="st0" d="M58.8,189.4H48.4c-0.2,1.9,0.6,3.1,2.1,3.7c2.6,1.1,4.4-0.1,5.7-2.5c1,0.6,1.9,1,2.7,1.5
			c-1.7,3.5-5.1,5.1-8.9,4.1c-3.6-0.9-5.7-4.1-5.4-8.1c0.4-5.4,4.2-8.4,9.2-7.2C57.3,181.8,59.3,184.9,58.8,189.4L58.8,189.4z
			 M55.3,186.6c-0.6-2.1-1.7-3-3.7-2.8c-1.7,0.1-2.8,1.1-3,2.8H55.3z"/>
		<path id="Vector_14" class="st0" d="M147.9,182.2c0.8-0.5,1.5-0.9,2.2-1.2c3.6-1.3,6.9,0.9,7.1,4.9c0.1,3.3,0,6.6,0,10h-3.4
			c0-1.6,0-3.2,0-4.8c0-1.3,0-2.7,0-4c-0.1-2.3-0.8-3.2-2.6-3.3c-2-0.1-3.1,0.7-3.4,3c-0.2,1.6-0.2,3.2-0.2,4.7c0,1.5,0,2.9,0,4.5
			h-3.4c0-3.4,0-6.8,0-10.2c0-1-0.1-2,0-3c0.1-0.6,0.5-1.6,0.8-1.6C146.1,181.1,147.5,180.4,147.9,182.2z"/>
		<path id="Vector_15" class="st0" d="M159.7,147.1c1.4,0.3,3-0.9,3.5,0.9c1.4-0.4,2.7-1.1,4-1.3c3.1-0.3,5.2,1.7,5.3,5
			c0.1,3.3,0,6.7,0,10.1h-3.4c0-2.4,0-4.9,0-7.3c0-0.8,0-1.5-0.1-2.3c-0.1-1.5-0.8-2.4-2.4-2.6c-1.8-0.2-3.1,0.5-3.3,2.1
			c-0.3,2.2-0.3,4.5-0.4,6.8c0,1,0,2.1,0,3.3h-3.3c0-0.6-0.1-1.1-0.1-1.6C159.7,156,159.7,151.7,159.7,147.1L159.7,147.1z"/>
		<path id="Vector_16" class="st0" d="M83.9,162h-3.3c0-1.6,0-3.2,0-4.9c0-1.5,0-2.9,0-4.4c-0.1-2-0.8-2.8-2.5-3
			c-1.9-0.1-3,0.6-3.3,2.6c-0.2,1.3-0.2,2.7-0.3,4c0,1.8,0,3.6,0,5.6h-3.4c0-3.1,0-6.2,0-9.3c0-1.3-0.1-2.6,0-3.9
			c0-0.6,0.5-1.6,0.7-1.6c1,0,2.4-0.7,2.7,0.5c1.8-0.3,3.7-0.9,5.4-0.8c2.4,0.2,3.7,1.7,3.9,4.3C84.1,154.8,83.9,158.3,83.9,162z"/>
		<path id="Vector_17" class="st0" d="M57.1,147.2c0,3,0,5.8,0,8.7c0,1.5,0.4,3,2.2,3.4c2.2,0.5,3.7-0.6,3.9-3.1
			c0.1-2.3,0-4.7,0.1-7c0-0.6,0-1.3,0-1.9c0.3-0.1,0.5-0.2,0.6-0.2c2.7-0.1,2.8-0.1,2.7,2.5c0,2.6,0,5.3-0.2,7.9
			c-0.3,3.1-2.8,4.9-6.3,4.9c-3.4,0-5.9-2-6.1-5.1c-0.2-3.3,0-6.7,0-10.1H57.1L57.1,147.2z"/>
		<path id="Vector_18" class="st0" d="M112.7,196h-3.1v-25.8h3.1V196z"/>
		<path id="Vector_19" class="st0" d="M76.2,196h-3.1v-25.8h3.1V196z"/>
		<path id="Vector_20" class="st0" d="M49.1,170.2H46v-22.9h3.1V170.2z"/>
		<path id="Vector_21" class="st0" d="M91.9,141.8v5.2c1,0.1,1.8,0.2,2.7,0.3v2.7c-0.1,0.1-0.2,0.2-0.3,0.2
			c-1.6,0.2-2.4,1.1-2.4,2.6c0,3,0,6.1,0,9.2h-3.3c0-1.2,0-2.5,0-3.7c0-2.1,0-4.1,0-6.2c0-0.8,0.3-1.7-1.1-2.1
			c-0.2-0.1-0.2-2.6,0-2.7c1.3-0.3,1-1.2,1.1-2.1c0-1,0-2,0.1-3c0-0.1,0.1-0.2,0.2-0.5L91.9,141.8L91.9,141.8z"/>
		<path id="Vector_22" class="st0" d="M180.6,162h-3.3c0-2.5,0-4.9,0-7.3c0-1.1,0.1-2.1,0-3.2c-0.1-0.5-0.5-0.9-0.8-1.3
			c-0.3-0.5-0.7-1-0.7-1.5c0-0.5,0.4-1.1,0.7-1.6c0.3-0.5,0.8-0.9,0.8-1.4c0.1-1.3,0-2.5,0-3.9h3.2v5.2c1,0.1,1.8,0.1,2.7,0.2v2.7
			c-1.8,0.4-2.6,1.5-2.6,3.4C180.6,156.2,180.6,159,180.6,162L180.6,162z"/>
		<path id="Vector_23" class="st0" d="M120.6,196h-3.2c0-2.1,0-4.2,0-6.3c0-2.2,0.1-4.3,0-6.5c-0.1-1.7,0.4-2.4,2.1-2.1
			c0.3,0.1,0.7,0.1,1.2,0.1L120.6,196L120.6,196z"/>
		<path id="Vector_24" class="st0" d="M107.5,5.5c1,0.2,1.9,0.3,2.7,0.5c1.5,0.4,1.7,0.9,0.7,2c-1.4,1.6-2.3,1.7-4.1,0.6
			c-0.5-0.3-1-0.6-1.5-0.9c-1.2,2.5-2.6,3-5.1,1.8c-1.1-0.6-1.2-1.4-0.3-2c1.1-0.8,2.4-1.3,3.8-2.1c0.5-2.5,0.8-2.7,3-2.3
			C108.4,3.3,108.1,4.3,107.5,5.5L107.5,5.5z"/>
		<path id="Vector_25" class="st0" d="M84,171.4c1,0.4,1.9,0.7,3,1.1c-1.5,2.9-2.9,5.8-4.4,8.7c-0.8-0.3-1.4-0.6-2.2-0.9
			C81.7,177.2,82.8,174.3,84,171.4z"/>
		<path id="Vector_26" class="st0" d="M86.8,12.1c0.2-0.9-0.2-2.1,1.5-2.1c1.4,0,1.7,0.8,1.4,1.9c1,0.4,1.9,0.6,2.8,0.9
			c-0.8,2.4-1.4,2.5-4.5,1c-0.5,1.5-1.6,2.1-3.1,1.4c-0.5-0.2-0.8-0.7-1.2-1.1l2.7-2.2C86.5,12,86.6,12.1,86.8,12.1z"/>
		<path id="Vector_27" class="st0" d="M121.3,11.5c0.3-0.6,0.6-1.6,2-0.8c1,0.6,1.2,1.2,0.3,2.1c0.7,0.6,1.4,1.1,2.1,1.7
			c-1.7,1.8-2.2,1.7-4.1-0.6c-2.1,1.2-2.9,1-4.3-1.5C118.5,12,119.7,11.8,121.3,11.5L121.3,11.5z"/>
		<path id="Vector_28" class="st0" d="M121.1,174.8c-0.1,1.3-0.8,2-2.1,2.1c-1.2,0.1-2.2-1.1-2.2-2.3c0.1-1.3,1-2.1,2.2-2
			C120.3,172.7,121.1,173.5,121.1,174.8L121.1,174.8z"/>
		<path id="Vector_29" class="st0" d="M49.7,140.9c-0.1,1.3-0.9,2-2.1,2.1c-1.2,0.1-2.2-1.1-2.1-2.3c0.1-1.3,1-2,2.2-2
			C48.9,138.7,49.7,139.5,49.7,140.9L49.7,140.9z"/>
		<path id="Vector_30" class="st0" d="M135,19.7c0.1-1-0.2-2.2,0.2-3c0.8-1.4,2.4-1.5,4.3-1.3c-1.4,1.6-2.6,3-3.9,4.3
			C135.4,19.7,135.2,19.7,135,19.7L135,19.7z"/>
		<path id="Vector_31" class="st0" d="M71.1,15.2c1.3-0.8,2.4-0.9,3.4-0.1c1.2,1,1.2,2.4,0.9,4.1C73.8,17.7,72.5,16.5,71.1,15.2z"/>
		<path id="Vector_32" class="st0" d="M120.5,102.9v-10c-1.6-0.5-2.4-0.2-2.3,1.5c0.1,0.9,0,1.7,0,2.7c-0.5,0.1-0.9,0.2-1.2,0.2
			c-2.6,0-2.8-0.6-2.8,3c0,1.3,0,2.7,0,4c0,3.8-0.7,4.7-4.8,5.7V97.6c-2,0-3.8-0.1-5.5,0.1c-0.3,0-0.8,0.9-0.8,1.4
			c-0.1,3.5,0,6.9,0,10.4c0,0.6-0.4,1.8-0.7,1.8c-1.2,0.2-2.5,0.1-3.8,0c-0.1,0-0.3-0.9-0.3-1.4c0-3.1,0-6.2,0-9.3
			c0-1.9-0.9-3.2-2.6-3.7h4c0-2.8-0.1-5.5,0-8c0.2-2.3-1-3.8-2.6-5c-3.2-2.4-7.6-1-8.2,3c-0.5,3-0.2,6.2-0.2,9.3
			c0,0.3,0.6,0.8,1,0.8c0.7,0.1,1.5,0,2.4,0v13c-3.5-0.5-5-2.2-5-5.5c0-1.9-0.1-3.8,0-5.6c0-1.1-0.3-1.7-1.5-1.5c-0.2,0-0.4,0-0.5,0
			c-2.4,0-3.8,1.2-4.1,3.7c-3.2-3-3.6-6.9-4.4-10.9c1.1,0,2.1-0.1,3.1,0c1.5,0.2,2.1-0.3,2.1-1.9c0-5.3,0.1-10.6,0.2-15.8
			c0-1.1,0.3-1.8,1.4-2.3c3.5-1.6,6.8-3.5,10.3-5c0.9-0.4,2.3-0.2,3.3,0.2c3,1.2,6,2.7,9.3,4.3c0-3.1,0-5.9,0-8.7
			c0-3,1.5-4.6,4.6-4.6c2,0,4,0,6-0.1c1.5-0.1,1.9,0.5,1.9,1.9c0,10.3,0.1,20.5,0,30.8c0,1.7,0.6,2.2,2.1,2c1.2-0.1,2.4,0,3.5-0.1
			c1.1-0.1,1.4,0.4,1.5,1.5c0.1,3-1.2,5.6-2.8,8c-0.7,1-1.4,1.9-2.2,2.9C120.8,103,120.7,102.9,120.5,102.9L120.5,102.9z
			 M116.3,94.5V84c-1,0-2,0.1-2.8-0.1c-0.2,0-0.3-1.6-0.2-1.6c0.9-0.3,1.9-0.4,2.9-0.5V77c-1-0.1-1.8-0.2-2.5-0.4
			c-0.2-0.1-0.2-1.3-0.1-1.4c0.8-0.3,1.7-0.4,2.5-0.5v-3.3c-2.2,0-4.2,0.1-6.2,0c-1.3-0.1-1.8,0.4-1.8,1.7
			c-0.1,6.6-0.3,13.2-0.5,19.9c-0.1,1.7,0.7,1.8,2.2,1.4c0-0.6-0.1-1.2,0-1.8c0.4-1.5,0.6-3,1.3-4.3c1-1.6,1.9-1.4,2.5,0.4
			c0.4,1.4,0.6,3,0.8,4.5C114.6,94.3,115,94.8,116.3,94.5L116.3,94.5z M94.7,69.4c-2.4,0-4.1,1.7-4.1,4.1c0,2.2,1.8,4,4.1,4
			c2.4,0,4.2-1.8,4.2-4.1C98.9,71.1,97.1,69.4,94.7,69.4z M114,68.3v-7.2h-2.1c0,1.9,0.1,3.7,0,5.5C111.8,68.1,112.5,68.5,114,68.3z
			 M111.2,68c0-1.4-0.1-2.9,0-4.3c0.1-1.6-0.6-2.2-2.4-2c0,1.6,0.1,3.1,0,4.7C108.7,68,109.3,68.6,111.2,68L111.2,68z M114.8,64.5
			h0.2c0,1.2-0.1,2.3,0,3.5c0,0.3,0.5,0.6,0.7,1c0.2-0.3,0.6-0.7,0.7-1c0.1-2.2,0.3-4.3,0.3-6.5c0-0.4-0.6-0.7-0.9-1.1
			c-0.3,0.4-0.9,0.7-0.9,1.2C114.7,62.5,114.8,63.5,114.8,64.5z"/>
	</g>
</g>
</svg>
