<?xml version="1.0" encoding="utf-8"?>
<!-- Generator: Adobe Illustrator 28.2.0, SVG Export Plug-In . SVG Version: 6.00 Build 0)  -->
<svg version="1.1" id="Capa_1" xmlns="http://www.w3.org/2000/svg" xmlns:xlink="http://www.w3.org/1999/xlink" x="0px" y="0px"
	 viewBox="0 0 30 30" style="enable-background:new 0 0 30 30;" xml:space="preserve">
<style type="text/css">
	.st0{fill:#0D403B;}
	.st1{fill:#FBFFFC;}
</style>
<circle class="st0" cx="15" cy="15" r="15"/>
<g>
	<g>
		<path class="st1" d="M21.5,18c-1.6,0-2.9,1.1-3.3,2.5l-3.7-0.7c-0.1,0-0.2,0-0.3,0L11,22c0,0,0,0,0,0c-0.1,0-0.1,0-0.2,0
			c0,0,0,0,0-0.1c0,0,0,0,0,0l-1.4-7.2c0-0.1-0.1-0.3-0.3-0.3l-2-0.3L7,14c0.1-0.5-0.3-0.9-0.8-1l-2.2-0.3c-0.2,0-0.5,0-0.7,0.2
			c-0.2,0.1-0.3,0.4-0.3,0.6L3,14c-0.1,0.5,0.3,0.9,0.8,1l2.2,0.3c0,0,0.1,0,0.1,0c0.2,0,0.4-0.1,0.5-0.2c0.1-0.1,0.2-0.2,0.3-0.4
			l1.8,0.3l1.4,7c0,0.1,0.1,0.3,0.2,0.4c0.2,0.2,0.4,0.3,0.7,0.3c0.2,0,0.3-0.1,0.5-0.2c0,0,0,0,0,0l3.1-2l3.6,0.7
			c0,0.1,0,0.2,0,0.2c0,1.9,1.6,3.5,3.5,3.5c1.9,0,3.5-1.6,3.5-3.5C25,19.6,23.5,18,21.5,18L21.5,18z M6.3,13.9l-0.1,0.6
			c0,0.1,0,0.1-0.1,0.1c0,0-0.1,0-0.1,0l-2.2-0.3c-0.1,0-0.2-0.1-0.1-0.2l0.1-0.6c0-0.1,0-0.1,0.1-0.1c0,0,0.1,0,0.1,0c0,0,0,0,0,0
			l2.2,0.3C6.3,13.7,6.3,13.8,6.3,13.9L6.3,13.9z M21.5,24.3c-1.5,0-2.7-1.2-2.7-2.8c0,0,0-0.1,0-0.1l2.6,0.5c0.2,0,0.4-0.1,0.4-0.3
			c0-0.2-0.1-0.4-0.3-0.4l-2.6-0.5c0.3-1.1,1.4-2,2.6-2c1.5,0,2.7,1.2,2.7,2.8C24.3,23,23.1,24.3,21.5,24.3L21.5,24.3z"/>
		<path class="st1" d="M10.9,17.3c0.1,0.4,0.4,0.7,0.8,0.8l6.1,0.9c0,0,0.1,0,0.1,0c0.4,0,0.5-0.3,0.6-0.5c0-0.1,0.1-0.1,0.1-0.1
			l5.1-7c0.2-0.2,0.2-0.5,0.1-0.7c-0.1-0.2-0.3-0.3-0.5-0.3h-0.8c0-0.1,0-0.1-0.1-0.2l-4.8-4.9C17.3,5.1,17.1,5,16.8,5
			c-0.3,0-0.5,0.1-0.7,0.3l-4.8,4.9c-0.1,0.1-0.1,0.1-0.1,0.2h-0.4c-0.3,0-0.5,0.1-0.7,0.3c-0.1,0.2-0.2,0.4-0.2,0.6L10.9,17.3
			L10.9,17.3z M16.6,5.8c0.1-0.1,0.1-0.1,0.2-0.1c0.1,0,0.1,0,0.2,0.1l4.5,4.6h-9.5L16.6,5.8z M10.8,11.1H23L18,18
			c-0.1,0.1-0.1,0.2-0.1,0.2c0,0,0,0.1-0.1,0.1l-6.1-0.9c-0.1,0-0.2-0.1-0.2-0.2l-0.9-6C10.6,11.2,10.7,11.1,10.8,11.1L10.8,11.1z"
			/>
	</g>
</g>
</svg>
