<?xml version="1.0" encoding="utf-8"?>
<!-- Generator: Adobe Illustrator 28.2.0, SVG Export Plug-In . SVG Version: 6.00 Build 0)  -->
<svg version="1.1" id="Capa_1" xmlns="http://www.w3.org/2000/svg" xmlns:xlink="http://www.w3.org/1999/xlink" x="0px" y="0px"
	 viewBox="0 0 30 30" style="enable-background:new 0 0 30 30;" xml:space="preserve">
<style type="text/css">
	.st0{fill:#0D403B;}
	.st1{fill:#FBFFFC;}
</style>
<circle class="st0" cx="15" cy="15" r="15"/>
<g>
	<g>
		<path class="st1" d="M25.6,11.8L25.6,11.8c-0.2-0.2-0.4-0.3-0.6-0.3l0.2-0.3c0.4-0.5,0.3-1.2-0.1-1.6L25,9.5
			c-0.1-0.1-0.3-0.2-0.5-0.2L24.7,9c0.4-0.5,0.3-1.2-0.1-1.5l-0.1-0.1c-0.2-0.2-0.5-0.3-0.8-0.3c-0.3,0-0.6,0.2-0.8,0.4l-0.3,0.3
			c-0.1-0.2-0.2-0.4-0.3-0.5l-0.1-0.1c-0.5-0.4-1.2-0.4-1.7,0.1L18,10.2c-0.8,0.8-1.8,1.5-2.9,2.4l0-3c0-0.6-0.5-1.1-1.2-1.1h-0.1
			c-0.2,0-0.4,0-0.5,0.1V8.2c0-0.6-0.5-1.1-1.2-1.1h-0.1c-0.6,0-1.2,0.5-1.2,1.1v0.2c-0.2-0.1-0.3-0.1-0.5-0.1H10
			c-0.6,0-1.2,0.5-1.2,1.1v0.3C8.7,9.7,8.5,9.7,8.3,9.7H8.2C7.5,9.7,7,10.2,7,10.8v13.9c0,0.1,0,0.2,0.1,0.2C7.2,25,7.2,25,7.3,25
			c0,0,0,0,0,0l0.2,0c2.7-0.1,7.7-0.3,9.8,0c0.1,0,0.2,0,0.3-0.1c0.1-0.1,0.1-0.2,0.1-0.3c-0.1-0.5-0.3-1.1-0.4-1.6l5.9-6.7l2.6-2.9
			C26.1,12.9,26.1,12.2,25.6,11.8L25.6,11.8z M7.6,24.4V10.8c0-0.3,0.2-0.5,0.5-0.5h0.1c0.3,0,0.5,0.2,0.5,0.5v0.1c0,0,0,0,0,0v2.3
			c0,0.2,0.1,0.3,0.3,0.3c0.2,0,0.3-0.1,0.3-0.3v-2.4c0,0,0,0,0-0.1V9.5C9.5,9.2,9.7,9,10,9h0.1c0.3,0,0.5,0.2,0.5,0.4v0.1
			c0,0,0,0,0,0.1v3.7c0,0.2,0.1,0.3,0.3,0.3s0.3-0.1,0.3-0.3V9.5c0,0,0-0.1,0-0.1V8.2c0-0.3,0.2-0.5,0.5-0.5H12
			c0.3,0,0.5,0.2,0.5,0.5v1.3c0,0,0,0,0,0.1c0,0,0,0,0,0v4.1c0,0.2,0.1,0.3,0.3,0.3c0.2,0,0.3-0.1,0.3-0.3V9.5
			c0-0.3,0.3-0.5,0.5-0.5h0.1c0.3,0,0.5,0.2,0.5,0.5l0.1,3.7c0,0,0,0,0,0c0.3,2.6,1,5.1,1.6,7.6c0.3,1.1,0.6,2.2,0.9,3.3
			C14.7,24.1,10.2,24.3,7.6,24.4L7.6,24.4z M25.2,13l-2.6,2.9L17,22.2c-0.1-0.5-0.3-0.9-0.4-1.4c-0.4-1.3-0.7-2.6-1-3.9l3.9-0.9
			c0.7-0.2,1.9-0.5,1.8-1.6l0-0.1c0-0.5-0.6-0.9-1.2-0.9c0,0,0,0,0,0l-3.5,0.1c-0.2,0-0.3,0.2-0.3,0.3c0,0.2,0.2,0.3,0.3,0.3
			l3.5-0.1c0.3,0,0.5,0.2,0.6,0.4l0,0.1c0,0.4-0.3,0.7-1.3,0.9l-3.9,0.9c-0.2-1-0.4-2-0.5-3c0.1,0,0.1,0,0.1-0.1
			c1.3-0.9,2.3-1.8,3.2-2.6c0,0,0,0,0,0L21,7.8c0.2-0.2,0.5-0.2,0.7-0.1l0.1,0.1C22,8,22,8.5,21.8,8.7l-2.4,2.8
			c-0.1,0.1-0.1,0.3,0,0.4c0.1,0.1,0.1,0.1,0.2,0.1c0.1,0,0.2,0,0.2-0.1l3.5-3.9c0.1-0.1,0.2-0.2,0.3-0.2c0.1,0,0.3,0,0.4,0.1
			L24.1,8c0.2,0.2,0.2,0.5,0,0.7l-0.8,1l-2.4,2.8c-0.1,0.1-0.1,0.3,0,0.4c0.1,0.1,0.1,0.1,0.2,0.1c0.1,0,0.2,0,0.2-0.1l2.5-2.8
			c0.1-0.1,0.2-0.2,0.3-0.2c0.1,0,0.3,0,0.4,0.1l0.1,0.1c0.2,0.2,0.2,0.5,0,0.7l-0.9,1.1l-1.6,1.8c-0.1,0.1-0.1,0.3,0,0.4
			c0.1,0.1,0.3,0.1,0.5,0l1.6-1.8c0.1-0.1,0.2-0.2,0.4-0.2c0.1,0,0.3,0,0.4,0.1l0.1,0.1C25.4,12.4,25.4,12.8,25.2,13L25.2,13z"/>
	</g>
</g>
</svg>
