<svg width="97" height="98" viewBox="0 0 97 98" fill="none" xmlns="http://www.w3.org/2000/svg">
<g clip-path="url(#clip0_27_66)">
<path d="M0 67.8847C0 69.9201 1.07305 71.6856 2.86791 72.6248L36.5803 93.8355C41.3067 96.8074 46.9817 98 51.3845 98C53.8763 98 55.9588 97.6172 57.2282 96.9589C61.418 95.8764 64.7616 94.8161 67.718 93.8768C75.2515 91.4889 79.7981 90.0456 88.8194 91.1997C89.7265 91.3154 90.559 90.6764 90.6751 89.7702C90.7913 88.8641 90.1497 88.0378 89.2398 87.9221C79.4883 86.6772 74.4052 88.2884 66.7086 90.7287C63.7467 91.6679 60.3892 92.7338 56.1939 93.8107C56.0417 93.8493 55.8952 93.9099 55.7569 93.9925C53.7601 95.1796 45.1149 95.2925 38.3503 91.0427L4.5798 69.7934C4.53555 69.7659 4.4913 69.7411 4.44429 69.7163C3.42932 69.204 3.32146 68.262 3.3187 67.8792C3.3187 67.1824 3.66163 66.2624 4.62958 65.7722C5.45649 65.3535 7.87361 64.7338 12.4506 68.0472C12.5364 68.1078 12.6249 68.1629 12.7217 68.207L30.8141 76.6709C31.0492 76.781 31.2953 76.8279 31.5387 76.8251C32.1831 77.5632 33.104 78.2243 34.3734 78.72C39.4206 81.0144 43.9562 82.1243 48.3783 82.1243C49.5509 82.1243 50.7152 82.0472 51.8795 81.893C57.0982 81.1989 61.996 79.0974 68.2075 75.93C69.0234 75.5141 69.347 74.5198 68.9294 73.7045C68.5118 72.892 67.5134 72.5697 66.6975 72.9856C54.4101 79.2489 47.3882 81.0116 35.7092 75.6931C35.6788 75.6793 35.6456 75.6656 35.6152 75.6545C34.7827 75.335 33.4193 74.6107 33.6184 73.3354C33.7401 72.5587 34.4121 71.8922 35.1174 71.8509C37.9051 71.6856 40.1341 71.6443 42.1004 71.6085C49.786 71.4653 52.6622 71.4129 62.3583 64.2573L70.7629 58.0574C71.7585 57.3221 75.5363 56.7326 79.209 58.2199L94.7212 64.4997C95.5702 64.844 96.5382 64.4364 96.8839 63.5908C97.2296 62.7452 96.8202 61.7812 95.9712 61.4369L80.4591 55.1572C75.8765 53.3008 70.9261 53.8241 68.7855 55.4023L65.6024 57.7517C64.4353 52.9923 59.8361 49.7175 54.8028 50.2931C53.6965 50.4198 52.6456 50.72 51.6611 51.1855C48.6825 48.5139 44.1663 47.2111 40.3443 47.0183C39.7884 44.6744 39.0638 41.9339 38.2618 39.7525C39.0196 39.1824 39.7165 38.5158 40.0207 38.2156C41.3012 36.9487 43.0656 34.8471 44.1885 32.0378C45.9225 27.7053 46.4479 20.8279 39.1109 12.6559C35.5626 8.70627 30.6343 7.69545 25.4185 6.62404C20.1556 5.54436 14.7129 4.42888 9.43893 0.352545C8.86646 -0.0881399 8.0755 -0.110174 7.4809 0.297459C6.8863 0.705092 6.62357 1.4515 6.83652 2.14007C8.72818 8.31792 8.919 13.4216 9.07387 17.5227C9.16237 19.8363 9.23704 21.8359 9.57444 23.6868C11.4384 33.9437 16.1621 38.7252 19.796 40.9286C23.9914 43.4735 29.1879 44.0795 34.0498 42.5949C34.7412 42.3828 35.192 41.7659 35.2224 41.0856C35.8115 42.7354 36.4476 44.9664 37.0754 47.5967C33.9752 48.7122 29.4092 50.4942 27.4733 54.2428C26.9312 54.207 26.1596 54.2648 24.7077 54.4301C21.92 54.7496 17.2213 57.5727 14.9397 61.1147C14.1653 62.3156 13.6924 63.544 13.5182 64.7669C8.18336 61.2386 4.74297 62.0153 3.12787 62.8361C1.19473 63.8056 0 65.7446 0 67.8847ZM36.962 36.53C33.4193 28.1515 28.1204 20.2302 21.1844 12.9644C20.5538 12.3034 19.5029 12.2758 18.8391 12.9065C18.1754 13.5345 18.1477 14.5812 18.7811 15.2422C25.9467 22.7503 31.287 30.9636 34.6527 39.6534C34.6555 39.6616 34.661 39.6671 34.6638 39.6726C34.6693 39.6864 34.6749 39.7029 34.6804 39.7195C34.6998 39.7608 34.7163 39.8048 34.7357 39.8462C34.426 39.5349 34.0028 39.3559 33.5576 39.3559C33.3972 39.3559 33.2312 39.3807 33.0708 39.4303C29.116 40.6394 24.9041 40.1546 21.519 38.0999C17.1411 35.4448 14.1377 30.2558 12.8378 23.0919C12.5419 21.4696 12.4728 19.5802 12.3898 17.3905C12.2626 14.0578 12.1132 10.0917 11.1093 5.40114C15.8025 8.0177 20.5013 8.9817 24.7492 9.85481C29.6166 10.8546 33.8203 11.7167 36.6384 14.8511C40.8781 19.5719 42.601 24.1881 41.7658 28.5756C41.0468 32.349 38.566 35.1253 36.9675 36.5272L36.962 36.53ZM30.3384 72.7983L16.812 66.4718C16.6156 65.3398 16.9198 64.1416 17.7218 62.8967C19.5416 60.0763 23.3526 57.906 25.0783 57.7104C26.6436 57.5314 27.111 57.5204 27.2465 57.5369C27.2631 57.5424 27.2797 57.5479 27.2991 57.5562C27.5231 57.636 27.7775 57.7187 28.2034 57.7903C29.0331 57.928 29.8379 57.4267 30.0702 56.6197C31.0492 53.254 35.6318 51.6179 38.6656 50.5355C38.8896 50.4556 39.1026 50.3785 39.31 50.3041C42.9716 50.2904 47.7837 51.6455 50.1123 54.3254C50.6572 54.9534 51.5864 55.0801 52.2806 54.6229C53.1517 54.05 54.128 53.6974 55.1789 53.579C58.8046 53.1631 62.1039 55.7466 62.5243 59.3354C62.5381 59.4566 62.5492 59.5751 62.5575 59.6935C62.563 59.7871 62.5768 59.878 62.5989 59.9689L60.3809 61.605C51.5366 68.1298 49.3352 68.1712 42.0368 68.3061C40.0401 68.3419 37.7751 68.386 34.9182 68.554C32.6753 68.6862 30.7118 70.5095 30.3412 72.8011L30.3384 72.7983Z" fill="#0D403B"/>
</g>
<defs>
<clipPath id="clip0_27_66">
<rect width="97" height="98" fill="white"/>
</clipPath>
</defs>
</svg>
