<?xml version="1.0" encoding="UTF-8"?>
<svg id="Capa_1" xmlns="http://www.w3.org/2000/svg" viewBox="0 0 30 30">
  <defs>
    <style>
      .cls-1 {
        fill: #194232;
      }

      .cls-2 {
        fill: #80d56f;
      }
    </style>
  </defs>
  <circle class="cls-1" cx="15" cy="15" r="15"/>
  <g>
    <path class="cls-2" d="M15,6.65c-4.56,0-8.26,3.71-8.26,8.26s3.71,8.26,8.26,8.26,8.26-3.71,8.26-8.26-3.71-8.26-8.26-8.26ZM15,22.25c-4.05,0-7.34-3.29-7.34-7.34s3.29-7.34,7.34-7.34,7.34,3.29,7.34,7.34-3.29,7.34-7.34,7.34Z"/>
    <path class="cls-2" d="M14.71,5.28h0c.26,0,.46-.21.46-.46v-2.76c0-.25-.21-.46-.46-.46h0c-.26,0-.46.21-.46.46v2.76c0,.25.21.46.46.46Z"/>
    <path class="cls-2" d="M9.3,6.55c.09.15.24.23.4.23.08,0,.16-.02.23-.06.22-.13.3-.41.17-.63l-1.38-2.39c-.13-.22-.41-.3-.63-.17-.22.13-.3.41-.17.63l1.38,2.39Z"/>
    <path class="cls-2" d="M3.49,9.14l2.39,1.38c.07.04.15.06.23.06.16,0,.32-.08.4-.23.13-.22.05-.5-.17-.63l-2.39-1.38c-.22-.13-.5-.05-.63.17-.13.22-.05.5.17.63Z"/>
    <path class="cls-2" d="M5.37,15.21c0-.26-.21-.46-.46-.46h-2.76c-.26,0-.46.21-.46.47,0,.26.21.46.46.46h2.76c.26,0,.46-.21.46-.47Z"/>
    <path class="cls-2" d="M6.17,19.82l-2.39,1.38c-.22.13-.3.41-.17.63.09.15.24.23.4.23.08,0,.16-.02.23-.06l2.39-1.38c.22-.13.3-.41.17-.63-.13-.22-.41-.3-.63-.17Z"/>
    <path class="cls-2" d="M10.44,23.4c-.22-.13-.5-.05-.63.17l-1.38,2.39c-.13.22-.05.5.17.63.07.04.15.06.23.06.16,0,.32-.08.4-.23l1.38-2.39c.13-.22.05-.5-.17-.63Z"/>
    <path class="cls-2" d="M15.29,24.55h0c-.26,0-.46.21-.46.46v2.76c0,.26.21.46.46.46h0c.26,0,.46-.21.46-.46v-2.76c0-.26-.21-.46-.46-.46Z"/>
    <path class="cls-2" d="M20.7,23.28c-.13-.22-.41-.3-.63-.17-.22.13-.3.41-.17.63l1.38,2.39c.09.15.24.23.4.23.08,0,.16-.02.23-.06.22-.13.3-.41.17-.63l-1.38-2.39Z"/>
    <path class="cls-2" d="M26.51,20.69l-2.39-1.38c-.22-.13-.5-.05-.63.17-.13.22-.05.5.17.63l2.39,1.38c.07.04.15.06.23.06.16,0,.32-.08.4-.23.13-.22.05-.5-.17-.63Z"/>
    <path class="cls-2" d="M27.86,14.16h-2.76c-.26,0-.46.21-.46.47,0,.25.21.46.46.46h2.76c.26,0,.46-.21.46-.47,0-.25-.21-.46-.46-.46Z"/>
    <path class="cls-2" d="M23.83,10.01l2.39-1.38c.22-.13.3-.41.17-.63-.13-.22-.41-.3-.63-.17l-2.39,1.38c-.22.13-.3.41-.17.63.09.15.24.23.4.23.08,0,.16-.02.23-.06Z"/>
    <path class="cls-2" d="M19.56,6.43c.07.04.15.06.23.06.16,0,.32-.08.4-.23l1.38-2.39c.13-.22.05-.5-.17-.63-.22-.13-.5-.05-.63.17l-1.38,2.39c-.13.22-.05.5.17.63Z"/>
    <path class="cls-2" d="M13.64,13.93c.26,0,.46-.21.46-.46v-.89c0-.26-.21-.46-.46-.46s-.46.21-.46.46v.89c0,.26.21.46.46.46Z"/>
    <path class="cls-2" d="M16.16,13.93c.26,0,.46-.21.46-.46v-.89c0-.26-.21-.46-.46-.46s-.46.21-.46.46v.89c0,.26.21.46.46.46Z"/>
    <path class="cls-2" d="M18.65,14.87c-.26,0-.46.21-.46.46,0,1.52-1.43,2.76-3.19,2.76s-3.19-1.24-3.19-2.76c0-.26-.21-.46-.46-.46s-.46.21-.46.46c0,2.03,1.85,3.68,4.11,3.68s4.11-1.65,4.11-3.68c0-.26-.21-.46-.46-.46Z"/>
  </g>
</svg>