<?xml version="1.0" encoding="utf-8"?>
<!-- Generator: Adobe Illustrator 28.2.0, SVG Export Plug-In . SVG Version: 6.00 Build 0)  -->
<svg version="1.1" id="Capa_1" xmlns="http://www.w3.org/2000/svg" xmlns:xlink="http://www.w3.org/1999/xlink" x="0px" y="0px"
	 viewBox="0 0 30 30" style="enable-background:new 0 0 30 30;" xml:space="preserve">
<style type="text/css">
	.st0{fill:#0D403B;}
	.st1{fill:#FBFFFC;}
</style>
<circle class="st0" cx="15" cy="15" r="15"/>
<g>
	<g>
		<path class="st1" d="M15,7.6c-4.1,0-7.4,3.3-7.4,7.4c0,4.1,3.3,7.4,7.4,7.4s7.4-3.3,7.4-7.4C22.4,10.9,19.1,7.6,15,7.6z M15,21.6
			c-3.6,0-6.6-3-6.6-6.6c0-3.6,3-6.6,6.6-6.6s6.6,3,6.6,6.6C21.6,18.6,18.6,21.6,15,21.6z"/>
		<path class="st1" d="M14.7,6.3c0.2,0,0.4-0.2,0.4-0.4l0-2.5C15.1,3.2,15,3,14.7,3s-0.4,0.2-0.4,0.4l0,2.5
			C14.3,6.1,14.5,6.3,14.7,6.3z"/>
		<path class="st1" d="M9.9,7.5c0.1,0.1,0.2,0.2,0.4,0.2c0.1,0,0.1,0,0.2-0.1c0.2-0.1,0.3-0.4,0.2-0.6L9.3,4.9
			C9.2,4.7,9,4.6,8.8,4.7C8.6,4.9,8.5,5.1,8.6,5.3L9.9,7.5z"/>
		<path class="st1" d="M4.6,9.8L6.8,11c0.1,0,0.1,0.1,0.2,0.1c0.1,0,0.3-0.1,0.4-0.2c0.1-0.2,0-0.5-0.2-0.6L5,9.1
			C4.8,9,4.6,9,4.5,9.2C4.4,9.4,4.4,9.7,4.6,9.8L4.6,9.8z"/>
		<path class="st1" d="M6.3,15.3c0-0.2-0.2-0.4-0.4-0.4l-2.5,0C3.2,14.9,3,15,3,15.3s0.2,0.4,0.4,0.4l2.5,0
			C6.1,15.7,6.3,15.5,6.3,15.3L6.3,15.3z"/>
		<path class="st1" d="M7,19.4l-2.2,1.2c-0.2,0.1-0.3,0.4-0.2,0.6c0.1,0.1,0.2,0.2,0.4,0.2c0.1,0,0.1,0,0.2-0.1l2.2-1.2
			c0.2-0.1,0.3-0.4,0.2-0.6C7.5,19.4,7.2,19.3,7,19.4z"/>
		<path class="st1" d="M10.9,22.6c-0.2-0.1-0.5,0-0.6,0.2L9.1,25c-0.1,0.2,0,0.5,0.2,0.6c0.1,0,0.1,0.1,0.2,0.1
			c0.1,0,0.3-0.1,0.4-0.2l1.2-2.2C11.2,23,11.1,22.8,10.9,22.6L10.9,22.6z"/>
		<path class="st1" d="M15.3,23.7c-0.2,0-0.4,0.2-0.4,0.4l0,2.5c0,0.2,0.2,0.4,0.4,0.4s0.4-0.2,0.4-0.4l0-2.5
			C15.7,23.9,15.5,23.7,15.3,23.7z"/>
		<path class="st1" d="M20.1,22.5c-0.1-0.2-0.4-0.3-0.6-0.2c-0.2,0.1-0.3,0.4-0.2,0.6l1.2,2.2c0.1,0.1,0.2,0.2,0.4,0.2
			c0.1,0,0.1,0,0.2-0.1c0.2-0.1,0.3-0.4,0.2-0.6L20.1,22.5z"/>
		<path class="st1" d="M25.4,20.2L23.2,19c-0.2-0.1-0.5,0-0.6,0.2c-0.1,0.2,0,0.5,0.2,0.6l2.2,1.2c0.1,0,0.1,0.1,0.2,0.1
			c0.1,0,0.3-0.1,0.4-0.2C25.6,20.6,25.6,20.3,25.4,20.2L25.4,20.2z"/>
		<path class="st1" d="M26.6,14.3l-2.5,0c-0.2,0-0.4,0.2-0.4,0.4c0,0.2,0.2,0.4,0.4,0.4l2.5,0c0.2,0,0.4-0.2,0.4-0.4
			C27,14.5,26.8,14.3,26.6,14.3z"/>
		<path class="st1" d="M23,10.6l2.2-1.2c0.2-0.1,0.3-0.4,0.2-0.6c-0.1-0.2-0.4-0.3-0.6-0.2l-2.2,1.2c-0.2,0.1-0.3,0.4-0.2,0.6
			c0.1,0.1,0.2,0.2,0.4,0.2C22.8,10.6,22.9,10.6,23,10.6z"/>
		<path class="st1" d="M19.1,7.4c0.1,0,0.1,0.1,0.2,0.1c0.1,0,0.3-0.1,0.4-0.2L20.9,5c0.1-0.2,0-0.5-0.2-0.6c-0.2-0.1-0.5,0-0.6,0.2
			L19,6.8C18.8,7,18.9,7.2,19.1,7.4L19.1,7.4z"/>
		<path class="st1" d="M13.8,14.1c0.2,0,0.4-0.2,0.4-0.4v-0.8c0-0.2-0.2-0.4-0.4-0.4s-0.4,0.2-0.4,0.4v0.8
			C13.4,13.9,13.5,14.1,13.8,14.1z"/>
		<path class="st1" d="M16,14.1c0.2,0,0.4-0.2,0.4-0.4v-0.8c0-0.2-0.2-0.4-0.4-0.4c-0.2,0-0.4,0.2-0.4,0.4v0.8
			C15.6,13.9,15.8,14.1,16,14.1z"/>
		<path class="st1" d="M18.3,15c-0.2,0-0.4,0.2-0.4,0.4c0,1.4-1.3,2.5-2.9,2.5s-2.9-1.1-2.9-2.5c0-0.2-0.2-0.4-0.4-0.4
			c-0.2,0-0.4,0.2-0.4,0.4c0,1.8,1.7,3.3,3.7,3.3s3.7-1.5,3.7-3.3C18.7,15.1,18.5,15,18.3,15z"/>
	</g>
</g>
</svg>
