<?xml version="1.0" encoding="UTF-8"?>
<svg id="Capa_1" xmlns="http://www.w3.org/2000/svg" viewBox="0 0 30 30">
  <defs>
    <style>
      .cls-1 {
        fill: #194232;
      }

      .cls-2 {
        fill: #80d56f;
      }
    </style>
  </defs>
  <circle class="cls-1" cx="15" cy="15" r="15"/>
  <g>
    <path class="cls-2" d="M7.67,12.2c-.46,0-.83.37-.83.83s.37.83.83.83.83-.37.83-.83-.37-.83-.83-.83ZM7.66,13.03s0,0,0,0,0,0,0,0c0,0-.01,0-.01,0Z"/>
    <path class="cls-2" d="M7.67,19.75c-.46,0-.83.37-.83.83s.37.83.83.83.83-.37.83-.83-.37-.83-.83-.83ZM7.66,20.58s0,0,0,0,0,0,0,0c0,0-.01,0-.01,0Z"/>
    <path class="cls-2" d="M15.01,12.2c-.46,0-.83.37-.83.83s.37.83.83.83.83-.37.83-.83-.37-.83-.83-.83ZM15.01,13.03s0,0,0,0,0,0,0,0c0,0-.01,0-.01,0Z"/>
    <path class="cls-2" d="M15.01,19.75c-.46,0-.83.37-.83.83s.37.83.83.83.83-.37.83-.83-.37-.83-.83-.83ZM15.01,20.58s0,0,0,0,0,0,0,0c0,0-.01,0-.01,0Z"/>
    <path class="cls-2" d="M25.21,8.58l-2.52-3.44c-.08-.11-.2-.17-.33-.17s-.25.06-.33.17l-2.52,3.44c-.05.07-.08.16-.08.24v2.32h-1.5v-2.32c0-.09-.03-.17-.08-.24l-2.52-3.44c-.08-.11-.2-.17-.33-.17s-.25.06-.33.17l-2.52,3.44c-.05.07-.08.16-.08.24v2.32h-1.5v-2.32c0-.09-.03-.17-.08-.24l-2.52-3.44c-.08-.11-.2-.17-.33-.17s-.25.06-.33.17l-2.52,3.44c-.05.07-.08.16-.08.24v15.79c0,.23.18.41.41.41h5.03c.23,0,.41-.18.41-.41v-2.15h1.5v2.15c0,.23.18.41.41.41h5.03c.23,0,.41-.18.41-.41v-2.15h1.5v2.15c0,.23.18.41.41.41h5.03c.23,0,.41-.18.41-.41v-15.79c0-.09-.03-.17-.08-.24ZM17.94,14.91h1.5v3.78h-1.5v-3.78ZM19.44,11.96v2.13h-1.5v-2.13h1.5ZM10.59,14.91h1.5v3.78h-1.5v-3.78ZM12.09,11.96v2.13h-1.5v-2.13h1.5ZM9.77,24.21h-4.21v-15.25l2.1-2.88,2.1,2.88v15.25ZM10.59,21.65v-2.13h1.5v2.13h-1.5ZM17.12,24.21h-4.21v-15.25l2.1-2.88,2.1,2.88v15.25ZM17.94,21.65v-2.13h1.5v2.13h-1.5ZM24.47,24.21h-4.21v-15.25l2.1-2.88,2.1,2.88v15.25Z"/>
    <path class="cls-2" d="M21.53,13.03c0,.46.37.83.83.83s.83-.37.83-.83-.37-.83-.83-.83-.83.37-.83.83ZM22.37,13.03s-.01,0-.01,0c0,0,0,0,0,0s0,0,0,0Z"/>
    <path class="cls-2" d="M22.36,19.75c-.46,0-.83.37-.83.83s.37.83.83.83.83-.37.83-.83-.37-.83-.83-.83ZM22.35,20.58s0,0,0,0,0,0,0,0c0,0-.01,0-.01,0Z"/>
  </g>
</svg>