<svg width="30" height="30" viewBox="0 0 30 30" fill="none" xmlns="http://www.w3.org/2000/svg">
<circle cx="15" cy="15" r="15" fill="#6BDB8A"/>
<g clip-path="url(#clip0_160_3)">
<path d="M14.9997 7.55597C10.8953 7.55597 7.55603 10.8953 7.55603 14.9997C7.55603 19.104 10.8953 22.4433 14.9997 22.4433C19.1041 22.4433 22.4434 19.104 22.4434 14.9997C22.4434 10.8953 19.1041 7.55597 14.9997 7.55597ZM14.9997 21.6109C11.3538 21.6109 8.38842 18.6448 8.38842 14.9997C8.38842 11.3545 11.3545 8.38836 14.9997 8.38836C18.6449 8.38836 21.611 11.3545 21.611 14.9997C21.611 18.6448 18.6449 21.6109 14.9997 21.6109Z" fill="#324C5E"/>
<path d="M14.7361 6.32195C14.9657 6.32195 15.1523 6.13535 15.1516 5.90506L15.1488 3.4155C15.1488 3.1859 14.9622 3 14.7326 3C14.503 3 14.3164 3.1866 14.3171 3.41689L14.3199 5.90644C14.3199 6.13604 14.5065 6.32195 14.7361 6.32195Z" fill="#324C5E"/>
<path d="M9.86452 7.4644C9.94152 7.59759 10.0816 7.6725 10.2252 7.6725C10.296 7.6725 10.3674 7.65447 10.4333 7.61632C10.6324 7.50117 10.7004 7.24659 10.5852 7.04751L9.33803 4.89231C9.22288 4.69323 8.96831 4.62525 8.76923 4.7404C8.57015 4.85554 8.50217 5.11012 8.61732 5.3092L9.86452 7.4644Z" fill="#324C5E"/>
<path d="M4.62732 9.79928L6.78461 11.0416C6.84982 11.0791 6.92126 11.0971 6.99202 11.0971C7.1363 11.0971 7.27572 11.0222 7.35341 10.8883C7.46787 10.6892 7.39989 10.4347 7.20012 10.3202L5.04283 9.07787C4.84375 8.96272 4.58917 9.0314 4.47472 9.23117C4.36026 9.43025 4.42824 9.68482 4.62802 9.79928H4.62732Z" fill="#324C5E"/>
<path d="M6.32195 15.2633C6.32195 15.0336 6.13535 14.8477 5.90575 14.8477L3.4162 14.8505C3.1859 14.8505 3 15.0371 3 15.2667C3 15.4963 3.18659 15.6822 3.4162 15.6822L5.90575 15.6794C6.13535 15.6794 6.32195 15.4929 6.32125 15.2626L6.32195 15.2633Z" fill="#324C5E"/>
<path d="M7.04748 19.4148L4.89228 20.662C4.6932 20.7772 4.62522 21.0317 4.74036 21.2308C4.81736 21.364 4.95748 21.4389 5.10107 21.4389C5.17182 21.4389 5.24327 21.4209 5.30917 21.3827L7.46437 20.1355C7.66345 20.0204 7.73143 19.7658 7.61629 19.5667C7.50114 19.3676 7.24656 19.2997 7.04748 19.4148Z" fill="#324C5E"/>
<path d="M10.8891 22.6466C10.69 22.5314 10.4354 22.6001 10.3209 22.7999L9.0786 24.9572C8.96415 25.1562 9.03213 25.4108 9.2319 25.5253C9.2971 25.5627 9.36855 25.5808 9.43931 25.5808C9.58359 25.5808 9.72301 25.5059 9.8007 25.372L11.0431 23.2147C11.1575 23.0156 11.0895 22.761 10.8898 22.6466H10.8891Z" fill="#324C5E"/>
<path d="M15.2639 23.6774C15.0343 23.6774 14.8477 23.864 14.8484 24.0943L14.8512 26.5838C14.8512 26.8134 15.0378 26.9993 15.2674 26.9993C15.497 26.9993 15.6836 26.8127 15.6829 26.5824L15.6801 24.0929C15.6801 23.8633 15.4935 23.6774 15.2639 23.6774Z" fill="#324C5E"/>
<path d="M20.1355 22.5349C20.0204 22.3358 19.7658 22.2685 19.5667 22.383C19.3676 22.4981 19.2997 22.7527 19.4148 22.9518L20.662 25.107C20.739 25.2402 20.8791 25.3151 21.0227 25.3151C21.0935 25.3151 21.1649 25.2971 21.2308 25.2589C21.4299 25.1438 21.4979 24.8892 21.3827 24.6901L20.1355 22.5349Z" fill="#324C5E"/>
<path d="M25.3727 20.2007L23.2154 18.9584C23.0164 18.8432 22.7618 18.9119 22.6473 19.1117C22.5329 19.3108 22.6009 19.5653 22.8006 19.6798L24.9579 20.9221C25.0231 20.9596 25.0946 20.9776 25.1653 20.9776C25.3096 20.9776 25.449 20.9027 25.5267 20.7688C25.6412 20.5698 25.5732 20.3152 25.3734 20.2007H25.3727Z" fill="#324C5E"/>
<path d="M26.5838 14.3171L24.0942 14.3199C23.8646 14.3199 23.678 14.5065 23.6787 14.7368C23.6787 14.9664 23.8653 15.1523 24.0949 15.1523L26.5845 15.1495C26.8141 15.1495 27.0007 14.9629 27 14.7326C27 14.503 26.8134 14.3171 26.5838 14.3171Z" fill="#324C5E"/>
<path d="M22.9517 10.5845L25.107 9.3373C25.306 9.22215 25.374 8.96758 25.2589 8.7685C25.1437 8.56942 24.8891 8.50144 24.6901 8.61659L22.5349 9.86379C22.3358 9.97894 22.2678 10.2335 22.3829 10.4326C22.4599 10.5658 22.6001 10.6407 22.7436 10.6407C22.8144 10.6407 22.8858 10.6227 22.9517 10.5845Z" fill="#324C5E"/>
<path d="M19.111 7.35342C19.1762 7.39088 19.2476 7.40891 19.3184 7.40891C19.4627 7.40891 19.6021 7.334 19.6798 7.20012L20.9221 5.04283C21.0366 4.84375 20.9686 4.58918 20.7688 4.47472C20.5697 4.35957 20.3152 4.42825 20.2007 4.62802L18.9584 6.78531C18.8439 6.98439 18.9119 7.23896 19.1117 7.35342H19.111Z" fill="#324C5E"/>
<path d="M13.7781 14.1132C14.0077 14.1132 14.1943 13.9266 14.1943 13.697V12.8944C14.1943 12.6648 14.0077 12.4782 13.7781 12.4782C13.5485 12.4782 13.3619 12.6648 13.3619 12.8944V13.697C13.3619 13.9266 13.5485 14.1132 13.7781 14.1132Z" fill="#324C5E"/>
<path d="M16.0491 14.1132C16.2787 14.1132 16.4653 13.9266 16.4653 13.697V12.8944C16.4653 12.6648 16.2787 12.4782 16.0491 12.4782C15.8195 12.4782 15.6329 12.6648 15.6329 12.8944V13.697C15.6329 13.9266 15.8195 14.1132 16.0491 14.1132Z" fill="#324C5E"/>
<path d="M18.291 14.9622C18.0614 14.9622 17.8748 15.1488 17.8748 15.3784C17.8748 16.7491 16.5853 17.8645 14.9996 17.8645C13.4139 17.8645 12.1244 16.7491 12.1244 15.3784C12.1244 15.1488 11.9378 14.9622 11.7082 14.9622C11.4786 14.9622 11.292 15.1488 11.292 15.3784C11.292 17.2083 12.9554 18.6969 14.9996 18.6969C17.0438 18.6969 18.7072 17.2083 18.7072 15.3784C18.7072 15.1488 18.5206 14.9622 18.291 14.9622Z" fill="#324C5E"/>
</g>
<defs>
<clipPath id="clip0_160_3">
<rect width="24" height="24" fill="white" transform="translate(3 3)"/>
</clipPath>
</defs>
</svg>
