<svg width="30" height="30" viewBox="0 0 30 30" fill="none" xmlns="http://www.w3.org/2000/svg">
<circle cx="15" cy="15" r="15" fill="#6BDB8A"/>
<g clip-path="url(#clip0_94_77)">
<path d="M25.5879 11.7752L25.4936 11.6967C25.3428 11.5711 25.1651 11.4868 24.9755 11.4475L25.2184 11.1554C25.6175 10.6759 25.5604 9.99276 25.0875 9.60015L24.997 9.52529C24.8483 9.40175 24.6727 9.31956 24.4858 9.28292L24.6862 9.02641C25.067 8.53957 25.0072 7.85956 24.5494 7.47899L24.4589 7.40413C24.2284 7.21254 23.9327 7.11988 23.6289 7.14291C23.3245 7.16595 23.0487 7.30205 22.8516 7.5261L22.5661 7.85014C22.5112 7.65855 22.4088 7.48423 22.2516 7.35336L22.1568 7.27483C21.6634 6.86442 20.9179 6.92096 20.4988 7.3968L17.9564 10.1948C17.1156 10.9696 16.1779 11.7313 15.0203 12.5777L14.9718 9.57555C14.9718 8.94422 14.4434 8.43016 13.7933 8.43016H13.6689C13.4782 8.43016 13.2983 8.47466 13.1394 8.55266V8.23752C13.1394 7.6062 12.611 7.09266 11.9608 7.09266H11.8364C11.1868 7.09266 10.6579 7.6062 10.6579 8.23752V8.48513C10.4995 8.40818 10.3212 8.36473 10.1327 8.36473H10.0083C9.35866 8.36473 8.82972 8.87826 8.82972 9.51011V9.80588C8.67028 9.72736 8.49038 9.68338 8.30024 9.68338H8.17581C7.52621 9.68338 6.9978 10.1969 6.9978 10.8288V24.6859C6.9978 24.7712 7.03389 24.8529 7.09691 24.9121C7.15724 24.9686 7.2375 25 7.32099 25C7.3253 25 7.32961 25 7.33338 25L7.49497 24.9937C10.2011 24.8911 15.239 24.6995 17.2708 24.9759C17.3758 24.9901 17.4814 24.9534 17.553 24.8775C17.6246 24.8016 17.6537 24.6964 17.6306 24.5959C17.5051 24.0509 17.3693 23.5034 17.2287 22.9584L23.1462 16.307L25.715 13.3891C26.1373 12.9091 26.0791 12.1851 25.5857 11.7747L25.5879 11.7752ZM7.64633 24.3598V10.8288C7.64633 10.5435 7.88494 10.3116 8.17796 10.3116H8.30239C8.58033 10.3116 8.80871 10.5199 8.83187 10.7843V10.8733C8.83187 10.8853 8.83295 10.8973 8.83403 10.9094V13.2274C8.83403 13.4006 8.97892 13.5415 9.15721 13.5415C9.3355 13.5415 9.4804 13.4006 9.4804 13.2274V10.8282C9.4804 10.8052 9.47932 10.7822 9.47824 10.7597V9.51011C9.47824 9.22481 9.71686 8.99291 10.0104 8.99291H10.1348C10.4004 8.99291 10.6202 9.18293 10.66 9.43054V9.5724C10.66 9.59439 10.6627 9.61638 10.667 9.63732V13.3509C10.667 13.5242 10.8119 13.665 10.9902 13.665C11.1685 13.665 11.3134 13.5242 11.3134 13.3509V9.51063C11.3134 9.46875 11.3107 9.42792 11.3064 9.38709V8.23804C11.3064 7.95327 11.545 7.72136 11.8386 7.72136H11.963C12.2565 7.72136 12.4952 7.95327 12.4952 8.23804V9.50854C12.4941 9.53053 12.493 9.55304 12.493 9.57555C12.493 9.58759 12.4941 9.5991 12.4952 9.61062V13.677C12.4952 13.8503 12.6401 13.9911 12.8184 13.9911C12.9966 13.9911 13.1415 13.8503 13.1415 13.677V9.53419C13.1631 9.26826 13.3925 9.05887 13.671 9.05887H13.7954C14.089 9.05887 14.3276 9.29077 14.3276 9.58078L14.3879 13.3268C14.3879 13.3363 14.3885 13.3452 14.3896 13.3546C14.667 15.9416 15.3623 18.502 16.0351 20.9781C16.3308 22.0669 16.6357 23.1893 16.9018 24.3032C14.6524 24.1007 10.2199 24.2624 7.64686 24.3598H7.64633ZM25.2265 12.9819L22.6588 15.8987L17.037 22.2172C16.912 21.7465 16.7849 21.2791 16.6594 20.8174C16.3093 19.5285 15.9538 18.2172 15.6548 16.8944L19.6009 15.9474C20.3071 15.7778 21.4894 15.4946 21.3881 14.3837L21.3784 14.2801C21.3294 13.7503 20.8177 13.3472 20.2031 13.3472C20.1886 13.3472 20.174 13.3472 20.1595 13.3478L16.6475 13.4567C16.4693 13.4624 16.3292 13.6074 16.3346 13.7807C16.3405 13.954 16.4924 14.0901 16.668 14.0848L20.1799 13.976C20.467 13.9665 20.7154 14.1288 20.7342 14.3361L20.7434 14.4392C20.7832 14.8737 20.4676 15.092 19.4452 15.337L15.5196 16.2788C15.3112 15.2909 15.1399 14.2979 15.0327 13.3043C15.0849 13.2975 15.1361 13.2781 15.1814 13.2457C16.4693 12.3139 17.4959 11.4857 18.4121 10.6408C18.4191 10.6346 18.4256 10.6277 18.4321 10.6209L20.9874 7.80879C21.1781 7.59206 21.5147 7.56694 21.7372 7.75225L21.8314 7.83077C22.0302 7.99619 22.0162 8.47466 21.8061 8.71337L19.3779 11.4721C19.2621 11.604 19.2777 11.8024 19.4135 11.915C19.4743 11.9658 19.5492 11.9904 19.6235 11.9904C19.7146 11.9904 19.8056 11.9532 19.8692 11.8804L23.3434 7.93338C23.4285 7.83705 23.5475 7.77842 23.68 7.76848C23.8125 7.75853 23.9397 7.79832 24.0393 7.88103L24.1293 7.95589C24.3302 8.1234 24.3485 8.42022 24.1718 8.64636L23.3822 9.65564L20.9373 12.4332C20.8215 12.5652 20.8371 12.7636 20.9728 12.8761C21.0337 12.9269 21.1086 12.9515 21.1829 12.9515C21.2739 12.9515 21.365 12.9143 21.4285 12.8416L23.8815 10.0551C23.9666 9.95821 24.0862 9.89958 24.2181 9.88964C24.3506 9.87917 24.4778 9.91947 24.5774 10.0027L24.6679 10.0781C24.8726 10.2477 24.8936 10.5477 24.7164 10.7607L23.8276 11.8286L22.2279 13.6456C22.1121 13.7776 22.1277 13.976 22.2634 14.0885C22.3991 14.2011 22.6033 14.1859 22.7191 14.054L24.3237 12.2307C24.4153 12.1265 24.5446 12.0631 24.6868 12.0521C24.8295 12.0417 24.9663 12.0846 25.0735 12.1741L25.1678 12.2526C25.3908 12.438 25.4166 12.7651 25.2259 12.9813L25.2265 12.9819Z" fill="#324C5E"/>
</g>
<defs>
<clipPath id="clip0_94_77">
<rect width="19" height="18" fill="white" transform="translate(7 7)"/>
</clipPath>
</defs>
</svg>
