<svg width="111" height="111" viewBox="0 0 111 111" fill="none" xmlns="http://www.w3.org/2000/svg">
<circle cx="55.5" cy="55.5" r="55.5" fill="#0D403B"/>
<g clip-path="url(#clip0_213_3)">
<path d="M56 101C55.3565 101 54.784 100.595 54.5686 99.9892L46.814 78.1795L25.9088 88.1154C25.3287 88.3915 24.6371 88.2724 24.181 87.8164C23.7276 87.3629 23.606 86.6688 23.8821 86.0887L33.8205 65.1834L12.0108 57.4313C11.4053 57.216 11 56.6435 11 56C11 55.3565 11.4053 54.784 12.0108 54.5687L33.8205 46.8141L23.8821 25.9088C23.606 25.3287 23.725 24.6371 24.181 24.1811C24.6371 23.725 25.3287 23.606 25.9088 23.8821L46.814 33.8179L54.5686 12.0108C54.784 11.4053 55.3565 11 56 11C56.6435 11 57.216 11.4053 57.4313 12.0108L65.1859 33.8205L86.0912 23.8846C86.6713 23.6085 87.3629 23.7276 87.8189 24.1836C88.2724 24.6371 88.394 25.3312 88.1179 25.9113L78.1795 46.8166L99.9892 54.5712C100.595 54.7865 101 55.3591 101 56.0025C101 56.646 100.595 57.2185 99.9892 57.4339L78.1795 65.1885L88.1179 86.0937C88.394 86.6739 88.2749 87.3655 87.8189 87.8215C87.3629 88.2775 86.6713 88.3966 86.0912 88.1204L65.1859 78.1846L57.4313 99.9943C57.216 100.6 56.6435 101.005 56 101.005V101ZM47.6805 74.5644C47.8781 74.5644 48.0757 74.6024 48.2631 74.681C48.6609 74.8456 48.9699 75.1699 49.1143 75.5752L56.0025 94.9427L62.8907 75.5752C63.0351 75.1699 63.3442 74.8456 63.7419 74.681C64.1397 74.5163 64.5881 74.529 64.9757 74.7114L83.5401 83.535L74.7164 64.9706C74.5315 64.583 74.5214 64.1346 74.686 63.7369C74.8507 63.3391 75.175 63.0301 75.5803 62.8857L94.9478 55.9975L75.5803 49.1093C75.175 48.9649 74.8507 48.6558 74.686 48.2581C74.5214 47.8603 74.534 47.4119 74.7164 47.0243L83.5401 28.4599L64.9757 37.2836C64.5881 37.4685 64.1397 37.4786 63.7419 37.314C63.3442 37.1493 63.0351 36.825 62.8907 36.4197L56.0025 17.0522L49.1143 36.4197C48.9699 36.825 48.6609 37.1493 48.2631 37.314C47.8654 37.4786 47.417 37.466 47.0294 37.2836L28.465 28.4599L37.2886 47.0243C37.4736 47.4119 37.4837 47.8603 37.319 48.2581C37.1544 48.6558 36.8301 48.9649 36.4248 49.1093L17.0573 55.9975L36.4248 62.8857C36.8301 63.0301 37.1544 63.3391 37.319 63.7369C37.4837 64.1346 37.471 64.583 37.2886 64.9706L28.465 83.535L47.0294 74.7114C47.2346 74.6126 47.4575 74.5644 47.683 74.5644H47.6805Z" fill="#6BDB8A"/>
</g>
<defs>
<clipPath id="clip0_213_3">
<rect width="90" height="90" fill="white" transform="translate(11 11)"/>
</clipPath>
</defs>
</svg>
