<svg width="30" height="30" viewBox="0 0 30 30" fill="none" xmlns="http://www.w3.org/2000/svg">
<circle cx="15" cy="15" r="15" fill="#6BDB8A"/>
<g clip-path="url(#clip0_164_5)">
<path d="M21.5431 18.0439C19.9622 18.0439 18.6269 19.1175 18.217 20.5776L14.5395 19.8763C14.4503 19.8595 14.3581 19.8769 14.2813 19.9259L11.013 22.0168C11.0023 22.0234 10.9922 22.0312 10.9821 22.039C10.9255 22.0725 10.8518 22.0581 10.8119 22.0037C10.7983 21.9851 10.7899 21.9636 10.7876 21.9402C10.7864 21.9295 10.7846 21.9181 10.7828 21.9073L9.34996 14.6694C9.32081 14.5222 9.20364 14.4085 9.05554 14.3851L7.01006 14.059L7.02315 13.9632C7.08977 13.4749 6.74895 13.0231 6.26361 12.9561L4.09085 12.6569C3.85591 12.6245 3.62275 12.6862 3.43361 12.831C3.24446 12.9758 3.12194 13.1853 3.08982 13.4216L3.00893 14.0177C2.94231 14.506 3.28313 14.9578 3.76847 15.0248L5.94123 15.324C5.98168 15.3294 6.02272 15.3324 6.06316 15.3324C6.25587 15.3324 6.44264 15.2696 6.59907 15.1499C6.73051 15.0494 6.82865 14.9171 6.88754 14.7663L8.69867 15.0554L10.0804 22.0342C10.0982 22.1778 10.1529 22.3143 10.238 22.4304C10.4033 22.656 10.6591 22.775 10.9178 22.775C11.0915 22.775 11.267 22.7212 11.4168 22.6099C11.4168 22.6099 11.418 22.6093 11.4186 22.6087L14.5454 20.6087L18.0957 21.2862C18.0904 21.3646 18.0868 21.443 18.0868 21.5225C18.0868 23.4405 19.6374 25.0006 21.5437 25.0006C23.45 25.0006 25.0006 23.4405 25.0006 21.5225C25.0006 19.6046 23.45 18.0445 21.5437 18.0445L21.5431 18.0439ZM6.31595 13.8651L6.23506 14.4611C6.22673 14.5234 6.18866 14.5605 6.16725 14.5766C6.14524 14.5934 6.10004 14.6197 6.03818 14.6113L3.86542 14.3121C3.77145 14.2989 3.70305 14.2086 3.71554 14.114L3.79643 13.518C3.80475 13.4558 3.84282 13.4187 3.86423 13.4025C3.88327 13.3881 3.92014 13.366 3.96951 13.366C3.97724 13.366 3.98498 13.366 3.9933 13.3678L6.16606 13.667C6.26004 13.6802 6.32844 13.7705 6.31535 13.8651H6.31595ZM21.5431 24.2819C20.0306 24.2819 18.7999 23.0437 18.7999 21.5219C18.7999 21.4878 18.8011 21.4543 18.8023 21.4202L21.3635 21.9091C21.5574 21.9462 21.7441 21.8182 21.7804 21.6231C21.8173 21.428 21.69 21.2401 21.4961 21.2036L18.9201 20.7123C19.2651 19.5842 20.3101 18.762 21.5425 18.762C23.0551 18.762 24.2857 20.0001 24.2857 21.5219C24.2857 23.0437 23.0551 24.2819 21.5425 24.2819H21.5431Z" fill="#324C5E"/>
<path d="M10.8572 17.3366C10.922 17.7555 11.22 18.0553 11.6357 18.1187L17.7537 19.0594C17.7906 19.0648 17.8251 19.0678 17.8584 19.0678C18.2212 19.0678 18.3925 18.7548 18.4883 18.5795C18.518 18.5244 18.5466 18.4724 18.5745 18.4341L23.651 11.4528C23.8182 11.223 23.8521 10.9412 23.7397 10.718C23.6391 10.5181 23.4357 10.399 23.1966 10.399H22.4264C22.4163 10.3248 22.3841 10.2536 22.3276 10.1961L17.492 5.29084C17.3058 5.10353 17.0578 5 16.7931 5C16.5285 5 16.2804 5.10293 16.0931 5.29143L11.2586 10.1967C11.2021 10.2542 11.17 10.3254 11.1599 10.3996H10.7549C10.5045 10.3996 10.2582 10.5133 10.0964 10.7036C9.9513 10.8736 9.88944 11.0842 9.92275 11.2966L10.8578 17.3366H10.8572ZM16.5986 5.7983C16.6504 5.74624 16.7194 5.71811 16.7931 5.71811C16.8669 5.71811 16.9359 5.74684 16.9864 5.7971L21.5229 10.3996H12.064L16.5986 5.7983ZM10.7543 11.1177H23.0105L17.9988 18.0104C17.9435 18.0864 17.9006 18.1648 17.8632 18.2336C17.8453 18.2659 17.8215 18.3096 17.8019 18.3407L11.7434 17.409C11.6381 17.3928 11.5792 17.333 11.5626 17.2258L10.6276 11.1877C10.6323 11.1674 10.6876 11.1177 10.7549 11.1177H10.7543Z" fill="#324C5E"/>
</g>
<defs>
<clipPath id="clip0_164_5">
<rect width="22" height="20" fill="white" transform="translate(3 5)"/>
</clipPath>
</defs>
</svg>
