<?xml version="1.0" encoding="utf-8"?>
<!-- Generator: Adobe Illustrator 28.2.0, SVG Export Plug-In . SVG Version: 6.00 Build 0)  -->
<svg version="1.1" id="Capa_1" xmlns="http://www.w3.org/2000/svg" xmlns:xlink="http://www.w3.org/1999/xlink" x="0px" y="0px"
	 viewBox="0 0 200 200" style="enable-background:new 0 0 200 200;" xml:space="preserve">
<style type="text/css">
	.st0{fill:#FFFFFF;}
</style>
<g>
	<g id="Capa_1_00000020361804557885815760000002069276609414982304_">
		<path id="Vector" class="st0" d="M146.2,43.4c0,0.3,0,0.6,0,0.9c0.1,13.6,0.1,27.3,0.2,40.9c0,6.6,0.1,13.2,0.1,19.8
			c-0.1,7.4-2.2,14.2-6.1,20.4c-5.6,9-13.4,15.2-23.4,18.9c-5.8,2.2-11.9,3-18.1,2.6c-9.8-0.7-18.5-4.2-25.9-10.6
			c-7.4-6.4-12-14.4-14-23.9c-0.6-2.7-0.8-5.4-0.8-8.1c0-19.8,0-39.6,0-59.3c0-1,0.5-1.6,1.6-1.6c27.9,0,55.9,0,83.8,0L146.2,43.4
			L146.2,43.4z M90.3,86.5c-0.2,0-0.4,0-0.6,0c-0.1-0.3-0.1-0.5-0.1-0.8h-1.1c0,0.1,0,0.3,0,0.4c0,2.3,0,4.7,0,7
			c0,0.2,0,0.6-0.1,0.6c-0.5,0.1-0.4,0.5-0.4,0.8c0,6.1-0.1,12.2,0,18.2c0,1.7-0.3,3-2.1,3.5c-0.2,0.1-0.4,0.3-0.4,0.5
			c0,1.2,0,2.4,0,3.6h13.4c0-0.3,0-0.5,0-0.8c0-2.5-0.1-5,0-7.4c0-0.8,0.3-1.7,0.7-2.5c0.7-1.3,2.3-1.7,3.9-1.2
			c1.4,0.4,2.2,1.5,2.2,3.1c0,2.1,0,4.3,0,6.4c0,0.8,0,1.5,0,2.3h13.5c0-0.6-0.1-1.2,0-1.7c0.3-1.6-0.3-2.6-1.8-3
			c-0.5-0.1-0.6-0.5-0.6-1c0-1.8,0-3.6,0-5.5c0-4.9,0-9.9,0-14.8c0-0.2,0-0.3-0.1-0.5c-0.2-0.1-0.4-0.1-0.6-0.2v-8.1
			c-0.9-0.3-1.1,0.1-1,0.8h-0.9c0-0.3-0.1-0.5-0.1-0.8h-0.9c0,0.3,0,0.5,0,0.8h-0.7c0-0.3-0.1-0.5-0.1-0.8h-1.2v10.1h-0.8
			c0-0.3,0-0.5,0-0.7c0-0.9-0.4-1.3-1.3-1.4c0,0-0.1,0-0.2-0.1V78.2H107c0,0.5,0,0.9-0.1,1.3h-1.1c-0.2-0.5,0.3-1.3-0.8-1.3
			c0.5-1.1,1-2.1,1.6-3.1c1.1-2.1,2.6-4,4.6-5.3c0.4-0.2,0.9-0.3,1.4-0.3c0.6,0,1.3,0.1,1.9,0.2c-0.3-0.4-0.7-0.7-1.1-1
			c-0.5-0.3-0.7-0.7-0.7-1.3c0-0.6-0.1-1.3-0.1-1.9c-0.4,0.6-0.6,1.1-0.8,1.7c-0.3,0.8-0.7,1.5-1.4,2.1c-1.1,0.9-2,1.9-3,3
			c-1.7,2-2.7,4.4-3.7,6.7c-0.1,0.2-0.2,0.3-0.3,0.6c-0.4-0.6,0.2-1.6-0.9-1.5c0-0.2,0-0.4,0-0.5c-0.2-1.2,0.2-1.9,1.4-2.3
			c0.3-0.1,0.9-0.3,0.9-0.6c0.2-0.9,0.3-1.9,0.4-2.8c-0.1,0-0.2-0.1-0.3-0.1c-0.8,1-1.6,2-2.4,3c-0.1-1.4,0-2.8,1.1-3.9
			c-1.2,1-2.1,0.3-3.1-0.3c0.7,1.1,1.4,2.1,1.1,3.4c-0.1-1.8-1.7-1.9-2.8-2.5c0.4,1.3,0.5,2.7,2,3.3c0.5,0.2,1,0.5,0.9,1.2
			c-0.1,0.6,0,1.2,0.1,1.7c0,0.1-0.1,0.1-0.2,0.2c-0.1,0.2-0.3,0.4-0.3,0.6c-0.1,0.2,0,0.5-0.1,0.8c-0.2-0.2-0.2-0.2-0.2-0.3
			c-0.1-0.2-0.2-0.4-0.2-0.6c-1.3-4.1-3.4-7.8-6.7-10.7c-0.2-0.2-0.3-0.4-0.4-0.7c-0.3-0.9-0.6-1.8-1-2.8c-0.1,0.1-2.3,4.1-2.3,4.1
			c0.4,0,0.9,0,1.3-0.1c1.1-0.2,1.9,0.2,2.7,0.9c2.4,2.1,3.7,4.9,4.9,7.8c0.1,0.3,0.2,0.6,0.3,0.9c-0.3,0-0.5,0-0.8,0.1
			c0,0.4-0.1,0.8-0.1,1.2h-1c0-0.4,0-0.8-0.1-1.2h-1.8c0,0.3,0,0.5,0,0.7c0,4.6,0,9.2,0,13.7c0,1.1,0.1,1.1-1,1.1
			c-0.1,0-0.3,0.1-0.5,0.1v1.9h-0.9V85.6h-0.9c0,0.3-0.1,0.6-0.1,0.9h-0.9c0-0.3-0.1-0.5-0.1-0.8h-1C90.3,86,90.3,86.2,90.3,86.5
			L90.3,86.5z M73.6,88.8c0-0.4,0-0.8,0-1.1c0-3-0.1-5.9,0.5-8.9c1.5-7.5,5.5-13.5,11.7-18c2.6-1.8,5.4-3.2,8.5-4
			c0.2-0.1,0.5-0.3,0.5-0.4c0-1.4,0-2.8,0-4.2c-0.1,0-0.2-0.1-0.2,0c-0.2,0-0.4,0.1-0.6,0.1c-5.5,1.4-10.4,4-14.6,7.8
			c-4.1,3.7-7.1,8.2-9,13.5c-1.8,4.8-2.1,9.8-1.9,14.8c0,0.1,0.3,0.4,0.4,0.4C70.5,88.8,72,88.8,73.6,88.8L73.6,88.8z M109.9,52
			c-0.1,0.1-0.1,0.2-0.1,0.2c0,1.2,0,2.4,0,3.6c0,0.6,0.2,0.8,0.7,0.9c9.8,3,16.3,9.4,19.5,19.1c0.9,2.7,1.2,5.4,1.2,8.2
			c0,1.4,0,2.8,0,4.2h4.9c0.6-9.9-2-18.6-8.7-26C122.6,57,116.8,53.6,109.9,52z M94.5,138.7c0-0.2,0.1-0.2,0.1-0.3
			c0-1.1,0-2.2,0-3.2c0-0.4-0.1-0.6-0.5-0.7c-5.5-1.6-10.1-4.6-13.8-9c-3.4-3.9-5.5-8.5-6.2-13.6c-0.4-2.7-0.3-5.5-0.4-8.3
			c0-0.3,0-0.5,0-0.9c-1.6,0-3.2,0-4.7,0c-0.1,0-0.4,0.4-0.4,0.6c0.1,2.6,0.1,5.2,0.4,7.7c1,6.8,3.9,12.8,8.6,17.8
			c2.9,3.1,6.3,5.6,10.1,7.5C89.9,137.4,92.1,138.2,94.5,138.7L94.5,138.7z M109.4,138.8c0.3-0.1,0.6-0.1,0.8-0.1
			c3.6-0.9,7-2.3,10.1-4.3c5.3-3.3,9.4-7.8,12.2-13.4c2.9-5.6,3.8-11.6,3.6-17.9c0-0.4-0.2-0.5-0.6-0.5c-1.2,0-2.4,0-3.7,0
			c-0.6,0-0.8,0.2-0.8,0.8c0,2.4,0.1,4.9-0.2,7.3c-1.2,9.6-6.2,16.8-14.8,21.5c-1.9,1-4,1.6-6.1,2.4c-0.2,0.1-0.6,0.3-0.7,0.5
			C109.3,136.4,109.4,137.6,109.4,138.8L109.4,138.8z M101.2,128c-1-0.1-1.6,0.2-1.8,0.9h-1.3c0-0.3-0.1-0.7-0.1-1h-1.6
			c0,0.2-0.1,0.3-0.1,0.5c0,2.9,0,5.7,0,8.6c0,0.4-0.1,0.9-0.3,1.2c-0.7,0.8-0.6,1.7-0.5,2.7h5c0-0.3,0-0.5,0-0.7c0-1.2,0-2.5,0-3.7
			c0-1.2,1.2-1.8,2.1-1.3c0.5,0.3,0.8,0.8,0.8,1.4c0,1.4,0,2.9,0,4.4c1.7,0,3.3,0,4.9,0c0.1,0,0.3-0.1,0.3-0.2
			c0-0.6,0.1-1.4-0.2-1.9c-0.4-0.7-0.6-1.3-0.6-2c0-0.6,0-1.3,0-1.9c0-2.1,0-4.2,0-6.3c0-0.3,0.1-0.7-0.4-0.7c-0.5,0-0.9,0-1.4,0
			c0,0.4-0.1,0.7-0.1,1h-1.3c0-0.3-0.1-0.6-0.1-1h-1.6c0,0.3-0.1,0.6-0.1,1h-1.4C101.2,128.6,101.2,128.3,101.2,128L101.2,128z
			 M132.2,102.1c0-1.5,0-3,0-4.4c0-0.9,0.5-1.5,1.4-1.5c0.8,0,1.4,0.6,1.5,1.5c0,0.6,0,1.1,0,1.7c0,0.9,0,1.9,0,2.7h5.2
			c-0.1-0.9,0.2-1.7-0.4-2.4c-0.3-0.3-0.4-0.8-0.4-1.3c0-2.8,0-5.7,0-8.6c0-0.2,0-0.4,0-0.6h-1.7c0,0.3-0.1,0.6-0.1,0.9h-1.3
			c0-0.3,0-0.6-0.1-1h-1.6c0,0.3-0.1,0.7-0.1,1h-1.4c0-0.3-0.1-0.6-0.1-0.9h-1.6c0,0.4,0,0.6-0.1,0.9h-1.3c0-0.4-0.1-0.7-0.1-1H128
			c0,0.3,0,0.5,0,0.8c0,2.9,0,5.7,0,8.6c0,0.3-0.1,0.7-0.3,1c-0.8,0.8-0.5,1.7-0.5,2.7L132.2,102.1L132.2,102.1z M96.7,48.8
			c0,0.3,0,0.6,0,0.9c0,2.8,0,5.6,0,8.4c0,0.3,0,0.7-0.2,0.9c-0.6,0.6-0.6,1.4-0.6,2.2c0,0.5,0.1,0.7,0.6,0.7c1.2,0,2.5,0,3.7,0
			c0.5,0,0.7-0.2,0.7-0.7c0-1.3,0-2.6,0-3.9c0-0.8,0.6-1.4,1.4-1.4c0.8,0,1.4,0.6,1.4,1.4c0,1.3,0,2.5,0,3.8c0,0.2,0,0.5,0,0.8
			c1.7,0,3.2,0,4.8,0c0.1,0,0.4-0.3,0.4-0.4c0-0.8,0.1-1.5-0.5-2.2c-0.2-0.2-0.3-0.6-0.3-0.9c0-2.8,0-5.7,0-8.6c0-0.3,0-0.5,0-0.8
			h-1.8c0,0.3-0.1,0.6-0.1,0.9h-1.3c0-0.3-0.1-0.6-0.1-0.9h-1.6c0,0.4-0.1,0.6-0.1,1h-1.4c0-0.3-0.1-0.6-0.1-0.9h-1.6
			c0,0.4,0,0.7-0.1,0.9h-1.4c0-0.4-0.1-0.7-0.1-1H96.7L96.7,48.8z M72.5,102.2c1.7,0,3.2,0,4.8,0c0.1,0,0.4-0.2,0.4-0.3
			c0-0.8,0.1-1.5-0.5-2.2c-0.2-0.2-0.3-0.6-0.3-0.9c0-2.9,0-5.9,0-8.8c0-0.2,0-0.4-0.1-0.6h-1.7c0,0.3-0.1,0.6-0.1,0.9h-1.3
			c0-0.3-0.1-0.7-0.1-1c-1.4-0.3-1.6-0.2-1.8,0.9h-1.5c0-0.3,0-0.6-0.1-0.9h-1.5c0,0.4-0.1,0.6-0.1,0.9h-1.4c0-0.4,0-0.7-0.1-1
			c-0.3,0-0.6,0-0.8,0c-0.9,0-0.9,0-0.9,0.9c0,2.8,0,5.6,0,8.4c0,0.3-0.1,0.7-0.3,1c-0.5,0.6-0.6,1.3-0.6,2.1c0,0.5,0.2,0.7,0.7,0.7
			c1.2,0,2.4,0,3.6,0c0.7,0,0.8-0.2,0.8-0.8c0-1.2,0-2.4,0-3.6c0-1,0.7-1.7,1.7-1.5c0.7,0.1,1.2,0.7,1.2,1.5
			C72.5,99.2,72.5,100.7,72.5,102.2L72.5,102.2z M98.1,68.3c0.1-0.1,0.1-0.3,0.2-0.3c0.4-0.2,0.9-0.6,1.2-0.6c0.3,0,0.7,0.6,0.8,1
			c0.2,0.5,0.3,1.1,0.5,1.6c0.4,1,1.5,1.3,2.3,0.5c0.3-0.3,0.4-0.9,0.6-1.4c0.2-0.6,0.3-1.3,0.7-1.8c0.4-0.6,0.9-0.5,1.2,0.2
			c0,0.1,0.1,0.2,0.2,0.3c0.6-1,0.5-2-0.2-2.1c-0.8-0.1-1.3-0.5-1.6-1.3c0-0.1-0.1-0.1-0.2-0.2c-1.3-1.3-3.3-0.9-4.2,0.8
			c-0.2,0.5-0.5,0.8-1,0.9C97.6,66.4,97.3,67.3,98.1,68.3z M88.2,62l0,0.2c-1.2-0.2-1.7-0.2-2.3,0.3c-1.2,0.9-1.4,2.3-0.6,3.6
			c0.3,0.5,0.4,0.8,0.3,1.4c-0.3,1.1,0.5,1.8,1.7,1.6c0-0.1,0-0.1-0.1-0.2c-0.3-0.5-0.4-1.2,0-1.6c0.3-0.3,0.9-0.2,1.4-0.2
			c0.6,0.1,1.2,0.3,1.9,0.3c0.4,0,0.8-0.2,1.1-0.5c0.6-0.7,0.3-1.6-0.5-2.3c-0.4-0.4-0.9-0.8-1.2-1.2c-0.2-0.3-0.1-0.8-0.2-1.2
			c0.3,0,0.6,0,1,0c0,0,0.1,0,0.2,0c-0.2-0.6-0.7-1.1-1.2-1C89.1,61.3,88.7,61.7,88.2,62z M117.8,70.2c0.9,0.2,1.7-0.4,1.5-1.4
			c-0.1-0.6,0-1.1,0.4-1.6c0.6-0.9,0.8-1.9,0.1-2.9c-0.6-0.9-1.4-1.3-2.5-1.1c-0.2,0-0.4-0.2-0.6-0.3c-0.4-0.2-0.7-0.7-1.1-0.7
			c-0.6-0.1-1,0.5-1.2,0.9c0.4,0.1,0.8,0.2,1.1,0.3c-0.1,0.4-0.2,0.9-0.4,1.3c-0.2,0.3-0.6,0.6-0.9,0.8c-0.3,0.2-0.6,0.4-0.8,0.7
			c-0.4,0.5-0.4,1-0.1,1.6c0.3,0.6,0.8,0.7,1.3,0.7c0.4,0,0.8-0.2,1.2-0.2c0.6-0.1,1.4-0.5,1.8,0.2C118,68.9,117.8,69.6,117.8,70.2
			L117.8,70.2z M110.4,64.4c-0.1,0-0.1,0-0.2,0c-0.6,0.9-1.3,1.7-1.9,2.6c-0.1,0.1-0.2,0.3-0.2,0.4c0.2,0.9,0.4,1.7,0.7,2.7
			c0.4-0.5,0.7-0.8,0.9-1.2c0.3-0.4,0.7-0.8,0.7-1.2C110.5,66.6,110.4,65.5,110.4,64.4L110.4,64.4z M95,63.7
			c-0.6,2.5-0.2,4.6,1.2,5.7c0.2-0.8,0.5-1.6,0.7-2.3c0-0.1,0-0.3,0-0.5C96.3,65.6,95.6,64.7,95,63.7z"/>
		<path id="Vector_2" class="st0" d="M135.8,31.4c-0.1,0.3-0.2,0.5-0.3,0.7c0,0.1-0.1,0.2-0.2,0.3c-0.9-0.5-1.8-0.8-2.7-0.3
			c-0.5,0.3-1,0.8-1.3,1.4c-0.6,1.4,0.2,2.5,2.2,3.2c-0.1,0.3-0.2,0.7-0.4,1.1c-10-4.1-20.6-5.2-31.2-5.2c-10.7,0-21.2,1-31.3,5.1
			c-0.2-0.4-0.4-0.8-0.6-1.3c2.1-0.1,3-0.7,3.2-2c0.2-1.1-0.4-2.2-1.5-2.6c-1.2-0.5-2.3-0.1-3.2,1.2c0,0-0.1,0-0.1-0.1
			c-0.8-1.6-0.8-1.6,0.8-2.4c3-1.6,6.1-2.6,9.4-3.3c9.8-2.4,19.8-2.9,29.9-2.3c5.8,0.3,11.6,1.1,17.2,2.6c3,0.8,5.9,1.8,8.7,3.2
			C134.9,30.9,135.3,31.1,135.8,31.4L135.8,31.4z M100.8,26.4c-1,0.3-2,0.5-2.8,0.9c-1.6,0.8-1.6,2.4-0.1,3.3c1.9,1.1,4,1.1,5.9,0
			c1.5-0.8,1.5-2.5,0-3.3C102.8,26.9,101.8,26.8,100.8,26.4L100.8,26.4z M125.2,30.7c-1.5-1-2.9-2-4.4-3c-0.1-0.1-0.4-0.1-0.6,0
			c-1.1,0.3-2.3,0.7-3.4,1c-0.5,0.2-1.1,0.4-1.7,0.6c1.6,1.2,3,2.3,4.5,3.3c0.1,0.1,0.4,0.1,0.5,0.1
			C121.8,32.1,123.5,31.4,125.2,30.7L125.2,30.7z M78.4,31c1.8,0.8,3.5,1.5,5.2,2.2c0.1,0.1,0.4,0,0.5-0.1c1.5-1,2.9-2.1,4.5-3.2
			c-1.7-0.6-3.4-1.2-5-1.8c-0.1,0-0.3,0-0.4,0C81.7,29,80.1,29.9,78.4,31L78.4,31z"/>
		<path id="Vector_3" class="st0" d="M119.7,11.2c-0.3-3.3,0.4-4.8,2.5-5.9c1.7-0.8,3.9-0.4,5.2,0.9c1.7,1.7,1.8,3.5,0.5,6.3
			c2.5,0.8,4,2.4,3.8,5.1c-0.2,2-1.6,3.5-3.5,4c-2.2,0.5-3.7-0.2-5.6-2.6c-1.9,1.7-3.9,2.1-6.2,0.7c-1.6-1-2.4-2.9-1.9-4.8
			C115.2,12.3,117.1,11.2,119.7,11.2L119.7,11.2z"/>
		<path id="Vector_4" class="st0" d="M81.2,19.7c-1.7,2.7-3.4,3.5-5.6,3c-1.9-0.5-3.3-2.1-3.5-4.1c-0.2-2.1,0.9-3.8,3.4-4.9
			c-1.6-2.2-1.8-4.4,0.1-6.5c1.3-1.4,3.1-1.8,4.9-1.1c2.5,1,3.3,3,3,5.6c2.7-0.2,4.7,0.7,5.5,3.3c0.6,1.8-0.1,3.8-1.7,5
			C85.6,21.3,83.7,21.2,81.2,19.7L81.2,19.7z"/>
		<path id="Vector_5" class="st0" d="M97.5,10.5c-1-2.7-0.6-4.6,1.1-6c1.5-1.2,3.8-1.4,5.5-0.3c1.9,1.2,2.4,3,1.7,6.1
			c3.1,0.8,4.4,2,4.6,4.4c0.2,1.7-1,3.6-2.7,4.4c-2,1-3.8,0.5-6-1.6c-1.7,2.1-3.7,2.8-6.2,1.6c-1.8-0.9-2.7-2.8-2.4-4.7
			C93.4,12.4,94.7,11.1,97.5,10.5L97.5,10.5z"/>
		<path id="Vector_6" class="st0" d="M150.4,16.6c-1,0.1-1.8,0.1-2.7,0.2c-1.2,0.1-2.2,0.7-2.7,1.8c-1,2.1-1.9,4.2-2.9,6.3
			c-0.8,1.9-3,3-4.7,2.3c-1.2-0.4-1.8-1.3-1.8-2.6c0-1.1,0.7-1.7,1.6-2.2c0.2-0.1,0.5-0.2,0.8-0.3c-0.3-0.4-0.7-0.8-1-1.2
			c-1.2-1.8-0.4-4.2,1.7-4.5c0.7-0.1,1.4,0.3,2.1,0.5c0.2,0.1,0.3,0.2,0.5,0.3c0.2-0.8,0.4-1.6,0.7-2.3c0.7-1.6,2.1-2.3,3.8-2.4
			c1.6-0.1,2.7,0.8,3.5,2.1C149.8,15.2,150.1,15.9,150.4,16.6z"/>
		<path id="Vector_7" class="st0" d="M65.9,22.6c0.5,0.2,1,0.4,1.5,0.7c1.7,1,1.3,3.1,0.1,4c-1.6,1.2-4.3,0.6-5.3-1.3
			c-0.8-1.5-1.4-3-2.2-4.5c-0.4-0.7-0.9-1.4-1.3-2.1c-0.7-1-1.7-1.5-2.9-1.5c-0.8,0-1.5,0-2.3,0c0.2-1.9,1.6-4.1,3.8-4.4
			c2.3-0.3,4,1.2,5,4.6c1.5-1.1,3.1-1.7,4.4,0.1C68,19.7,67,21.2,65.9,22.6L65.9,22.6z"/>
		<path id="Vector_8" class="st0" d="M110.2,174.9v-11.3h1.6v1.4c2.2-2.4,5.7-2.1,6.7,0.2c0.5-0.4,0.9-0.9,1.5-1.2
			c1.2-0.8,3.3-0.8,4.3,0c0.8,0.6,1.2,1.4,1.2,2.2c0.1,2.9,0,5.7,0,8.7h-1.8c0-0.2,0-0.5,0-0.7c0-2.3,0-4.5,0-6.8
			c0-1.4-0.4-2-1.4-2.3c-1.3-0.4-2.8,0.3-3.2,1.6c-0.2,0.5-0.3,1-0.3,1.5c0,2,0,4,0,6c0,0.3,0,0.5,0,0.8h-1.9c0-0.2,0-0.5,0-0.7
			c0-2.2,0-4.5,0-6.7c0-1.5-0.5-2.2-1.6-2.4c-1.3-0.2-2.6,0.5-3,1.8c-0.2,0.6-0.3,1.3-0.3,1.9c0,1.8,0,3.7,0,5.5
			c0,0.6-0.2,0.8-0.7,0.7C110.9,174.8,110.6,174.9,110.2,174.9z"/>
		<path id="Vector_9" class="st0" d="M46.2,174.9c0.6-1.5,1.1-3,1.7-4.4c1.4-3.5,2.7-7,4.1-10.5c0.2-0.6,0.5-0.7,1.1-0.8
			c1.1-0.1,1.6,0.2,2,1.3c1.8,4.7,3.8,9.3,5.7,13.9c0.1,0.1,0.1,0.3,0.2,0.4c-0.1,0-0.1,0-0.1,0c-1.4,0.1-2.4-0.5-2.9-1.8
			c-0.3-0.8-0.6-1.6-0.9-2.4c-0.1-0.4-0.3-0.5-0.7-0.5c-1.9,0-3.8,0-5.6,0c-0.4,0-0.6,0.1-0.8,0.5c-0.4,1.2-0.9,2.5-1.3,3.7
			c-0.1,0.4-0.4,0.6-0.8,0.6C47.3,174.8,46.8,174.9,46.2,174.9L46.2,174.9z M50.7,168.4h5.4c-0.9-2.5-1.8-5-2.8-7.4
			C52.5,163.5,51.6,165.9,50.7,168.4L50.7,168.4z"/>
		<path id="Vector_10" class="st0" d="M74.1,185.6V180h1.8v15.6h-1.6c0-0.4-0.1-0.8-0.1-1.2c-0.1,0-0.2,0-0.2,0.1
			c-1.3,1.9-4.6,1.8-6.3,0c-2-2.1-2.1-6.5-0.3-8.7C68.6,184.1,71.7,183.1,74.1,185.6L74.1,185.6z M68,189.7c0.1,0.8,0.1,1.4,0.2,2
			c0.3,1.4,1.4,2.4,2.7,2.6c1.1,0.1,2.4-0.5,2.8-1.7c0.8-1.8,0.8-3.7-0.1-5.5c-0.5-1.1-1.5-1.7-2.8-1.6c-1.2,0.1-2.1,0.8-2.5,2
			C68.1,188.3,68.1,189.1,68,189.7z"/>
		<path id="Vector_11" class="st0" d="M132.9,187.5c0.4-1.6,1.3-2.7,2.9-3.1c1.6-0.4,3.2-0.4,4.8,0.1c1.2,0.4,1.7,1.3,1.8,2.4
			c0.1,1.6,0,3.2,0.1,4.8c0,1.3,0.2,2.5,0.3,3.8c-1.5,0.3-1.6,0.2-2.1-1.2c-0.9,0.4-1.8,1-2.8,1.2c-1,0.2-2,0.2-3,0
			c-1.5-0.3-2.3-1.4-2.4-2.8c-0.1-1.5,0.7-2.7,2.1-3.2c0.8-0.3,1.7-0.4,2.5-0.5c0.9-0.2,1.9-0.4,2.8-0.5c0.4-0.1,0.5-0.3,0.5-0.7
			c0-1.2-0.5-2-1.7-2.2c-0.7-0.1-1.4-0.1-2.1,0c-0.9,0.1-1.6,0.6-1.8,1.5c-0.1,0.5-0.4,0.6-0.8,0.5
			C133.7,187.6,133.3,187.5,132.9,187.5L132.9,187.5z M140.5,190c-1.5,0.3-3,0.6-4.5,0.9c-0.9,0.2-1.5,0.9-1.5,1.7
			c0,0.8,0.6,1.5,1.5,1.7C138.8,195,141.1,192.8,140.5,190L140.5,190z"/>
		<path id="Vector_12" class="st0" d="M97.5,166.7c0.3-1.7,1.2-2.7,2.8-3.1c1.4-0.4,2.8-0.4,4.2-0.1c1.7,0.4,2.5,1.4,2.6,3.1
			c0,1.1,0,2.1,0,3.2c0,1.7-0.2,3.4,0.5,5c-1.8,0.3-1.9,0.2-2.3-1.3c-0.2,0.2-0.5,0.3-0.7,0.5c-1.6,1.2-3.4,1.4-5.3,0.9
			c-1.3-0.4-2.1-1.4-2.1-2.7c-0.1-1.3,0.5-2.5,1.7-3c1.2-0.5,2.5-0.6,3.8-0.9c0.4-0.1,0.9-0.1,1.3-0.2c0.4-0.1,1.1,0.1,1.1-0.6
			c0.1-0.8,0-1.6-0.8-2.1c-1.8-1.2-4.2-0.4-5.1,1.7C98.7,166.9,98.2,166.8,97.5,166.7L97.5,166.7z M105.1,169.2
			c-0.4,0.1-0.6,0.2-0.9,0.2c-1.2,0.2-2.4,0.4-3.7,0.7c-0.9,0.2-1.3,0.9-1.3,1.7c0,0.8,0.5,1.5,1.3,1.7c1.4,0.4,2.6,0.1,3.7-0.8
			C105.2,171.8,105.2,170.5,105.1,169.2L105.1,169.2z"/>
		<path id="Vector_13" class="st0" d="M88.9,190.4h-8.5c-0.2,2.5,1.9,4.3,4.1,3.8c1-0.2,1.7-0.8,2.1-1.7c0.2-0.4,0.4-0.5,0.9-0.5
			c0.4,0.1,0.8,0.1,1.3,0.2c-0.2,1-0.7,1.8-1.5,2.5c-1.8,1.6-6.2,1.6-7.9-1c-1.4-2.1-1.5-7.2,1.6-9c2.5-1.4,6.8-0.8,7.7,3.3
			c0.1,0.5,0.2,1,0.2,1.5C89,189.7,88.9,190,88.9,190.4z M86.9,188.9c0-2.1-1.4-3.4-3.4-3.3c-1.6,0.1-3,1.6-2.9,3.3H86.9L86.9,188.9
			z"/>
		<path id="Vector_14" class="st0" d="M129.9,169.7c0,2.6,1.8,4.2,4.1,3.9c1-0.2,1.7-0.7,2-1.6c0.3-0.6,0.6-0.8,1.2-0.6
			c0.3,0.1,0.6,0.1,1,0.1c-0.2,1.5-1.4,2.9-3.1,3.4c-2.8,0.8-5.5-0.2-6.6-2.6c-1.1-2.3-0.7-5.8,0.8-7.4c1.4-1.5,3.8-2,5.7-1.3
			c1.9,0.7,3.2,2.5,3.3,4.7c0.1,1.3,0.1,1.3-1.3,1.3c-2.1,0-4.3,0-6.4,0C130.4,169.6,130.2,169.7,129.9,169.7L129.9,169.7z
			 M136.3,168.1c-0.1-2.2-1.6-3.5-3.5-3.3c-1.8,0.2-3,2-2.8,3.3H136.3z"/>
		<path id="Vector_15" class="st0" d="M81.3,163.6v1.4c0.4-0.3,0.7-0.7,1-0.9c1.6-1.1,3.3-1.1,4.9-0.2c0.9,0.4,1.4,1.3,1.5,2.2
			c0.1,2.9,0,5.8,0,8.8H87c0-2.1,0-4.2,0-6.3c0-0.6,0-1.1-0.1-1.7c-0.2-1.1-0.7-1.7-1.9-1.9c-1.7-0.3-3.1,0.7-3.4,2.3
			c-0.1,0.9-0.1,1.8-0.1,2.7c0,1.4,0,2.8,0,4.2c0,0.5-0.1,0.7-0.6,0.7c-0.4,0-0.7,0-1.2,0c0-0.3,0-0.5,0-0.8c0-3.2,0-6.4,0-9.5
			c0-1,0-1,1-1C80.9,163.6,81.1,163.6,81.3,163.6L81.3,163.6z"/>
		<path id="Vector_16" class="st0" d="M67.3,163.6h1.8c0,1.1,0,2.1,0,3.1c0,1.5,0,3,0,4.5c0.1,1.4,0.8,2.2,2,2.3
			c1.4,0.2,2.8-0.6,3.1-1.8c0.2-0.6,0.3-1.3,0.3-1.9c0-1.8,0-3.6,0-5.3c0-0.7,0.2-1,0.9-0.9c0.3,0,0.6,0,0.9,0v11.3h-1.6v-1.6
			c-0.3,0.3-0.6,0.5-0.8,0.7c-1.7,1.6-4.8,1.5-6-0.3c-0.3-0.5-0.6-1.1-0.6-1.7C67.3,169.3,67.3,166.5,67.3,163.6z"/>
		<path id="Vector_17" class="st0" d="M142.7,174.8c-1.9,0.3-1.9,0.3-1.9-1.4c0-3,0-6,0-9c0-0.2,0-0.5,0-0.7h1.6
			c0,0.5,0.1,0.9,0.1,1.4c0.4-0.3,0.7-0.7,1-0.9c1.5-1.1,3.2-1.1,4.8-0.3c0.9,0.4,1.5,1.2,1.6,2.3c0.1,2.9,0,5.8,0,8.8h-1.8
			c0-0.4,0-0.7,0-1.1c0-2,0-4,0-6c0-2-0.7-2.8-2.3-2.9c-1.7-0.1-3,1-3.1,2.8c-0.1,1.5,0,3.1-0.1,4.6
			C142.7,173.1,142.7,173.9,142.7,174.8z"/>
		<path id="Vector_18" class="st0" d="M97.8,180h2c0,0.3,0,0.6,0,0.8c0,4.1,0,8.2,0,12.3c0,0.6,0.2,0.7,0.8,0.7c2.3,0,4.6,0,7,0
			c0,0.5,0,1,0,1.5c0,0.1-0.2,0.3-0.4,0.3c-3.1,0-6.2,0-9.4,0V180L97.8,180z"/>
		<path id="Vector_19" class="st0" d="M152.1,163.6c0.5,0,0.9-0.1,1.4-0.1c0-0.7,0.1-1.4,0-2c-0.1-0.6,0.2-0.9,0.7-1.2
			c0.4-0.2,0.7-0.4,1.2-0.7c0,1.1,0,2.1,0,3.1c0,0.7,0.2,0.9,0.9,0.8c0.3,0,0.6,0,1,0c0,0.2,0.1,0.3,0.1,0.5c0,0.6-0.3,1-1,1
			c-0.3,0-0.6,0-1,0c0,0.6,0,1.1,0,1.5c0,1.8,0,3.5,0,5.3c0,1.3,0.2,1.5,1.5,1.5c0.4,0,0.5,0.1,0.5,0.5c0,0.2,0,0.4,0.1,0.6
			c0.1,0.4,0,0.6-0.4,0.6c-0.4,0-0.7,0.1-1.1,0.1c-1.7,0-2.5-0.7-2.5-2.4c0-2.3,0-4.5,0-6.8c0-0.2,0-0.5,0-0.8c-0.5-0.1-1,0-1.3-0.2
			C152,164.6,152.1,164.1,152.1,163.6L152.1,163.6z"/>
		<path id="Vector_20" class="st0" d="M96.3,174.8c-1,0.3-1.9,0.3-2.8,0c-0.6-0.2-1-0.7-1.1-1.3c-0.1-0.9-0.1-1.9-0.1-2.8
			c0-1.9,0-3.7,0-5.7h-1.4v-1.4c0.5,0,0.9,0,1.4-0.1c0-0.7,0-1.3,0-2c-0.1-0.6,0.1-1,0.7-1.3c0.4-0.2,0.7-0.4,1.2-0.6
			c0,1.2,0,2.2,0,3.3c0,0.5,0.1,0.7,0.7,0.7c0.4,0,0.8,0,1.3,0v1.4h-1.9c0,0.4,0,0.8,0,1.2c0,1.9,0,3.8,0,5.7c0,1.2,0.3,1.4,1.4,1.4
			c0.5,0,0.6,0.2,0.7,0.6C96.2,174.1,96.3,174.4,96.3,174.8L96.3,174.8z"/>
		<path id="Vector_21" class="st0" d="M60,179.3c0.1-0.5,0.2-1,0.3-1.5c0.1,0,0.1-0.1,0.2-0.1c1.5,0.2,1.8,0,1.9-1.5
			c0.1-0.4,0.1-0.8,0.1-1.3c0-3.5,0-7,0-10.4c0-0.3,0-0.6,0-1h1.8c0,0.2,0,0.4,0,0.6c0,3.9,0,7.7,0,11.6c0,0.4,0,0.7-0.1,1.1
			c-0.3,2.1-1.5,2.9-3.6,2.5C60.4,179.4,60.2,179.3,60,179.3L60,179.3z"/>
		<path id="Vector_22" class="st0" d="M111.6,195.6h-1.8V180h1.8V195.6z"/>
		<path id="Vector_23" class="st0" d="M127.1,184.7c-0.2,0.6-0.5,1.1-0.7,1.6c-1.1-0.4-2.2-0.6-2.9,0.5c-0.3,0.4-0.5,1-0.6,1.5
			c-0.1,1.5-0.1,3.1-0.2,4.6c0,0.9,0,1.8,0,2.7H121v-11.2h1.6v1.3c0.7-0.5,1.2-1.2,2-1.5C125.4,183.8,126.2,184.2,127.1,184.7
			L127.1,184.7z"/>
		<path id="Vector_24" class="st0" d="M130.1,195.6h-1.8v-11.2h1.8V195.6z"/>
		<path id="Vector_25" class="st0" d="M117.3,184.3v11.3h-1.8c0-0.4,0-0.8,0-1.2c0-3,0-6.1,0-9.1c0-0.7,0.3-1,1-1
			C116.7,184.3,117,184.3,117.3,184.3z"/>
		<path id="Vector_26" class="st0" d="M73.7,23.9c0,1.2-0.9,2.2-2.1,2.2c-1.2,0-2.3-1-2.2-2.1c0-1.2,1-2.2,2.2-2.2
			C72.8,21.7,73.7,22.7,73.7,23.9z"/>
		<path id="Vector_27" class="st0" d="M91.1,22.3c-1.3,0-2.2-1-2.1-2.3c0.1-1.1,1.1-2.1,2.3-2c1.2,0,2.2,1.1,2.1,2.3
			C93.3,21.4,92.2,22.3,91.1,22.3z"/>
		<path id="Vector_28" class="st0" d="M109.8,20.2c0-1.3,0.9-2.1,2.2-2.1c1.2,0,2.2,1,2.2,2.1c0,1.2-1,2.2-2.3,2.2
			C110.7,22.4,109.8,21.4,109.8,20.2z"/>
		<path id="Vector_29" class="st0" d="M129.2,23.6c0-1.2,1-2.1,2.1-2.2c1.2,0,2.2,1,2.2,2.2c0,1.2-1,2.2-2.2,2.2
			C130.2,25.8,129.2,24.8,129.2,23.6L129.2,23.6z"/>
		<path id="Vector_30" class="st0" d="M118.7,179.9c-0.8,1-1.4,2-2.2,2.8c-0.3,0.3-0.9,0.1-1.6,0.2c0.5-1.1,0.9-2,1.4-2.8
			c0-0.1,0.2-0.1,0.3-0.1C117.2,179.9,117.8,179.9,118.7,179.9L118.7,179.9z"/>
		<path id="Vector_31" class="st0" d="M128.3,180h1.8v2h-1.8V180z"/>
		<path id="Vector_32" class="st0" d="M64.3,161.4c-0.6,0-1.1,0.1-1.5,0c-0.7-0.3-0.2-1-0.3-1.5c0-0.2,0.2-0.4,0.3-0.6
			c0,0,0,0,0.1,0c1.3-0.2,1.4-0.1,1.4,1.2C64.3,160.7,64.3,161,64.3,161.4L64.3,161.4z"/>
		<path id="Vector_33" class="st0" d="M103.4,103h-2.5c0-1.3,0-2.5,0-3.7c0-0.8,0.6-1.3,1.2-1.3c0.7,0,1.2,0.6,1.3,1.3
			c0,0.6,0,1.2,0,1.7C103.4,101.7,103.4,102.3,103.4,103L103.4,103z"/>
		<path id="Vector_34" class="st0" d="M111.4,103c-0.8,0-1.5,0-2.1,0c-0.2,0-0.4-0.3-0.4-0.4c0-1.1,0-2.2,0-3.2
			c0-0.9,0.6-1.4,1.2-1.4c0.7,0,1.3,0.6,1.3,1.4C111.5,100.5,111.4,101.7,111.4,103L111.4,103z"/>
		<path id="Vector_35" class="st0" d="M95.4,102.9h-2.5c0-1.3,0-2.6,0-3.9c0-0.6,0.4-1,1.1-1.1c0.7,0,1.3,0.4,1.3,1.1
			C95.4,100.4,95.4,101.6,95.4,102.9L95.4,102.9z"/>
		<path id="Vector_36" class="st0" d="M100.2,85.8h-2.5c0-0.9-0.1-1.8,0-2.7c0.1-0.8,0.5-1.2,1.2-1.2c0.7,0,1.3,0.5,1.3,1.3
			C100.2,84,100.2,84.9,100.2,85.8L100.2,85.8z"/>
		<path id="Vector_37" class="st0" d="M103.5,88.1h-2.5c0-0.9-0.1-1.8,0-2.6c0.1-0.8,0.6-1.2,1.2-1.2c0.7,0,1.2,0.4,1.3,1.2
			C103.5,86.3,103.5,87.2,103.5,88.1L103.5,88.1z"/>
		<path id="Vector_38" class="st0" d="M107,85.8c-0.3,0-0.5,0-0.7,0c-0.6,0-1.2,0-2,0c0.1-1,0.1-2,0.2-3c0.1-0.5,0.5-0.9,1.1-0.9
			c0.6,0,1.1,0.3,1.2,0.9C106.9,83.7,106.9,84.7,107,85.8L107,85.8z"/>
		<path id="Vector_39" class="st0" d="M114.5,91.5h-1.9c0-0.7,0-1.4,0.1-2.1c0.1-0.3,0.5-0.7,0.8-0.8c0.5-0.1,0.9,0.3,1,0.8
			C114.6,90.1,114.5,90.8,114.5,91.5L114.5,91.5z"/>
		<path id="Vector_40" class="st0" d="M91.8,91.5c-2.2,0.1-2,0.4-1.9-1.9c0-0.5,0.3-1,0.9-1c0.6,0,0.9,0.5,1,1.1
			C91.9,90.3,91.8,90.9,91.8,91.5z"/>
		<path id="Vector_41" class="st0" d="M100.5,133.4h-1.7c0-0.6-0.1-1.3,0-1.9c0-0.3,0.5-0.6,0.8-0.6c0.4-0.1,0.8,0.2,0.8,0.7
			C100.5,132.2,100.5,132.7,100.5,133.4z"/>
		<path id="Vector_42" class="st0" d="M103.4,133.4c0-0.6,0-1.2,0-1.7c0-0.5,0.3-0.8,0.8-0.8c0.5,0,0.8,0.2,0.8,0.8
			c0,0.6,0,1.1,0,1.7H103.4z"/>
		<path id="Vector_43" class="st0" d="M132.2,94.7h-1.7c0-0.6-0.1-1.3,0-1.9c0-0.3,0.5-0.6,0.8-0.6c0.4-0.1,0.8,0.2,0.9,0.7
			C132.2,93.5,132.2,94,132.2,94.7z"/>
		<path id="Vector_44" class="st0" d="M136.8,94.7h-1.7c0-0.6,0-1.2,0-1.8c0-0.5,0.3-0.7,0.8-0.7c0.5,0,0.8,0.2,0.9,0.7
			C136.8,93.5,136.8,94,136.8,94.7z"/>
		<path id="Vector_45" class="st0" d="M103.7,54.2c0-0.5,0-1.1,0-1.6c0-0.5,0.3-0.9,0.8-0.8c0.6,0,0.9,0.3,0.9,0.9
			c0,0.1,0,0.1,0,0.2C105.5,54.4,105.5,54.5,103.7,54.2z"/>
		<path id="Vector_46" class="st0" d="M100.8,54.3h-1.7c0-0.6-0.1-1.2,0-1.7c0.1-0.3,0.5-0.6,0.8-0.7c0.4-0.1,0.8,0.2,0.9,0.7
			C100.8,53.1,100.8,53.6,100.8,54.3L100.8,54.3z"/>
		<path id="Vector_47" class="st0" d="M74.3,94.7h-1.7c0-0.6,0-1.1,0-1.7c0-0.5,0.3-0.8,0.8-0.8c0.5,0,0.9,0.3,0.9,0.8
			C74.3,93.5,74.3,94.1,74.3,94.7z"/>
		<path id="Vector_48" class="st0" d="M69.6,94.7H68c0-0.6,0-1.2,0-1.8c0-0.4,0.4-0.8,0.8-0.7c0.3,0.1,0.8,0.4,0.8,0.7
			C69.7,93.4,69.6,94,69.6,94.7z"/>
	</g>
</g>
</svg>
