<?xml version="1.0" encoding="utf-8"?>
<!-- Generator: Adobe Illustrator 28.2.0, SVG Export Plug-In . SVG Version: 6.00 Build 0)  -->
<svg version="1.1" id="Capa_1" xmlns="http://www.w3.org/2000/svg" xmlns:xlink="http://www.w3.org/1999/xlink" x="0px" y="0px"
	 viewBox="0 0 200 200" style="enable-background:new 0 0 200 200;" xml:space="preserve">
<style type="text/css">
	.st0{clip-path:url(#SVGID_00000046297705805759674630000004522450948485376384_);}
	.st1{fill:#FBFFFC;}
</style>
<g>
	<defs>
		<rect id="SVGID_1_" y="35.2" width="200" height="129.6"/>
	</defs>
	<clipPath id="SVGID_00000136375797504045753400000006957962725211521925_">
		<use xlink:href="#SVGID_1_"  style="overflow:visible;"/>
	</clipPath>
	
		<g id="Capa_1_00000044170118024754910930000004172708622534102961_" style="clip-path:url(#SVGID_00000136375797504045753400000006957962725211521925_);">
		<path id="Vector" class="st1" d="M124.4,108.4c0.1-1.1,0.2-2.3,0.4-3.4c0.5-3.6,0-7-3-9.5c-1.1-0.9-1.3-1.8-1.1-3
			c0.6-2,1.2-4,1.7-6.1c1.5-6.7,2.5-13.4,1.3-20.2c-0.2-0.9-1.2-2.1,0-2.7c1-0.5,2,0.6,2.8,1.3c0.6,0.6,1,1.2,1.2,2
			c0.4,1.3,0.8,2.5,1.2,3.8c0.1,0.4,0.1,1,0.7,1c0.6,0,0.7-0.6,0.9-1c0.5-1.3,1-2.6,1.6-4.1c0.9,1.8,1.6,3.4,2.4,5.1
			c1.3-1.5,1.6-3.1,2.2-4.7c2.1,1.6,2.5,3.8,2.9,6c0.1,0.5,0.2,1.2,0.9,1.2c0.7,0,0.8-0.7,0.9-1.2c0.2-1.3,0.3-2.7,0.5-4.4
			c1.6,1.7,3.1,2.9,3.6,4.9c0.1,0.6,0.3,1.3,1.1,1.3c0.9,0,0.7-0.9,0.8-1.4c1.1-5.6-1.3-10.4-3.5-15.3c-0.4-0.9-1.3-1.5-2.3-1.4
			c-1.6,0.1-2.7-0.6-3.6-1.7c-1.5-2.6-4.3-2.8-7-3c2.5-0.5,4.5-0.1,6.1,1.8c0.5,0.5,1.1,0.5,1.4-0.4c0.4-1.6,1.2-0.8,1.8-0.3
			c0.8,0.7,1.6,1.5,2.4,2.3c0.4,0.4,1.1,0.9,1.3,0.2c0.8-2.1,1.4-0.5,2.1,0c1,0.7,1.3,1.9,1.9,2.9c0.2,0.3,0.6,0.6,0.9,0.6
			c0.6,0,0.7-0.6,0.7-1c0.1-0.9,0.1-1.9,0-2.8c-0.5-4.2-2.8-7.5-5.7-10.5c-3.7-3.9-5.9-4.2-10.8-1.9c-0.1,0-0.2-0.1-0.3-0.2
			c0.1-0.2,0.2-0.4,0.3-0.6c0.3-0.6,1.4-0.9,0.9-1.7c-0.5-0.8-1.4-0.2-2.2-0.1c-1.9,0.1-3.6,0.9-5.1,2c-0.2-0.3-0.3-0.4-0.3-0.5
			c-0.2-1.2,1.3-3.5-1.9-2.8c-0.6,0.1-0.4-0.7-0.5-1.1c-0.1-0.9,0.3-2.1-0.8-2.5c-1.2-0.4-1.7,0.8-2.4,1.5c-0.3,0.3-0.5,0.7-0.8,0.9
			c-1.4,0.7-0.3,2.9-1.5,3.1c-1.2,0.3-1.9-1.7-3.3-1.9c-0.7-0.1-1.9-0.4-1.4,0.9c0.9,1.9-0.2,1.7-1.4,1.7c-0.7-0.1-1.4-0.1-2.1,0
			c-0.6,0-1.4,0-1.6,0.7c-0.2,0.6,0.5,0.9,0.9,1.2c1,0.9,2.4,1.4,2.9,2.8c-1,0.4-1.7,0.2-2.4-0.1c-2.1-0.9-4-0.3-5.9,0.5
			c-1.7,0.7-2.5,1.4-0.7,2.8c-3.6,2.5-6.2,5.4-8.1,9.3c-2.3,4.8-3.4,9.7-3.1,14.9c1.3,1,1.6,0,1.9-0.9c0.3-1.1,0.3-2.3,0.7-3.6
			c0.2,1,0.3,1.9,0.8,2.7c0.3,0.5,0.6,1.2,1.4,1.1c0.9-0.1,0.9-0.9,1-1.6c0.2-1.3,0.1-2.6,0.8-3.9c0.8,0.6,1.2,1.7,2.2,1.2
			c1-0.4,1.1-1.5,1.2-2.4c0.2-1.2,0.1-2.5,0.1-3.8c1.3,1.5,1.9,1.5,2.8,0.1c0.7-1.1,0.9-2.5,1.6-3.7c0.3-0.4,0.3-1.4,1.3-0.7
			c1.3,0.9,2.2,0.1,3.1-0.7c1-0.9,1.8-1.9,3.4-1.7c-4.1,1.7-6.2,5.6-9.2,8.5c-1.2,1.1-1.9,2.5-1.4,4.2c0.3,1.1-0.2,1.9-0.5,2.9
			c-1.8,5.3-2.4,10.8-1.4,16.4c0.2,0.9,0.3,2.1,1.5,2c1.3-0.1,1-1.4,1.1-2.2c0.1-0.9,0-1.7,0.1-2.6c0.1-1,0.1-2,1.1-3
			c0,2,0.1,3.8,0.9,5.5c0.3,0.7,0.8,1.2,1.7,1c0.8-0.2,0.7-0.9,0.8-1.5c0-2.4,0.5-4.8,0.9-7.3c0.8,1,1,2,1.6,2.8
			c0.5,0.6,1,1.4,1.9,1.1c1-0.4,0.7-1.3,0.5-2.1c-0.7-2.9,0.3-5.6,0.3-8.7c1.2,1,1.4,2.1,1.9,3c0.3,0.5,0.5,1,1.2,0.9
			c0.7-0.1,1-0.6,1.1-1.3c0.1-0.6-0.1-1.2-0.1-1.9c-0.2-2.2,0.4-4.2,1.8-6c0.6,8.3-0.2,16.5-2.1,24.6c0,0.1,0,0.1,0,0.2
			c-3.5-0.7-7.1-0.7-10.6-0.3c-3.1,0.4-6.4,0.6-9.1,2.8c-7.7,3.1-14.8,7.2-20.5,13.4c-6.8,7.4-11.5,15.8-10.5,26.3
			c1,10.5,8.7,17,19.2,16.3c14.9-1,32.9-14.8,37.5-29C125.5,117.4,125.9,112.9,124.4,108.4L124.4,108.4z M120.2,96.2
			c2.5,2.2,3.6,4.8,3,8c-1-1.6-1.9-3.3-4.2-3.4C118.9,99.1,119.8,97.7,120.2,96.2z M121,114.8c-0.6,1.9-1,3.8-1.8,5.6
			c-3.7,9.5-10.2,16.7-18.2,22.8c-3.9,2.9-8.1,5-13,5.8c-9.8,1.6-16.5-4-16.4-13.9c0-2.8,0.5-5.5,1.3-8.1
			c4.1-12.3,11.9-21.7,23.1-28.2c6.2-3.6,12.9-5.7,20.3-4.5c0.3,0,0.6,0,0.9-0.1c-0.3,1.2-0.7,2.4-1,3.7c0,0.4-0.1,0.7-0.3,1.1
			c-0.8,0.2-1.7-0.6-2.5-0.3c-4.2-0.8-8.3-0.3-12.2,1.5c-0.2-0.1-0.4-0.1-0.6-0.1c-0.7,0-1.4,0.2-2,0.6c-8.7,4.6-15.7,11-19.9,20
			c-2.2,4.8-3,9.9-0.3,15c2.3,4.4,6.4,5.7,11,3.7c3.6-1.5,6.7-3.7,9.5-6.4c6.7-6.4,11.6-14.1,15.4-22.5c1.2-2.7,2.3-5.5,3.8-8
			c0.2,0.6,0.7,1,1.1,1.6c1.6,2.5,2.6,5.1,1.4,8.1c0,0.2,0,0.4,0.1,0.6c-1,1.3-2,2.5-3,3.8l-6.5,4.7c0.1,0.2,0.3,0.4,0.4,0.6
			c2.7-1.1,4.8-3.1,6.8-5.3c1-0.6,1.5-1.6,2.3-2.4c0.2-0.2,0.3-0.3,0.4-0.2C121.3,114.1,121.3,114.4,121,114.8z M101,102
			c0.5-0.2,0.9-0.5,0.9-1.1c3.2-1,6.5-2,10-1.8c1.1,0.5,2.4,0.4,3.5,1c0,0.1,0,0.1-0.1,0.2c-4.5,12.4-11.5,23.2-20.7,32.6
			c-1.7,1.8-3.8,3-6.1,3.9c-2.8,1.1-4.8,0.5-6.5-2.1c-1.9-3.1-2.2-6.4-1.2-9.9c1.2-4.2,3.5-7.8,6.2-11.2
			C91,108.9,95.5,104.9,101,102L101,102z"/>
		<path id="Vector_2" class="st1" d="M39.2,110.1c-0.1,0.1-0.1,0.3-0.2,0.4c-5.6,9.2-10.5,18.8-17,27.5c-0.6,0.6-1.2,1.2-1.8,1.8
			c-3.1,3.4-6.3,6.7-10.6,8.4c-1.4,0-2.8,0.1-4.1,0.1c-1.9-0.8-2.3-2.4-2-4.3c0.4-2.2,1.4-4.1,2.5-6c0.3,0,0.6-0.1,0.8-0.1
			c0.5-0.3,1.1,0,1.5-0.5c0.7-0.3,1.5-0.5,2.2-0.8c3.4-1.1,6.9-1.7,10-3.4c2.6-1.4,3.8-4.1,3-5.9c-0.9-2-2.9-2.5-6.2-1.6
			c-0.3,0.1-0.6,0.2-0.9,0.4c-0.1,0-0.1,0-0.2,0.1c-5.7,1.4-10.3,4.5-13.9,9c-3.6,4.4-3,11.6,2.1,13.6c2.1,1.1,4.1,0.5,6.2-0.1
			c1.9-0.6,3.4-1.9,4.9-3c1.8-1.3,3-3.3,5-4.4c0,1.5-0.1,2.9,0.1,4.4c0.2,1.5,0.6,3,2.7,3c2.6,1.2,4.4-0.2,6.2-1.8
			c2.6-2.5,4.9-5.2,7-8.1c0.8-1.1,1.6-2.3,2.4-3.4c-0.2-0.1-0.4-0.3-0.6-0.4c-0.7,0.9-1.4,1.7-2,2.6c-2.4,3.4-4.9,6.7-8.1,9.3
			c-1.4,1.1-2.8,2-4.7,1.4c-0.2-1.5,0.2-2.9,0.9-4.3c4.8-9.3,10.6-18,15.8-27.1c2.2-3.8,4.5-7.5,6.7-11.1
			C42.5,104.3,40.6,106.7,39.2,110.1L39.2,110.1z M15.6,128.5c0.6-0.4,1.3-0.8,1.4-1.6c0.4,0.2,0.9,0.1,1.4,0
			c0.6-0.1,1.3-0.3,1.7,0.4c0.4,0.7,0,1.3-0.4,1.9c-0.3,0.5-0.7,0.8-1.1,1.2c-3,3-6.8,4.4-10.8,5.5
			C10.3,133.4,12.7,130.7,15.6,128.5L15.6,128.5z M10.3,148.6c0.1,0,0.2,0.1,0.3,0.1C10.5,148.7,10.4,148.6,10.3,148.6z"/>
		<path id="Vector_3" class="st1" d="M164.5,133.8c-0.7-1.1,0.2-3-1.4-3.7c0,0,0,0,0,0c0-1.3-0.1-2.5-0.1-3.8c0.8-1.7,2-3,3.4-4.1
			c0.5-0.7,1-1.4,1.4-2.1c0.4-0.6,0.8-1.3,0.2-1.9c-0.7-0.6-1.4,0-1.9,0.4c-0.8,0.6-1.4,1.4-2.1,2.1c-1.2,1.5-2,3.2-2.3,5.1
			c-0.2,0.1-0.4,0.2-0.5,0.4c-2.3,2.6-4,5.7-6.7,8.1c-3.7,0.4-5.5,2.8-6.8,5.9c-0.5,1.1-0.4,2.4-1.2,3.5c-1.5,1.3-2.9,2.6-4.4,3.8
			c-0.8,0.7-1.8,1.5-2.9,0.9c-1.1-0.6-0.6-1.8-0.6-2.7c1.1-3.2,2.9-6,4.6-8.9c1.9-3.1,3.8-6.2,5.6-9.4c0.3-0.5,1.2-1.2-0.3-1.5
			c-2.7-0.5-4.1,0-5.4,2.3c-1.2-2.9-2-3.3-4.8-2.5c-0.2,0-0.3,0.1-0.5,0.1c-6,1.5-10.8,4.7-14.9,9.2c-1.2,1.4-1.9,3-2.4,4.8
			c-1.1,3.8,0,7.2,2.8,9.1c0.2,0.1,0.3,0.2,0.5,0.2c2.2,0.9,4.1,0.5,5.9-1.4c1.5-1.6,2.8-3.3,4.3-4.9c0.4-0.4,0.5-1.5,1.6-0.9
			c-1,3.2-0.5,5.2,1.9,7.1c1.9,1.3,3.5,0.6,5.1-0.5c1.2-0.9,2.4-1.9,3.5-3c0.7-0.7,1-0.2,1.4,0.3h0c0.3,1.7,1.2,2.8,2.8,3.3
			c2.4,0.8,4.7,0.9,7.1,0c7.3-1.5,10.1-6.7,7.5-13.4C164.7,134.9,164.6,134.3,164.5,133.8L164.5,133.8z M135.4,139.3
			c0,0.1-0.1,0.2-0.1,0.2c-1.3,0.1-1.6,1.5-2.4,2.3c-2.5,2.5-4.4,5.8-8.4,6.4c-0.9-3-0.2-5.8,1.5-8.4c2.6-3.9,5.2-7.7,9-10.7
			c1.3-1,2.9-1.6,3.9-3c1.1,0.6,2.1,1.4,2.7,2.6c-0.1,0.1-0.2,0.2-0.3,0.3C139.9,132.8,137.4,135.9,135.4,139.3L135.4,139.3z
			 M154.9,147.1c-0.5,0.3-1.2,0.5-1.3,1.2c-0.8-0.8-1.7-0.6-2.7-0.4c0,0-0.1,0-0.1,0.1c-0.7-1-1.5-1.9-2.7-2.5c0,0,0,0,0,0
			c0,0,0,0,0,0c0.7-3,2.6-4.8,5.5-5.8c2.7-0.9,3.1-1.9,2.6-4.6c0-0.1-0.1-0.1-0.1-0.2c1.7-2,3.1-4.2,5.3-6.2c0.1,1.7,0,3.2,0.1,4.6
			c0.1,1.2-0.3,2.5,0.3,3.7c0,0,0,0.1,0,0.1C160.7,141.3,158.8,144.9,154.9,147.1L154.9,147.1z"/>
		<path id="Vector_4" class="st1" d="M174.7,160.1c2-1.7,1.1-2.9-0.8-3.9c-0.9-0.3-1.9-0.1-2.8-0.2c-1.2-0.1-1.6,0.1-1.3,1.5
			c0.3,1.7,0.1,3.6,0.1,5.3c0,0.5-0.6,1.3,0,1.4c0.8,0.2,1.9,0.7,2.5-0.5c-0.7-0.7-0.6-1.4-0.3-2.3c1.5,1,1.6,3.7,4.3,2.5
			c-0.6-0.9-1.2-1.7-1.7-2.5C174.4,161,174.1,160.6,174.7,160.1L174.7,160.1z"/>
		<path id="Vector_5" class="st1" d="M180.9,121.6c1.9,0,3.9-1.9,4-3.9c0.1-1.3-0.6-2-1.9-2c-1.9,0-3.9,2-4,3.9
			C178.9,120.9,179.6,121.6,180.9,121.6L180.9,121.6z"/>
		<path id="Vector_6" class="st1" d="M198.4,121.6c0.7-1,2.4-2.3,1.2-3.3c-1.4-1.1-2.4,0.8-3.2,1.8c-1.6,1.8-1.7,4.3-3.1,6.2
			c-2.2,2.6-4.5,5.2-6.7,7.9c-4.2,0.4-6.2,3.1-7.3,6.8c-0.3,0.9-0.4,1.9-1.1,2.7c-0.7,0.7-1.5,1.3-2.2,2.1c-1.6,1.6-3.3,3-5.8,2.6
			c-1.1-1.2-0.6-2.4,0-3.7c2-4.3,4.6-8.1,7-12.2c1.3-2.1,2.8-4.1,3.7-6.4c-3.5-0.9-5.9-0.1-7.2,3.3c-0.6,1.7-1.8,3.1-2.7,4.7
			c-1.6,2.8-3.5,5.6-4.3,8.8c-1.1,4.1,1.2,6.8,5.5,6.4c2.4-0.4,3.8-2.5,5.6-3.8c0.5-0.3,0.7-1.1,1.5-0.4l0,0
			c0.6,2.7,1.8,3.8,4.7,4.2c1.3,0,2.5,0.1,3.8,0c8-0.7,11.9-6.9,9-14.2c-0.7-1.7-1.3-3.4-1.9-5c0-1.2-0.1-2.5-0.1-3.7
			C195.3,124.3,197.3,123.2,198.4,121.6L198.4,121.6z M193.6,134.5c-0.2,6-2.7,10.6-8.3,13.3c-0.1,0.1-0.2,0.1-0.3,0.2
			c-0.2-0.1-0.4-0.2-0.7-0.2c-2.5-0.2-3.6-1.7-3.7-4c0-0.2,0-0.4-0.1-0.5c0-0.1,0.1-0.1,0.2-0.2c1.2-2,3.2-2.7,5.3-3.6
			c2.6-1.1,3-2.1,2.1-4.5c0,0-0.1-0.1-0.1-0.1c1.9-1.9,3.1-4.3,5.1-6.1c0.4,0.7-0.1,1.8,0.6,2.4
			C193.5,132.3,193.6,133.4,193.6,134.5z"/>
		<path id="Vector_7" class="st1" d="M121.6,163.8c-1.2-0.6-0.4-2.1-0.5-3.2c0.9-0.2,1.2,0.7,1.8,1.4c0.2-1.3,0.4-2.4-0.2-4
			c-0.3,1.2-0.7,1.9-1.7,1.6l0-2.7c1.4-0.4,2.5,0.2,3.3,1.5c0.4-1.5,0.3-2.3-1.3-2.1c-0.7,0.1-1.4,0.1-2.1,0.1
			c-0.8-0.1-1.7-0.3-2.5,0.2c1.1,1.1,0.5,2.5,0.5,3.8c0.1,1.3-0.5,3.2-0.1,3.7c0.8,1.1,2.6,0,4,0.3c1.6,0.4,2.1-0.5,1.8-2.1
			C123.9,163.1,122.9,164.4,121.6,163.8z"/>
		<path id="Vector_8" class="st1" d="M56.4,163c-0.6,0.7-1.4,1.1-2.3,0.9c-1-0.3-0.6-1.3-0.7-2c0-1.4,0.1-2.8,0-4.2
			c0-0.5,0.9-1,0.2-1.3c-0.6-0.3-1.4-0.3-2-0.1c-0.8,0.3,0.1,0.9,0,1.3c-0.1,0.9,0,1.9,0,2.8c-0.1,1.2-0.7,2.8-0.1,3.6
			c0.8,1,2.5,0,3.8,0.3c1.8,0.4,2.2-0.5,1.9-2.3C56.9,162.4,56.7,162.7,56.4,163L56.4,163z"/>
		<path id="Vector_9" class="st1" d="M23.5,156.3c-0.6-0.2-1.4-0.2-2.1-0.1c-0.8,0.2,0,0.7,0,1.1c0,1.9,0.2,3.9-0.1,5.8
			c-0.2,1.1,0,1.4,1,1.2c1.3,0,1.2,0,1.1-1.3c-0.1-1.9,0-3.9,0-5.8C23.4,156.9,24.1,156.5,23.5,156.3L23.5,156.3z"/>
		<path id="Vector_10" class="st1" d="M69.1,158.1c-0.9,2-1.7,4-2.7,6.3c0.7-0.2,1.8,0.5,1.6-0.7c-0.3-2,1-1.7,2.1-1.9
			c0.9,0.9,0.6,3.8,3.2,2.1c-1-2.6-2.1-5.2-3.2-8C69.3,156.7,69.2,157.4,69.1,158.1z M69.5,160.7c-0.1-0.1-0.1-0.2-0.1-0.3
			C69.4,160.5,69.5,160.6,69.5,160.7z"/>
		<path id="Vector_11" class="st1" d="M139.5,159.4c-0.9-0.6-2.3-0.9-1.9-2.5c1.6-0.9,2.3,0.4,3.2,1.5c0.3-2.5-0.3-2.8-3.3-2.1
			c-2,1.6-1.9,3.1,0.2,4.5c0.9,0.6,2.4,0.8,2.1,2.4c-0.9,0.7-1.8,0.5-2.6,0c-0.3-0.4-0.3-1-1.5-1.5c0.8,1.1-0.5,2.4,1.3,2.6
			c1.2,0.5,2.4,0.9,3.4-0.4C141.8,161.6,141.7,160.8,139.5,159.4z"/>
		<path id="Vector_12" class="st1" d="M157.3,156.4c-0.9-0.9-1.8-0.7-2.8-0.1c-3.4,1.5-3.6,5.5-0.5,8c0.1,0,0.1,0.1,0.2,0.1
			c0.9,0.5,1.9,0.6,2.8,0c0.1,0,0.2-0.1,0.3-0.2C160.7,162.9,160.5,157.5,157.3,156.4L157.3,156.4z M155.2,163.7
			c-0.7-2.3-0.6-4.5,0-6.8c0.4,0.4,0.8,0.5,1.4,0.4c0.6,2.2,0.7,4.3-0.2,6.4C155.9,163.4,155.6,163.4,155.2,163.7z"/>
		<path id="Vector_13" class="st1" d="M106.2,160.1c0.7-0.7,1.5-1.4,1.1-2.4c-0.4-0.9-1.3-1.2-2.3-1c0.5,0.8,0.6,1.7,0.5,2.7
			c-0.4-0.1-0.8,0-1.2,0.2c0.1-1,0.1-2-0.4-2.9c-1.7-0.8-2.4-0.8-2.3,0.1c0.4,2.2,0.4,4.4,0,6.6c-0.2,1.1,0.6,0.9,1.1,0.8
			c0.5-0.1,1.9,0.5,1-1c0.1-0.6-0.2-1.2,0.3-1.8c1.3,1,1.6,3.7,4.2,2.7C107.8,162.6,105.9,161.9,106.2,160.1L106.2,160.1z"/>
		<path id="Vector_14" class="st1" d="M9.8,156.2c-0.4-0.1-0.8-0.1-1.1,0c-0.2,0-0.6,0-0.3,0.6c0.7,1.6-0.5,2.8-1,4.2
			C6.6,160.1,6.1,159,6,158c-0.1-2.3-1.3-2.1-2.8-1.7c1.1,2.8,2.2,5.4,3.3,8.1c1.2-1.1,0.7-2.5,1.5-3.5c1.2-1.1,0.9-2.9,2-4.1
			C10.2,156.6,10.1,156.3,9.8,156.2L9.8,156.2z"/>
		<path id="Vector_15" class="st1" d="M37.6,163.1c0.1-2,0.1-4,0.2-6c0-0.3,0.4-0.8-0.2-0.9c-0.6-0.1-1.2-0.1-1.9,0
			c-0.6,0.1-0.2,0.5-0.2,0.9c0.1,1.8,0.4,3.6,0.1,5.3c-0.3,1.9,0.2,2.2,1.9,1.8c0.6,0.1,1.2,0.1,1.8,0.2c1.9,0.2,2.4-0.7,2-2.5
			C40.2,163,39.5,164.8,37.6,163.1L37.6,163.1z"/>
		<path id="Vector_16" class="st1" d="M190.9,156.3c-0.6,0-1.2,0-1.9,0c-1.6-0.2-2.3,0.4-2.1,1.7c0.7-0.5,1-1.4,2.1-1.2
			c0,2,0,4,0.1,6c0,0.5-0.8,1.1-0.1,1.4c0.6,0.2,1.5,0.2,2,0c0.7-0.3-0.2-0.8-0.2-1.3c0.1-2,0.1-4,0.1-6c1-0.2,1.5,0.7,2.2,1.5
			C193.3,156.8,192.5,156.1,190.9,156.3z"/>
	</g>
</g>
</svg>
