<svg width="169" height="41" viewBox="0 0 169 41" fill="none" xmlns="http://www.w3.org/2000/svg">
<rect x="0.5" y="0.5" width="168" height="40" rx="20" stroke="#E5E83E"/>
<path d="M22.4615 7L25.4838 16.3017L35.2642 16.3017L27.3517 22.0505L30.374 31.3522L22.4615 25.6034L14.549 31.3522L17.5713 22.0505L9.65885 16.3017L19.4392 16.3017L22.4615 7Z" fill="#E5E83E"/>
<path d="M53.2308 7L56.2531 16.3017L66.0334 16.3017L58.121 22.0505L61.1433 31.3522L53.2308 25.6034L45.3183 31.3522L48.3406 22.0505L40.4281 16.3017L50.2085 16.3017L53.2308 7Z" fill="#E5E83E"/>
<path d="M84 7L87.0223 16.3017L96.8027 16.3017L88.8902 22.0505L91.9125 31.3522L84 25.6034L76.0875 31.3522L79.1098 22.0505L71.1973 16.3017L80.9777 16.3017L84 7Z" fill="#E5E83E"/>
<path d="M114.769 7L117.792 16.3017L127.572 16.3017L119.659 22.0505L122.682 31.3522L114.769 25.6034L106.857 31.3522L109.879 22.0505L101.967 16.3017L111.747 16.3017L114.769 7Z" fill="#E5E83E"/>
<path d="M145.538 7L148.561 16.3017L158.341 16.3017L150.429 22.0505L153.451 31.3522L145.538 25.6034L137.626 31.3522L140.648 22.0505L132.736 16.3017L142.516 16.3017L145.538 7Z" fill="#E5E83E"/>
</svg>
